<svg width="24" height="24" viewBox="0 0 24 24" fill="none" xmlns="http://www.w3.org/2000/svg">
<g id="material-symbols:detector-alarm-outline">
<path id="Vector" d="M11 21V16H13V21H11ZM19.075 18.475L15.525 14.95L16.95 13.525L20.475 17.075L19.075 18.475ZM4.925 18.475L3.525 17.075L7.05 13.525L8.475 14.95L4.925 18.475ZM5 6H19V5H5V6ZM8.4 9H15.6L15.9 8H8.1L8.4 9ZM8.4 11C7.96667 11 7.575 10.871 7.225 10.613C6.875 10.3543 6.63333 10.0167 6.5 9.6L6 8H5C4.45 8 3.979 7.804 3.587 7.412C3.19567 7.02067 3 6.55 3 6V3H21V6C21 6.55 20.8043 7.02067 20.413 7.412C20.021 7.804 19.55 8 19 8H18L17.35 9.7C17.2 10.0833 16.9583 10.3957 16.625 10.637C16.2917 10.879 15.9167 11 15.5 11H8.4ZM5 6V5V6Z" fill="#DD1E25"/>
</g>
</svg>
