<svg width="32" height="32" viewBox="0 0 32 32" fill="none" xmlns="http://www.w3.org/2000/svg">
<g id="windy-line" clip-path="url(#clip0_315_8095)">
<path id="Vector" d="M14.0001 22.667H5.33341V20.0004H14.0001C14.8517 20.0007 15.6871 20.234 16.4156 20.6752C17.1441 21.1163 17.738 21.7484 18.133 22.5029C18.5279 23.2575 18.7088 24.1057 18.6561 24.9558C18.6034 25.8058 18.3191 26.6252 17.834 27.3252C17.3489 28.0252 16.6815 28.5791 15.9041 28.9269C15.1267 29.2747 14.2689 29.4031 13.4237 29.2982C12.5785 29.1933 11.7782 28.8591 11.1093 28.3319C10.4405 27.8046 9.92871 27.1044 9.62942 26.307L12.1267 25.3697C12.255 25.7114 12.4743 26.0116 12.7609 26.2375C13.0475 26.4635 13.3905 26.6068 13.7528 26.6518C14.115 26.6968 14.4826 26.6418 14.8158 26.4927C15.149 26.3437 15.4351 26.1064 15.643 25.8064C15.8509 25.5064 15.9728 25.1552 15.9954 24.7909C16.018 24.4266 15.9405 24.0631 15.7713 23.7397C15.602 23.4163 15.3475 23.1454 15.0353 22.9563C14.7231 22.7672 14.3651 22.6672 14.0001 22.667ZM6.66675 14.667H24.6667C25.5184 14.6673 26.3538 14.9007 27.0823 15.3418C27.8108 15.783 28.4047 16.415 28.7996 17.1696C29.1946 17.9242 29.3755 18.7724 29.3228 19.6224C29.2701 20.4725 28.9858 21.2919 28.5007 21.9919C28.0156 22.6919 27.3482 23.2458 26.5707 23.5935C25.7933 23.9413 24.9356 24.0697 24.0904 23.9648C23.2452 23.86 22.4448 23.5258 21.776 22.9985C21.1072 22.4713 20.5954 21.771 20.2961 20.9737L22.7934 20.0364C22.9217 20.3781 23.141 20.6782 23.4276 20.9042C23.7142 21.1302 24.0572 21.2735 24.4194 21.3184C24.7817 21.3634 25.1493 21.3084 25.4825 21.1594C25.8157 21.0104 26.1017 20.773 26.3097 20.473C26.5176 20.1731 26.6395 19.8219 26.6621 19.4576C26.6847 19.0933 26.6072 18.7297 26.4379 18.4063C26.2687 18.083 26.0142 17.812 25.702 17.623C25.3898 17.4339 25.0318 17.3338 24.6667 17.3337H6.66675C5.60588 17.3337 4.58847 16.9123 3.83832 16.1621C3.08818 15.412 2.66675 14.3946 2.66675 13.3337C2.66675 12.2728 3.08818 11.2554 3.83832 10.5053C4.58847 9.75512 5.60588 9.33369 6.66675 9.33369H18.0001C18.3651 9.33354 18.7231 9.23351 19.0353 9.04443C19.3475 8.85535 19.602 8.58443 19.7713 8.26104C19.9405 7.93764 20.018 7.5741 19.9954 7.2098C19.9728 6.8455 19.8509 6.49433 19.643 6.19435C19.4351 5.89436 19.149 5.657 18.8158 5.50798C18.4826 5.35896 18.115 5.30396 17.7528 5.34894C17.3905 5.39392 17.0475 5.53718 16.7609 5.76317C16.4743 5.98917 16.255 6.28929 16.1267 6.63103L13.6294 5.69503C14.014 4.6721 14.7454 3.81655 15.696 3.27744C16.6466 2.73833 17.7563 2.54985 18.8316 2.74483C19.9069 2.9398 20.8797 3.50588 21.5805 4.34444C22.2814 5.18299 22.6658 6.24085 22.6667 7.33369C22.6667 8.57137 22.1751 9.75836 21.2999 10.6335C20.4247 11.5087 19.2378 12.0004 18.0001 12.0004H6.66675C6.31313 12.0004 5.97399 12.1408 5.72394 12.3909C5.47389 12.6409 5.33341 12.9801 5.33341 13.3337C5.33341 13.6873 5.47389 14.0265 5.72394 14.2765C5.97399 14.5266 6.31313 14.667 6.66675 14.667Z" fill="#F47B20"/>
</g>
<defs>
<clipPath id="clip0_315_8095">
<rect width="32" height="32" fill="white"/>
</clipPath>
</defs>
</svg>
