<svg width="133" height="133" viewBox="0 0 133 133" fill="none" xmlns="http://www.w3.org/2000/svg">
<path d="M62.1908 131.693C96.5379 131.693 124.382 129.908 124.382 127.707C124.382 125.507 96.5379 123.722 62.1908 123.722C27.8438 123.722 0 125.507 0 127.707C0 129.908 27.8438 131.693 62.1908 131.693Z" fill="#D1D3D4"/>
<path d="M72.1742 64.9593C73.4079 64.2217 74.5965 63.4113 75.7338 62.5324C78.1728 60.6447 78.8979 59.0207 79.605 56.0904C80.0784 54.1128 78.5863 52.2491 77.1181 50.8409C75.6499 49.4326 73.978 47.8746 73.954 45.8431C73.954 44.279 74.9308 42.9127 75.5241 41.4625C78.6582 33.828 69.945 30.4602 68.2012 24.0841C66.4573 17.708 64.4019 12.4645 56.5936 14.496C54.6999 14.9814 52.8243 15.6286 50.8767 15.6945C49.0789 15.7844 47.3171 15.4068 45.5313 15.3829C43.0346 15.384 40.5843 16.058 38.4383 17.334C36.2923 18.61 34.5299 20.4409 33.3364 22.6339C32.3836 24.4316 32.9469 26.8287 32.054 28.2489C29.7109 31.9763 24.1199 31.0654 25.3064 37.1598C25.7319 39.3292 26.6607 41.6123 25.8337 43.6678C24.7791 46.2865 21.5251 47.0716 19.2419 48.7495C15.5205 51.4941 14.5498 57.0192 16.3295 61.2919C18.1093 65.5646 22.1243 68.6028 26.4869 70.1549C30.8495 71.707 35.5537 71.9527 40.1859 71.9527C51.2362 71.9946 62.8198 70.5744 72.1742 64.9593Z" fill="white"/>
<path d="M40.3597 72.2523H40.1979C35.6556 72.2523 30.8495 72.0246 26.415 70.4545C21.5131 68.7107 17.7498 65.4268 16.0958 61.4657C14.1602 56.8154 15.4486 51.2783 19.0921 48.5937C19.8576 48.0586 20.6584 47.5761 21.4891 47.1494C23.233 46.2086 24.8869 45.3517 25.5641 43.6318C26.1633 42.1097 25.7618 40.3898 25.3543 38.7299C25.2405 38.2445 25.1206 37.7591 25.0307 37.2797C24.2457 33.2647 26.2832 32.1261 28.4405 30.9156C29.687 30.2205 30.9694 29.5014 31.8143 28.165C32.188 27.3785 32.3824 26.5189 32.3836 25.6481C32.4095 24.5875 32.6458 23.5425 33.0788 22.5739C34.2836 20.3609 36.0562 18.5088 38.2143 17.2081C40.3724 15.9073 42.838 15.2049 45.3575 15.1731H45.5193C46.3043 15.1731 47.0894 15.257 47.8504 15.3349C48.8445 15.4546 49.8458 15.5026 50.8467 15.4788C52.3386 15.3494 53.8117 15.056 55.2393 14.6038L56.5157 14.2563C64.4918 12.2068 66.6371 17.4863 68.4528 24.0661C69.1 26.4212 70.766 28.3987 72.378 30.3103C75.0267 33.4564 77.7713 36.7104 75.7638 41.6003C75.596 42.0138 75.3862 42.4333 75.1645 42.8348C74.6062 43.7548 74.2735 44.7939 74.1937 45.867C74.1937 47.7487 75.7997 49.2648 77.19 50.6072L77.2679 50.6731C79.3953 52.7105 80.2282 54.5083 79.8267 56.1862C79.1076 59.1825 78.3645 60.8365 75.8597 62.7781C74.7106 63.6636 73.51 64.48 72.2641 65.223C64.3959 69.9452 53.9449 72.2523 40.3597 72.2523ZM45.3695 15.6885C42.9502 15.7181 40.5824 16.3915 38.5097 17.6396C36.437 18.8876 34.7341 20.6653 33.5761 22.7897C33.1782 23.6977 32.9624 24.675 32.9409 25.6661C32.9377 26.6229 32.7142 27.5662 32.2877 28.4227C31.3709 29.8729 30.0226 30.6279 28.6922 31.359C26.6248 32.5156 24.839 33.5164 25.5461 37.1359C25.642 37.6093 25.7558 38.0827 25.8697 38.5621C26.2952 40.3059 26.7326 42.1157 26.0555 43.7996C25.3004 45.6753 23.4847 46.6521 21.7288 47.5989C20.9172 48.0108 20.1343 48.4773 19.3858 48.9952C15.934 51.542 14.7235 56.7855 16.5633 61.22C18.1633 65.0612 21.8068 68.2373 26.5589 69.9272C30.9214 71.4792 35.6795 71.7249 40.168 71.7249H40.3298C53.813 71.7249 64.1742 69.4418 72.0064 64.7436C73.2286 64.014 74.4072 63.2136 75.5361 62.3466C77.9331 60.5069 78.6222 58.9188 79.3054 56.0544C79.6589 54.5862 78.8739 52.9562 76.9084 51.0686L76.8305 51.0027C75.3563 49.5884 73.6784 48.0064 73.6604 45.873C73.7375 44.7128 74.0887 43.5873 74.6851 42.5891C74.8829 42.1936 75.0806 41.7921 75.2484 41.3906C77.1241 36.8123 74.6072 33.828 71.9465 30.6639C70.2986 28.7103 68.5907 26.6848 67.9135 24.2099C66.1158 17.69 64.1442 12.86 56.6415 14.7896C56.216 14.8975 55.7966 15.0113 55.3771 15.1312C53.91 15.5936 52.397 15.895 50.8647 16.0301C49.8357 16.0527 48.8064 16.0026 47.7845 15.8803C47.0354 15.8024 46.2624 15.7304 45.5013 15.7185L45.3695 15.6885Z" fill="#F47B20"/>
<path d="M18.1992 83.0029C18.1992 83.0029 23.0891 56.6356 27.9791 52.1712C32.869 47.7067 45.8429 47.7067 52.6445 47.491C59.446 47.2752 69.4236 49.6183 73.9121 54.0828C78.4005 58.5472 83.0507 86.8202 83.0507 86.8202L73.6963 85.7535L79.6529 101.49C79.6529 101.49 59.0265 112.588 49.4564 111.923C39.8863 111.258 24.791 98.3139 24.791 98.3139L25.642 80.8755L18.1992 83.0029Z" fill="#FDDAA5"/>
<path d="M71.1438 81.361C71.1079 81.3595 71.0726 81.3508 71.04 81.3354C71.0075 81.32 70.9783 81.2983 70.9543 81.2715C70.9303 81.2447 70.9119 81.2133 70.9002 81.1793C70.8885 81.1453 70.8837 81.1092 70.8861 81.0733C71.3056 72.9115 68.3693 57.0551 68.3393 56.8993C68.3326 56.8643 68.3329 56.8283 68.3401 56.7934C68.3473 56.7585 68.3613 56.7253 68.3814 56.6958C68.4014 56.6664 68.4271 56.6411 68.4568 56.6215C68.4866 56.6019 68.52 56.5884 68.555 56.5817C68.59 56.575 68.626 56.5753 68.661 56.5825C68.6959 56.5898 68.729 56.6038 68.7585 56.6238C68.788 56.6438 68.8133 56.6695 68.8328 56.6993C68.8524 56.7291 68.8659 56.7624 68.8726 56.7975C68.8726 56.9593 71.8689 72.8755 71.4314 81.1033C71.4299 81.1393 71.4212 81.1745 71.4059 81.2071C71.3905 81.2396 71.3688 81.2688 71.342 81.2928C71.3152 81.3168 71.2838 81.3352 71.2498 81.3469C71.2157 81.3586 71.1797 81.3634 71.1438 81.361Z" fill="#F47B20"/>
<path d="M34.7867 75.8359C34.7146 75.8359 34.6454 75.8077 34.5938 75.7573C34.5423 75.7069 34.5126 75.6383 34.511 75.5662C34.511 75.4464 34.3252 63.7429 36.4346 56.1384C36.4555 56.0696 36.5019 56.0115 36.5643 55.9758C36.6267 55.9402 36.7004 55.9297 36.7702 55.9466C36.8051 55.9556 36.8378 55.9715 36.8664 55.9934C36.8951 56.0152 36.919 56.0426 36.9369 56.0739C36.9548 56.1052 36.9662 56.1397 36.9705 56.1755C36.9748 56.2113 36.9719 56.2476 36.962 56.2822C34.8706 63.8148 35.0563 75.4584 35.0563 75.5543C35.058 75.6264 35.0313 75.6963 34.982 75.7489C34.9327 75.8016 34.8647 75.8328 34.7927 75.8359H34.7867Z" fill="#F47B20"/>
<path d="M56.4978 50.8649L57.4986 60.8245C57.4986 60.8245 57.0132 66.4935 50.7869 65.3669C48.9492 65.0175 47.2125 64.2628 45.7032 63.1578C44.1939 62.0528 42.9499 60.6251 42.0617 58.9788C41.7681 58.3795 41.9599 57.0732 41.9239 56.414L41.6063 50.5712C41.4505 47.6409 41.037 44.5787 41.1269 41.6603C41.2168 38.7419 41.1269 35.6318 41.2408 32.5876C41.2253 32.4097 41.2765 32.2324 41.3846 32.0902C41.4916 31.9917 41.629 31.9325 41.7741 31.9224C42.6166 31.7704 43.4814 31.7929 44.3149 31.9883C44.357 29.9208 44.1109 27.8575 43.5838 25.8579C45.3419 27.1693 46.7042 28.9401 47.521 30.9756C49.5874 30.8733 51.659 30.9757 53.7053 31.2812C53.9693 29.8586 53.7719 28.3889 53.142 27.0864C54.016 28.1621 54.8168 29.2952 55.539 30.4782C55.539 30.652 58.3136 31.0415 58.5053 30.8677C58.9847 30.4422 58.8289 27.5718 58.8889 26.8886C60.3076 28.6695 61.2703 30.7698 61.6934 33.007C62.1728 35.0505 62.1188 43.506 62.1308 45.6394C62.1248 48.7855 59.8956 51.3083 56.4978 50.8649Z" fill="white"/>
<path d="M52.3449 65.7684C51.806 65.7645 51.2685 65.7123 50.7389 65.6126C48.8612 65.2575 47.0871 64.4851 45.5479 63.3525C44.0087 62.2198 42.7435 60.7559 41.846 59.0687C41.649 58.4416 41.5877 57.7797 41.6662 57.1271C41.6662 56.8515 41.6662 56.5998 41.6662 56.402L41.3546 50.5653C41.3006 49.5945 41.2168 48.5937 41.1389 47.6229C40.9383 45.6319 40.8482 43.6313 40.8692 41.6303C40.9111 40.2041 40.9171 38.7359 40.9231 37.3217C40.9231 35.7636 40.9231 34.1516 40.983 32.5276C40.9688 32.2812 41.0455 32.0381 41.1988 31.8445C41.3506 31.7079 41.5412 31.6221 41.7441 31.5988C42.511 31.461 43.2963 31.461 44.0632 31.5988C44.074 29.6656 43.8302 27.7394 43.3381 25.8699C43.3246 25.8149 43.3283 25.757 43.3488 25.7041C43.3694 25.6513 43.4057 25.6061 43.4529 25.5746C43.5 25.5432 43.5558 25.527 43.6124 25.5284C43.6691 25.5298 43.724 25.5486 43.7696 25.5823C45.5149 26.8843 46.8787 28.631 47.7187 30.64C49.6507 30.5579 51.5861 30.6501 53.5015 30.9156C53.6766 29.6296 53.4681 28.3204 52.9022 27.1523C52.8736 27.0916 52.8681 27.0226 52.8868 26.9581C52.9054 26.8937 52.947 26.8382 53.0036 26.8022C53.0602 26.7662 53.128 26.752 53.1943 26.7624C53.2606 26.7728 53.3208 26.8071 53.3637 26.8587C54.2255 27.9312 55.0143 29.0603 55.7247 30.2385C56.5783 30.4488 57.4526 30.5634 58.3315 30.5801C58.5652 30.2385 58.5772 28.4347 58.5772 27.7396C58.5772 27.3261 58.5772 26.9965 58.5772 26.8048C58.5817 26.7518 58.6017 26.7014 58.6348 26.6598C58.6678 26.6183 58.7124 26.5874 58.763 26.571C58.8144 26.556 58.8689 26.5553 58.9206 26.5691C58.9724 26.5828 59.0194 26.6104 59.0566 26.6489C60.363 28.1471 61.2679 30.1306 61.9151 32.8932C62.3465 34.691 62.3525 41.3547 62.3585 44.5487V45.5854C62.3894 46.3999 62.2449 47.2115 61.9347 47.9652C61.6245 48.719 61.1559 49.3972 60.5607 49.954C60.0487 50.3967 59.4504 50.7286 58.8038 50.9287C58.1571 51.1287 57.476 51.1927 56.8034 51.1166L57.7682 60.7466C57.6152 62.2908 56.862 63.7132 55.6708 64.7077C54.7119 65.4231 53.541 65.7965 52.3449 65.7684ZM42.8827 32.0722C42.5269 32.0709 42.1718 32.103 41.822 32.1681C41.7362 32.1751 41.6537 32.204 41.5823 32.252C41.527 32.3503 41.504 32.4635 41.5164 32.5756C41.4565 34.1576 41.4565 35.7696 41.4505 37.3217C41.4505 38.7419 41.4505 40.2101 41.3965 41.6423C41.3788 43.6253 41.4689 45.6078 41.6662 47.581C41.7441 48.5518 41.828 49.5585 41.8819 50.5353L42.1935 56.3721C42.1935 56.5818 42.1935 56.8515 42.1935 57.1451C42.1257 57.7109 42.1664 58.2844 42.3134 58.835C43.1761 60.4465 44.3897 61.8436 45.8646 62.9234C47.3395 64.0031 49.038 64.7378 50.8348 65.0733C52.7105 65.4148 54.2206 65.1512 55.3352 64.3002C56.3869 63.4088 57.0615 62.1518 57.2229 60.7826L56.2281 50.8649C56.2233 50.8239 56.2285 50.7824 56.243 50.7438C56.2576 50.7052 56.2813 50.6707 56.312 50.6432C56.3421 50.6145 56.378 50.5927 56.4173 50.5793C56.4566 50.5658 56.4984 50.561 56.5397 50.5653C57.1852 50.6793 57.8479 50.6499 58.4807 50.479C59.1135 50.3081 59.7009 50 60.2012 49.5765C60.7398 49.0708 61.1639 48.4556 61.445 47.7724C61.7261 47.0892 61.8578 46.3537 61.8312 45.6154V44.5787C61.8312 41.6543 61.8312 34.8108 61.3997 33.049C61.0195 31.1008 60.2445 29.2511 59.1225 27.6137V27.7696C59.1225 29.4055 59.0746 30.6819 58.6671 31.0475C58.2596 31.413 55.8566 30.9097 55.509 30.7718C55.4562 30.7568 55.407 30.7309 55.3647 30.6958C55.3224 30.6608 55.2879 30.6172 55.2633 30.5681C54.8498 29.8849 54.4064 29.2138 53.939 28.5666C54.1305 29.4682 54.1428 30.3988 53.9749 31.3052C53.9631 31.3748 53.9245 31.437 53.8674 31.4784C53.8102 31.5199 53.7391 31.5373 53.6693 31.5269C51.6386 31.2264 49.5833 31.126 47.5329 31.2273C47.4757 31.2327 47.4184 31.2185 47.3704 31.1869C47.3225 31.1553 47.2868 31.1082 47.2692 31.0535C46.5729 29.3138 45.4669 27.7679 44.0452 26.5471C44.4396 28.3169 44.6227 30.1274 44.5906 31.9404C44.5888 31.9811 44.5783 32.0209 44.5596 32.0571C44.541 32.0933 44.5148 32.125 44.4827 32.1501C44.4505 32.1765 44.4127 32.1951 44.3722 32.2045C44.3316 32.2139 44.2895 32.2137 44.249 32.2041C43.8004 32.1061 43.3417 32.0619 42.8827 32.0722Z" fill="#F47B20"/>
<path d="M56.9054 55.7429C56.9054 55.7429 52.8724 56.3002 50.0199 53.8493C47.1675 51.3983 47.2933 48.6417 47.2933 48.6417C47.2933 48.6417 51.9435 51.1646 56.4979 50.841L56.9054 55.7429Z" fill="#F47B20"/>
<path d="M55.8507 56.0605C53.6793 56.1101 51.559 55.3977 49.8581 54.047C46.9397 51.5421 47.0356 48.7496 47.0416 48.6537C47.0433 48.6088 47.0564 48.5652 47.0797 48.5268C47.103 48.4884 47.1357 48.4566 47.1747 48.4344C47.2137 48.4122 47.2577 48.4003 47.3026 48.3999C47.3475 48.3995 47.3917 48.4105 47.4311 48.432C47.4791 48.432 52.0694 50.9189 56.4919 50.6013C56.5609 50.5963 56.6291 50.6186 56.6818 50.6635C56.7345 50.7083 56.7674 50.7721 56.7735 50.841L57.181 55.7429C57.1848 55.8097 57.1636 55.8756 57.1215 55.9276C57.0794 55.9797 57.0195 56.0142 56.9533 56.0245C56.5869 56.0591 56.2186 56.0711 55.8507 56.0605ZM47.581 49.0672C47.8403 50.8628 48.7721 52.4929 50.1877 53.6275C52.5188 55.629 55.7129 55.5511 56.6177 55.4852L56.2582 51.0987C52.5068 51.3084 48.8034 49.6664 47.581 49.0672Z" fill="#F47B20"/>
<path d="M53.2621 43.0746C52.9292 43.073 52.5969 43.049 52.2673 43.0027C52.1977 42.9909 52.1355 42.9523 52.094 42.8951C52.0526 42.838 52.0352 42.7669 52.0456 42.697C52.0507 42.6622 52.0627 42.6288 52.0809 42.5987C52.0991 42.5686 52.1231 42.5424 52.1516 42.5217C52.1801 42.5011 52.2124 42.4863 52.2467 42.4784C52.281 42.4704 52.3165 42.4693 52.3512 42.4753C52.9145 42.5652 54.4845 42.6611 54.9699 42.0259C55.2995 41.5824 53.7055 39.0296 51.9737 36.9562C51.952 36.929 51.9359 36.8979 51.9263 36.8645C51.9167 36.8311 51.9138 36.7962 51.9177 36.7617C51.9216 36.7272 51.9322 36.6938 51.949 36.6634C51.9658 36.633 51.9885 36.6063 52.0156 36.5846C52.0428 36.563 52.0739 36.5469 52.1073 36.5373C52.1406 36.5277 52.1756 36.5248 52.2101 36.5286C52.2446 36.5325 52.278 36.5432 52.3083 36.56C52.3387 36.5768 52.3655 36.5994 52.3871 36.6266C53.274 37.7172 56.1205 41.3547 55.3834 42.3435C54.94 42.9427 53.9932 43.0746 53.2621 43.0746Z" fill="#F47B20"/>
<path d="M43.9736 36.2011C43.4779 34.9936 42.7372 33.902 41.7983 32.9951C40.7976 32.1621 39.2874 31.7966 38.2028 32.4737C37.0043 33.2228 36.7047 34.8708 36.8425 36.321C37.0343 37.9462 37.4791 39.5314 38.1609 41.0191C38.4831 41.9303 39.034 42.7433 39.7609 43.3802C40.1309 43.6889 40.5917 43.8682 41.0731 43.891C41.5544 43.9137 42.0301 43.7785 42.4276 43.5061" fill="white"/>
<path d="M41.2469 44.1711C40.6345 44.1544 40.043 43.9447 39.557 43.5718C38.7925 42.9051 38.2126 42.0527 37.8731 41.0969C37.1753 39.5798 36.7223 37.9617 36.5307 36.3028C36.4468 35.392 36.4169 33.1747 38.0229 32.1919C39.3233 31.3949 40.9772 31.9163 41.96 32.7373C42.9299 33.6678 43.6953 34.7903 44.2072 36.0332C44.2288 36.0659 44.2431 36.1028 44.2493 36.1416C44.2554 36.1803 44.2533 36.2198 44.2429 36.2576C44.2326 36.2954 44.2143 36.3306 44.1893 36.3608C44.1643 36.391 44.1331 36.4155 44.0979 36.4326C44.0627 36.4498 44.0242 36.4593 43.985 36.4604C43.9458 36.4616 43.9069 36.4543 43.8707 36.4392C43.8345 36.4241 43.802 36.4014 43.7753 36.3728C43.7486 36.3441 43.7283 36.31 43.7158 36.2729C43.2334 35.1007 42.5154 34.0401 41.6064 33.1567C40.7675 32.4556 39.3772 32.0002 38.3105 32.6594C36.9262 33.5043 37.0161 35.6197 37.076 36.2549C37.2611 37.8524 37.7001 39.4101 38.3764 40.8692C38.6813 41.7373 39.2033 42.5129 39.8926 43.1224C40.2142 43.3919 40.6143 43.5504 41.0332 43.5741C41.4522 43.5979 41.8676 43.4857 42.2177 43.2542C42.245 43.231 42.2768 43.2136 42.311 43.2028C42.3452 43.1921 42.3813 43.1883 42.417 43.1916C42.4527 43.195 42.4874 43.2054 42.519 43.2223C42.5506 43.2393 42.5786 43.2623 42.6012 43.2902C42.6472 43.3454 42.6698 43.4164 42.6642 43.488C42.6586 43.5597 42.6252 43.6263 42.5712 43.6737C42.2031 43.9919 41.7335 44.1683 41.2469 44.1711Z" fill="#F47B20"/>
<path d="M48.4501 37.9749C48.7744 37.9749 49.0373 37.3095 49.0373 36.4887C49.0373 35.6679 48.7744 35.0026 48.4501 35.0026C48.1257 35.0026 47.8628 35.6679 47.8628 36.4887C47.8628 37.3095 48.1257 37.9749 48.4501 37.9749Z" fill="#F47B20"/>
<path d="M57.3246 37.6572C57.6489 37.6572 57.9118 36.9919 57.9118 36.1711C57.9118 35.3503 57.6489 34.6849 57.3246 34.6849C57.0002 34.6849 56.7373 35.3503 56.7373 36.1711C56.7373 36.9919 57.0002 37.6572 57.3246 37.6572Z" fill="#F47B20"/>
<path d="M50.6071 60.5427C50.6071 60.5427 53.178 53.3037 51.9435 51.3022C50.709 49.3007 47.2753 47.4011 46.6101 45.5913C45.9449 43.7815 47.0835 39.401 45.6573 38.9216C44.2311 38.4422 43.1824 42.5171 44.2311 45.7771C44.2311 45.7771 42.6071 43.7815 42.6071 41.8759C42.6071 39.9703 43.8475 37.5912 42.5112 37.0159C41.1749 36.4407 39.0835 40.8272 39.5629 44.3508C40.0423 47.8745 44.5127 52.8243 44.2311 53.7771C43.9494 54.73 19.4698 78.4725 17.2645 82.3617C15.2151 85.9572 16.4915 94.0651 23.5387 93.2082C30.586 92.3513 45.8491 72.8275 50.6071 60.5427Z" fill="white"/>
<path d="M22.496 93.5438C21.4913 93.58 20.4944 93.355 19.6027 92.8907C18.7109 92.4265 17.9549 91.7389 17.4083 90.8951C16.621 89.6 16.1716 88.1278 16.1015 86.6138C16.0313 85.0997 16.3426 83.5923 17.0068 82.2299C18.3851 79.8329 27.8593 70.2448 35.4699 62.5203C39.7246 58.2057 43.7456 54.1308 43.9733 53.6813C44.0392 53.4176 43.2003 52.1173 42.5231 51.0686C41.2107 49.0431 39.5748 46.5142 39.2931 44.3869C38.9036 41.5164 40.186 37.9928 41.5044 36.992C41.6501 36.8534 41.8319 36.7585 42.029 36.7182C42.2261 36.678 42.4305 36.6939 42.619 36.7643C43.7036 37.2317 43.428 38.5621 43.1583 39.9044C43.0019 40.551 42.9096 41.2113 42.8827 41.876C42.9306 42.7482 43.1853 43.5965 43.6257 44.3509C43.3141 42.0917 43.8115 39.7966 44.6385 38.9576C44.7718 38.8037 44.9472 38.6921 45.1432 38.6368C45.3391 38.5814 45.547 38.5846 45.7411 38.646C46.7718 38.9876 46.7239 40.6835 46.6759 42.4692C46.5789 43.4718 46.6436 44.4835 46.8677 45.4655C47.1973 46.3644 48.3539 47.3712 49.4745 48.3419C50.5019 49.1391 51.4117 50.0772 52.1771 51.1285C53.4655 53.2139 50.9786 60.3031 50.8648 60.6027C48.5696 66.5174 43.6737 74.4455 38.1306 81.295C32.1919 88.612 26.8765 93.0405 23.5506 93.442C23.2016 93.4986 22.8493 93.5326 22.496 93.5438ZM42.2714 37.2437C42.1123 37.2569 41.9614 37.3198 41.84 37.4235C40.7673 38.2385 39.4429 41.4924 39.8384 44.3149C40.1081 46.3165 41.774 48.8933 42.9905 50.7749C44.1111 52.5068 44.6445 53.3637 44.4947 53.8551C44.3448 54.3465 42.0317 56.6536 35.8654 62.9039C28.6743 70.1788 18.8285 80.1505 17.4862 82.4995C16.8701 83.7742 16.5829 85.1829 16.651 86.5971C16.719 88.0112 17.1401 89.3858 17.8757 90.5955C18.7266 91.8719 20.3926 93.3161 23.4967 92.9386C30.4421 92.0936 45.6692 72.5639 50.3614 60.4469C51.0685 58.4634 52.6805 52.9922 51.7217 51.4581C50.9841 50.4554 50.1108 49.5599 49.1269 48.7974C47.9284 47.7367 46.7299 46.73 46.3643 45.6932C46.1129 44.6443 46.036 43.5611 46.1366 42.4872C46.1786 41.043 46.2265 39.407 45.5793 39.1973C45.5134 39.1973 45.3096 39.1014 45.04 39.3771C44.1531 40.252 43.7156 43.2722 44.5006 45.7052C44.5185 45.7657 44.515 45.8304 44.4909 45.8887C44.4668 45.9469 44.4234 45.9951 44.368 46.0253C44.3126 46.0554 44.2486 46.0657 44.1866 46.0543C44.1246 46.043 44.0683 46.0107 44.0272 45.9629C43.9613 45.879 42.3493 43.8655 42.3493 41.888C42.3752 41.1869 42.4716 40.4903 42.637 39.8085C42.9186 38.4183 43.0445 37.5493 42.4212 37.2797C42.3722 37.2574 42.3192 37.2451 42.2654 37.2437H42.2714Z" fill="#F47B20"/>
<path d="M56.3358 60.1175C56.3358 60.1175 53.765 52.8785 55.0294 50.865C56.162 49.0672 58.1815 47.9885 59.5598 46.3765C61.016 44.6686 60.8122 41.6963 61.6392 39.587C61.807 39.1555 62.1725 38.6401 62.61 38.8019C62.7919 38.8911 62.9362 39.0419 63.0175 39.2274C63.6609 40.5304 64.0899 41.9286 64.2879 43.3683C64.5648 44.6044 64.7174 45.8651 64.7434 47.1316C64.7254 48.2739 64.4979 49.4033 64.0722 50.4635C63.8085 51.1346 62.5201 52.5968 62.7418 53.3399C63.0295 54.2927 64.6475 59.1527 67.3142 62.4845C69.9809 65.8164 83.608 78.8982 85.5196 87.1919C86.5323 91.5604 85.8731 96.8159 78.8259 95.959C71.7786 95.102 61.0999 72.4022 56.3358 60.1175Z" fill="white"/>
<path d="M80.2464 96.3365C79.7517 96.3348 79.2575 96.3048 78.7662 96.2466C71.5272 95.3657 60.7885 72.2764 56.0844 60.2134C55.9765 59.9137 53.4836 52.8305 54.778 50.7391C55.5024 49.6965 56.3885 48.7761 57.4027 48.0125C58.0953 47.4685 58.7407 46.8671 59.3323 46.2147C60.1773 45.226 60.447 43.7158 60.6986 42.2596C60.8318 41.3236 61.0545 40.4025 61.3638 39.5091C61.5915 38.9098 62.0709 38.3106 62.6882 38.5622C62.932 38.6741 63.1276 38.8697 63.2395 39.1136C63.8978 40.4315 64.3351 41.8486 64.5339 43.3083C64.8208 44.5632 64.9755 45.8446 64.9953 47.1316C64.9805 48.3065 64.7489 49.4685 64.3122 50.5593C64.1605 50.8744 63.9841 51.1769 63.7848 51.4642C63.4193 52.0275 62.8739 52.8785 62.9878 53.262C63.0537 53.4837 64.6477 58.7392 67.5062 62.3108C68.0695 63.0119 69.1182 64.1445 70.4485 65.5827C75.6081 71.1738 84.2314 80.5222 85.7715 87.126C86.209 89.0196 86.6524 92.5193 84.7408 94.6466C83.7281 95.7732 82.2239 96.3365 80.2464 96.3365ZM56.5937 60.0216C61.987 73.9363 72.3602 94.9163 78.8321 95.7013C81.361 96.0069 83.2067 95.5335 84.3273 94.2871C86.0771 92.3455 85.6457 89.0556 85.2322 87.2638C83.74 80.8278 74.8051 71.1498 70.0111 65.9722C68.6747 64.522 67.6141 63.3774 67.0508 62.6643C64.1264 59.0089 62.4964 53.6755 62.4305 53.4298C62.2447 52.8305 62.802 51.9436 63.2934 51.1826C63.4743 50.9281 63.6346 50.6595 63.7728 50.3796C64.1833 49.3471 64.4026 48.2486 64.42 47.1376C64.3931 45.8893 64.2425 44.6468 63.9706 43.4282C63.7801 42.0202 63.3632 40.6522 62.7361 39.3772C62.6582 39.2454 62.5683 39.1076 62.4665 39.0716C62.2268 38.9817 61.9571 39.4072 61.8672 39.7008C61.5709 40.5613 61.3582 41.4483 61.232 42.3495C60.9623 43.8776 60.6867 45.4597 59.7398 46.5443C59.1301 47.2203 58.4646 47.8437 57.7503 48.408C56.7771 49.1275 55.9288 50.0021 55.2394 50.9968C54.2806 52.5669 55.8926 58.056 56.5937 60.0216Z" fill="#F47B20"/>
<path d="M46.6938 104.055C46.6938 104.055 20.5363 79.3894 9.48 84.2793C-1.57628 89.1692 -1.36054 103.204 4.59007 111.282C10.5407 119.36 32.6592 125.952 50.9485 124.256C69.2378 122.56 94.5324 115.746 99.4284 109.37C104.324 102.994 100.699 92.3573 91.9856 89.5947C83.2724 86.8321 60.9381 104.69 46.6938 104.055Z" fill="#F47B20"/>
<path d="M45.0879 124.777C28.5125 124.777 9.88756 118.916 4.3804 111.438C0.742913 106.506 -0.629387 99.6562 0.874746 93.9932C1.42465 91.7883 2.4789 89.7411 3.95448 88.0128C5.43007 86.2845 7.2867 84.9224 9.37819 84.0336C20.2847 79.2396 44.974 102.083 46.8018 103.809C53.9928 104.091 63.4191 99.5723 71.7548 95.5873C79.9466 91.6741 87.677 87.9647 92.0636 89.361C94.2276 90.0582 96.1923 91.2655 97.7921 92.8809C99.3919 94.4964 100.58 96.4728 101.256 98.6435C102.503 102.605 101.909 106.578 99.6382 109.55C94.7722 115.89 69.4836 122.811 50.9726 124.531C49.037 124.693 47.0894 124.777 45.0879 124.777ZM12.8119 83.9018C11.7073 83.8748 10.6091 84.0789 9.58793 84.501C7.57281 85.3569 5.78339 86.6681 4.36003 88.3316C2.93666 89.9952 1.91806 91.9659 1.38412 94.0891C-0.0780675 99.6083 1.26427 106.284 4.80587 111.09C10.8823 119.342 33.2945 125.592 50.9186 123.956C69.3278 122.242 94.4306 115.411 99.2187 109.172C101.388 106.344 101.945 102.545 100.753 98.7513C100.103 96.6602 98.9598 94.7561 97.4192 93.1999C95.8787 91.6438 93.9863 90.4812 91.9018 89.8104C87.707 88.4861 80.0784 92.1415 71.9825 96.0127C63.551 100.04 54.0048 104.606 46.6819 104.282C46.6193 104.279 46.56 104.253 46.5141 104.211C46.2744 104.019 24.7851 83.9018 12.8119 83.9018Z" fill="#F47B20"/>
<path d="M30.4963 121.403L47.4133 129.565L54.9879 110.431C54.9879 110.431 30.748 93.412 24.7914 98.3139C18.8348 103.216 28.5787 119.917 30.4963 121.403Z" fill="#F47B20"/>
<path d="M47.4131 129.829C47.3756 129.838 47.3366 129.838 47.2992 129.829L30.3822 121.667L30.3343 121.637C28.8062 120.439 22.7177 110.359 22.6278 103.39C22.5919 100.993 23.269 99.2488 24.6233 98.1342C30.6639 93.1724 54.1427 109.52 55.1375 110.239C55.1853 110.274 55.2205 110.323 55.2378 110.379C55.2552 110.435 55.2536 110.496 55.2334 110.551L47.6588 129.667C47.6379 129.715 47.6035 129.756 47.5599 129.784C47.5163 129.813 47.4653 129.829 47.4131 129.829ZM30.6339 121.182L47.2692 129.206L54.6641 110.533C52.4888 109.029 30.4361 94.0173 24.9589 98.5477C23.7604 99.5545 23.1252 101.184 23.1612 103.39C23.269 110.005 29.1597 119.983 30.6339 121.182Z" fill="#F47B20"/>
<path d="M54.1367 127.869C54.1367 127.869 65.6964 131.705 76.459 130.099C88.582 128.301 92.1955 122.872 86.0471 117.982C79.8987 113.092 54.7899 117.239 54.7899 117.239L54.1367 127.869Z" fill="#FDDAA5"/>
<path d="M70.9161 130.764C65.1971 130.681 59.5183 129.794 54.047 128.127C53.9903 128.108 53.9414 128.07 53.9079 128.02C53.8744 127.971 53.858 127.911 53.8612 127.851L54.5024 117.221C54.5058 117.159 54.5303 117.1 54.5717 117.054C54.6132 117.009 54.6691 116.978 54.7302 116.969C55.7549 116.795 80.0128 112.858 86.2031 117.766C88.6421 119.701 89.6548 121.775 89.1275 123.758C88.2885 126.887 83.6862 129.302 76.5011 130.35C74.6521 130.625 72.7854 130.763 70.9161 130.764ZM54.4305 127.672C56.0126 128.163 66.6194 131.267 76.4352 129.829C83.3926 128.792 87.8211 126.527 88.6061 123.615C89.0795 121.859 88.1327 119.989 85.8735 118.221C80.1686 113.697 57.5107 117.107 55.0478 117.496L54.4305 127.672Z" fill="#F47B20"/>
<path d="M48.4019 127.06C48.4019 127.06 58.3855 130.206 60.3031 124.465C62.2207 118.725 58.0679 118.191 52.8603 117.023L48.4019 127.06Z" fill="white"/>
<path d="M54.0108 128.169H53.6273C51.8304 128.099 50.049 127.807 48.3239 127.3C48.2866 127.289 48.2522 127.27 48.2232 127.244C48.1942 127.218 48.1713 127.186 48.1561 127.15C48.1382 127.116 48.1289 127.078 48.1289 127.039C48.1289 127.001 48.1382 126.963 48.1561 126.928L52.6325 116.915C52.6577 116.856 52.7027 116.808 52.7598 116.78C52.8168 116.751 52.8822 116.744 52.9441 116.759L53.843 116.957C56.9112 117.634 59.5659 118.215 60.6086 120.049C61.2079 121.152 61.2079 122.626 60.6086 124.549C59.7637 126.97 57.5045 128.169 54.0108 128.169ZM48.7793 126.862C50.4273 127.312 58.4153 129.259 60.0393 124.358C60.6386 122.56 60.6386 121.253 60.1112 120.295C59.1884 118.677 56.6415 118.113 53.6992 117.466L53.016 117.316L48.7793 126.862Z" fill="#F47B20"/>
<path d="M28.0631 120.331C28.0126 120.328 27.9634 120.314 27.9193 120.289C27.7935 120.205 14.9334 112.283 7.5446 108.981C7.51171 108.967 7.482 108.946 7.45721 108.92C7.43241 108.894 7.41303 108.863 7.40019 108.83C7.38736 108.796 7.38133 108.761 7.38246 108.725C7.38359 108.689 7.39185 108.654 7.40677 108.621C7.42105 108.588 7.44175 108.559 7.46765 108.534C7.49355 108.509 7.52413 108.49 7.55761 108.477C7.59109 108.464 7.62679 108.458 7.66263 108.459C7.69847 108.46 7.73372 108.469 7.76632 108.483C15.1971 111.797 28.0811 119.743 28.2129 119.821C28.2441 119.84 28.2713 119.864 28.2928 119.893C28.3143 119.923 28.3297 119.956 28.3381 119.991C28.3464 120.026 28.3477 120.063 28.3416 120.099C28.3356 120.134 28.3224 120.168 28.3028 120.199C28.2774 120.239 28.242 120.273 28.2001 120.296C28.1581 120.319 28.111 120.331 28.0631 120.331Z" fill="white"/>
<path d="M21.2855 115.746C21.2855 115.746 15.8922 114.686 14.4779 118.743C13.0637 122.8 14.4779 130.728 18.0735 132.136C21.669 133.544 27.2181 127.779 29.3455 127.246C31.4728 126.713 36.9381 124.543 36.9381 124.543L21.2855 115.746Z" fill="#FDDAA5"/>
<path d="M19.3201 132.609C18.868 132.613 18.4192 132.534 17.9957 132.376C14.1305 130.896 12.8181 122.728 14.2204 118.635C15.6646 114.44 21.2796 115.471 21.3336 115.477L21.4175 115.507L37.088 124.286C37.1349 124.309 37.1734 124.346 37.1981 124.393C37.2229 124.439 37.2325 124.491 37.2258 124.543C37.2228 124.594 37.2054 124.643 37.1757 124.685C37.146 124.726 37.1052 124.758 37.058 124.777C36.8303 124.867 31.5509 126.964 29.4295 127.498C28.7763 127.66 27.7216 128.391 26.4932 129.242C24.2879 130.77 21.6272 132.609 19.3201 132.609ZM19.7635 115.902C18.1275 115.902 15.5687 116.328 14.7358 118.815C14.0826 120.738 14.0586 123.698 14.6818 126.359C15.359 129.266 16.6414 131.273 18.1935 131.866C20.4826 132.741 23.6407 130.548 26.1815 128.786C27.452 127.911 28.5486 127.15 29.2977 126.988C30.9936 126.563 34.8887 125.065 36.315 124.501L21.1897 116.034C20.7185 115.953 20.2416 115.909 19.7635 115.902Z" fill="#F47B20"/>
<path d="M52.8606 117.298H52.7707C52.7366 117.287 52.7052 117.269 52.6782 117.245C52.6512 117.221 52.6292 117.192 52.6136 117.16C52.598 117.128 52.589 117.092 52.5871 117.056C52.5853 117.021 52.5907 116.985 52.6029 116.951L54.3288 111.929C53.0823 110.647 42.2238 99.4945 34.8529 94.0832C34.7949 94.0403 34.7563 93.9761 34.7457 93.9047C34.735 93.8334 34.7531 93.7607 34.796 93.7027C34.8389 93.6447 34.9031 93.6061 34.9745 93.5954C35.0459 93.5847 35.1185 93.6028 35.1765 93.6457C43.0028 99.3866 54.7183 111.546 54.8381 111.671C54.8732 111.707 54.8975 111.752 54.9081 111.801C54.9187 111.849 54.9152 111.9 54.8981 111.947L53.1003 117.131C53.0807 117.179 53.0477 117.22 53.0052 117.25C52.9627 117.28 52.9125 117.296 52.8606 117.298Z" fill="white"/>
<path d="M53.3396 45.6934C51.9631 45.6877 50.612 45.322 49.4205 44.6327C49.3907 44.6145 49.3649 44.5903 49.3447 44.5618C49.3245 44.5332 49.3103 44.5009 49.303 44.4667C49.2957 44.4325 49.2955 44.3972 49.3023 44.3629C49.3091 44.3286 49.3228 44.296 49.3426 44.2672C49.3614 44.238 49.3858 44.2128 49.4144 44.1931C49.443 44.1734 49.4752 44.1595 49.5092 44.1523C49.5431 44.145 49.5782 44.1446 49.6123 44.1509C49.6465 44.1573 49.679 44.1703 49.7081 44.1893C50.7621 44.8009 51.9558 45.1309 53.1743 45.1477C54.3927 45.1645 55.595 44.8675 56.6655 44.2852C56.6958 44.2682 56.7291 44.2575 56.7636 44.2534C56.798 44.2494 56.833 44.2522 56.8664 44.2616C56.8997 44.2711 56.9309 44.287 56.9582 44.3086C56.9854 44.3301 57.0081 44.3567 57.025 44.387C57.042 44.4173 57.0527 44.4507 57.0568 44.4851C57.0608 44.5196 57.058 44.5545 57.0486 44.5879C57.0391 44.6213 57.0232 44.6525 57.0016 44.6797C56.9801 44.7069 56.9535 44.7297 56.9232 44.7466C55.8303 45.3661 54.5958 45.6922 53.3396 45.6934Z" fill="#F47B20"/>
<path d="M82.0501 7.87435C80.7949 8.40447 79.6955 9.24598 78.8561 10.3193C74.9369 15.3111 77.4658 20.9681 80.576 25.6603C83.9198 30.706 91.7701 30.2446 97.1214 28.255C99.6383 31.557 104.75 32.9113 109.196 31.8506C111.234 31.3385 113.137 30.3901 114.773 29.0709C116.408 27.7518 117.738 26.0933 118.671 24.2101C119.701 26.0078 122.542 26.685 124.813 26.0917C132.741 24.0303 133.916 14.0347 127.941 9.70208C126.299 8.50357 123.585 8.17398 122.056 9.47436C121.673 7.29307 119.588 4.90803 117.125 4.08106C116.411 3.84735 109.874 3.62562 110.431 4.40465C108.573 1.80388 104.936 0.32372 101.346 0.263794C97.8038 0.286243 94.3426 1.32629 91.3745 3.26008C89.7088 4.22912 88.2767 5.55281 87.1798 7.13726C85.4355 6.96844 83.6762 7.22123 82.0501 7.87435Z" fill="white"/>
<path d="M106.14 32.4977C102.515 32.4977 98.9973 31.0595 97.0197 28.6145C91.2069 30.7059 83.5664 30.7239 80.3244 25.8279C77.5739 21.6691 74.3978 15.5088 78.6225 10.1154C79.4898 9.00101 80.6288 8.12814 81.9304 7.58059C83.5514 6.93081 85.3021 6.67015 87.0421 6.81954C88.1579 5.26602 89.5868 3.9636 91.2369 2.99628C94.2628 1.05802 97.7769 0.0189532 101.37 0C105.104 0.0659182 108.531 1.55208 110.425 3.91314C110.749 3.75734 111.558 3.58954 113.709 3.59554C114.89 3.57275 116.071 3.65094 117.239 3.82925C118.417 4.23856 119.485 4.91601 120.358 5.80825C121.23 6.70048 121.884 7.78312 122.266 8.97087C123.986 7.88022 126.569 8.32966 128.139 9.46825C129.601 10.553 130.726 12.0285 131.385 13.7249C132.045 15.4212 132.211 17.2693 131.866 19.0563C131.544 20.8244 130.713 22.4604 129.477 23.7649C128.24 25.0694 126.651 25.9861 124.903 26.4032C122.8 26.9486 120.043 26.4811 118.725 24.8152C117.75 26.6275 116.406 28.2158 114.781 29.478C113.155 30.7402 111.284 31.6483 109.286 32.1441C108.256 32.3879 107.199 32.5066 106.14 32.4977ZM97.1216 27.9553C97.168 27.9558 97.2137 27.9668 97.2553 27.9876C97.2968 28.0083 97.3331 28.0383 97.3613 28.0752C99.7224 31.1673 104.666 32.6295 109.125 31.5448C111.12 31.0485 112.984 30.1235 114.586 28.834C116.188 27.5445 117.49 25.9216 118.401 24.0781C118.425 24.0286 118.463 23.9867 118.509 23.9571C118.556 23.9275 118.61 23.9113 118.665 23.9103C118.719 23.9091 118.773 23.9224 118.82 23.9487C118.867 23.975 118.907 24.0135 118.935 24.0601C119.929 25.81 122.722 26.3253 124.735 25.804C126.373 25.4158 127.863 24.5582 129.021 23.3363C130.179 22.1144 130.955 20.5811 131.255 18.9245C131.581 17.2498 131.426 15.5171 130.809 13.9265C130.192 12.3359 129.138 10.9524 127.768 9.93567C126.257 8.83903 123.681 8.47948 122.254 9.69597C122.214 9.73036 122.164 9.75343 122.112 9.7629C122.059 9.77236 122.005 9.76788 121.955 9.7499C121.906 9.73194 121.862 9.70148 121.829 9.66154C121.795 9.6216 121.772 9.57356 121.763 9.52218C121.385 7.38284 119.306 5.12364 117.035 4.38656C116.334 4.15285 111.54 4.05696 110.731 4.38656C110.735 4.45209 110.718 4.51735 110.682 4.57228C110.646 4.62722 110.593 4.66879 110.531 4.69058C110.469 4.71238 110.402 4.7132 110.339 4.69291C110.277 4.67263 110.223 4.63236 110.185 4.57832C108.489 2.18129 105.02 0.623228 101.34 0.563302C97.8573 0.597334 94.4563 1.62429 91.5365 3.52363C89.9142 4.47269 88.5192 5.76537 87.4496 7.31093C87.4191 7.35541 87.3778 7.3914 87.3296 7.41552C87.2814 7.43963 87.2278 7.45107 87.1739 7.44875C85.4719 7.27308 83.7526 7.5137 82.1642 8.14989C80.9553 8.65688 79.8982 9.46823 79.096 10.505C75.1529 15.5267 77.9514 21.1537 80.8278 25.4864C83.926 30.1666 91.3927 30.0527 97.0077 27.9613C97.0451 27.9529 97.0836 27.9509 97.1216 27.9553Z" fill="#D1D3D4"/>
<path d="M93.4782 34.2175C94.1787 33.9757 94.9282 33.9119 95.6595 34.0317C96.0977 34.0448 96.528 34.1522 96.9209 34.3467C97.3139 34.5411 97.6604 34.8179 97.9367 35.1583C98.4041 35.8954 98.0086 37.1479 97.1337 37.1598C98.3322 36.5606 99.9681 37.4595 100.31 38.7778C101.023 41.5284 97.4752 43.2423 95.1621 43.0685C94.0055 42.9846 92.8849 42.4333 91.7343 42.5951C89.631 42.8887 88.1388 43.1105 86.5568 41.2228C85.4182 39.8565 85.8137 37.9628 86.7485 36.5965C87.036 36.1359 87.4182 35.7416 87.8697 35.4399C88.3212 35.1382 88.8317 34.936 89.3673 34.8467C89.7029 34.7988 92.2737 35.1284 92.0879 35.7456C92.1883 35.402 92.3656 35.0858 92.6065 34.821C92.8474 34.5562 93.1456 34.3498 93.4782 34.2175Z" fill="white"/>
<path d="M95.4736 43.3801C95.3618 43.3862 95.2498 43.3862 95.138 43.3801C94.6626 43.3313 94.1917 43.2451 93.7298 43.1224C93.0981 42.9271 92.4355 42.8519 91.7762 42.9007C89.6488 43.2003 87.9949 43.4341 86.3289 41.4266C85.0166 39.8505 85.6038 37.7591 86.5027 36.4407C86.8119 35.9441 87.2237 35.5192 87.7105 35.1947C88.1973 34.8702 88.7478 34.6535 89.3252 34.5591C90.2563 34.5661 91.1754 34.7704 92.0219 35.1583C92.3169 34.6154 92.7914 34.1917 93.3642 33.9598C94.1121 33.6981 94.9141 33.6301 95.6953 33.7621C96.8938 33.9119 97.7508 34.3613 98.1882 35.0205C98.338 35.2759 98.4224 35.5643 98.4339 35.8602C98.4454 36.156 98.3837 36.4501 98.2541 36.7164C98.5298 36.7481 98.7987 36.8229 99.0512 36.9381C99.4247 37.1063 99.7569 37.3545 100.024 37.6652C100.291 37.9758 100.487 38.3413 100.597 38.7359C100.724 39.2122 100.731 39.7125 100.618 40.1923C100.505 40.6721 100.276 41.1166 99.95 41.4865C99.3696 42.087 98.674 42.5642 97.9048 42.8896C97.1357 43.215 96.3088 43.3818 95.4736 43.3801ZM92.1837 42.2655C92.7595 42.2849 93.3309 42.3734 93.8856 42.5292C94.3158 42.6446 94.7547 42.7247 95.1979 42.7689C95.9966 42.8152 96.7958 42.6869 97.5399 42.393C98.284 42.0991 98.9551 41.6466 99.5066 41.067C99.7745 40.772 99.9633 40.4139 100.056 40.0262C100.148 39.6385 100.14 39.2338 100.034 38.8497C99.9454 38.5457 99.7925 38.2642 99.5858 38.0244C99.379 37.7845 99.1231 37.5919 98.8354 37.4595C98.5036 37.3014 98.1336 37.2412 97.7688 37.2857C97.5898 37.3998 97.3818 37.4601 97.1695 37.4595C97.1015 37.4624 97.0347 37.4411 96.981 37.3994C96.9272 37.3577 96.89 37.2983 96.8758 37.2318C96.8617 37.165 96.8698 37.0954 96.8991 37.0336C96.9283 36.9719 96.977 36.9215 97.0377 36.8902C97.1934 36.813 97.3586 36.7565 97.5291 36.7224C97.6102 36.6517 97.6773 36.5663 97.7268 36.4707C97.8233 36.2943 97.8739 36.0965 97.8739 35.8954C97.8739 35.6943 97.8233 35.4965 97.7268 35.3201C97.3852 34.7868 96.6961 34.4572 95.6654 34.3314C94.9834 34.2121 94.2824 34.2678 93.6279 34.4932C93.3413 34.6143 93.0851 34.7976 92.8778 35.0297C92.6706 35.2618 92.5174 35.537 92.4294 35.8355C92.3999 35.9028 92.3468 35.9569 92.2801 35.9876C92.2133 36.0183 92.1376 36.0234 92.0674 36.002C91.9971 35.9806 91.9372 35.934 91.899 35.8713C91.8607 35.8086 91.8469 35.734 91.8601 35.6617C91.6803 35.41 89.8106 35.1044 89.4631 35.1404C88.9715 35.2266 88.5038 35.4158 88.0907 35.6957C87.6775 35.9756 87.3283 36.3398 87.066 36.7643C86.287 37.9089 85.7597 39.7127 86.8563 41.031C88.3125 42.7809 89.6728 42.5891 91.7282 42.3015C91.8792 42.2801 92.0313 42.2681 92.1837 42.2655Z" fill="#D1D3D4"/>
<path d="M82.1103 43.2303C81.5421 42.985 80.9059 42.9468 80.3125 43.1225C80.0218 43.2137 79.7655 43.3907 79.5773 43.6303C79.3891 43.8699 79.2777 44.1608 79.2578 44.4648C79.2585 44.6159 79.291 44.7652 79.3534 44.9028C79.4157 45.0404 79.5064 45.1634 79.6196 45.2635C79.7327 45.3636 79.8658 45.4388 80.01 45.4839C80.1542 45.529 80.3063 45.5432 80.4563 45.5255C79.0541 46.4424 82.0623 48.8334 83.3927 46.2806C83.544 46.0013 83.6306 45.6917 83.6462 45.3745C83.6619 45.0573 83.6061 44.7406 83.483 44.4479C83.3599 44.1551 83.1727 43.8938 82.9351 43.683C82.6975 43.4723 82.4156 43.3176 82.1103 43.2303Z" fill="white"/>
<path d="M81.7686 47.7248C81.6828 47.7307 81.5967 47.7307 81.5109 47.7248C81.1324 47.6846 80.7732 47.5376 80.475 47.301C80.1769 47.0644 79.9521 46.7479 79.827 46.3884C79.7816 46.1885 79.7983 45.9794 79.875 45.7892C79.7445 45.7393 79.623 45.6685 79.5154 45.5794C79.3511 45.4496 79.2175 45.285 79.1243 45.0975C79.0311 44.91 78.9804 44.7042 78.9761 44.4948C78.9948 44.128 79.1255 43.7757 79.3505 43.4853C79.5754 43.195 79.884 42.9805 80.2345 42.8708C80.8884 42.6772 81.589 42.7153 82.218 42.9787C82.5683 43.1023 82.8891 43.2971 83.1603 43.5508C83.4316 43.8045 83.6474 44.1117 83.7941 44.4528C83.9121 44.7722 83.9593 45.1134 83.9324 45.4528C83.9055 45.7921 83.8051 46.1216 83.6383 46.4184C83.4804 46.7895 83.2214 47.1088 82.8908 47.3398C82.5602 47.5707 82.1714 47.7042 81.7686 47.7248ZM80.4622 45.2259C80.5209 45.2249 80.5785 45.2415 80.6276 45.2735C80.6767 45.3056 80.7151 45.3516 80.7379 45.4057C80.7645 45.4703 80.7678 45.5422 80.747 45.609C80.7262 45.6757 80.6827 45.7331 80.624 45.7712C80.5417 45.813 80.4758 45.8811 80.4367 45.9648C80.3976 46.0484 80.3876 46.1427 80.4083 46.2326C80.5077 46.4755 80.6722 46.6863 80.8836 46.8417C81.0951 46.9971 81.3453 47.0912 81.6068 47.1135C81.9339 47.1393 82.2605 47.0587 82.538 46.8838C82.8155 46.7088 83.0291 46.4489 83.1469 46.1427C83.2747 45.9213 83.3522 45.6744 83.3739 45.4197C83.3957 45.1649 83.3611 44.9085 83.2727 44.6686C83.1592 44.3975 82.9894 44.1537 82.7745 43.9533C82.5596 43.7529 82.3046 43.6004 82.0263 43.506C81.5249 43.2973 80.9683 43.2614 80.4443 43.4041C80.2117 43.4739 80.0057 43.6127 79.8538 43.8021C79.7018 43.9915 79.611 44.2226 79.5933 44.4648C79.5997 44.5817 79.6314 44.6959 79.6863 44.7993C79.7411 44.9028 79.8178 44.9931 79.9109 45.0641C79.9779 45.1256 80.0581 45.1711 80.1453 45.1971C80.2325 45.223 80.3245 45.2288 80.4143 45.2139L80.4622 45.2259Z" fill="#D1D3D4"/>
<path d="M115.716 83.4643C115.814 82.1036 115.525 80.7429 114.883 79.5392C114.356 78.6643 113.553 77.9751 113.121 77.0523C112.378 75.4583 112.9 73.5826 112.726 71.8328C112.568 70.3657 111.922 68.9942 110.892 67.9376C109.975 67.0147 108.795 66.3795 107.896 65.4147C106.464 63.8327 106.05 61.6035 105.235 59.6319C104.079 56.8383 102.075 54.4781 99.5063 52.8843C101.07 56.0304 97.5108 60.0274 99.1228 63.1495C99.6322 64.1383 100.609 64.8574 100.987 65.9061C101.891 68.435 98.8711 71.1796 99.8419 73.6964C100.321 74.9489 101.64 75.674 102.287 76.8665C103.132 78.4665 102.467 80.4081 102.539 82.2179C102.634 84.7108 104.151 86.946 105.954 88.6719C107.075 89.7505 108.351 90.6794 109.55 91.6681C111 92.8666 111.611 94.0652 112.894 92.1895C114.662 89.6171 115.643 86.5852 115.716 83.4643Z" fill="#D1D3D4"/>
<path d="M117.353 84.8907C116.885 82.9611 116.55 80.8637 117.353 79.0419C118.24 76.9805 120.457 75.5243 120.72 73.2951C120.888 71.8389 120.121 70.3587 120.439 68.9145C120.756 67.4703 121.907 66.4875 122.878 65.4268C125.114 62.9687 126.444 59.8208 126.647 56.5039C128.049 58.3556 129.47 60.2493 130.243 62.4425C131.016 64.6358 131.022 67.2366 129.721 69.1362C129.347 69.5846 129.04 70.0852 128.81 70.6224C128.373 72.0426 129.589 73.373 130.219 74.7213C130.591 75.4916 130.746 76.3488 130.668 77.2008C130.59 78.0529 130.281 78.8675 129.775 79.5573C128.499 81.1513 126.036 81.7685 125.413 83.7101C125.254 84.4322 125.18 85.1702 125.191 85.9094C125.058 87.1904 124.544 88.4022 123.716 89.389C122.889 90.3757 121.785 91.0923 120.547 91.4465C119.037 91.8121 119.066 91.2128 118.797 89.9484C118.401 88.2405 117.748 86.5926 117.353 84.8907Z" fill="#D1D3D4"/>
<path d="M112.558 71.006C111.486 67.2966 111.06 63.4194 109.928 59.728C108.963 56.8498 107.789 54.0458 106.416 51.3384L111.018 53.28C112.492 53.8792 114.092 54.6343 114.788 56.0785C115.986 58.5894 113.823 61.8014 115.093 64.2823C115.543 65.1512 116.352 65.7745 116.891 66.5715C118.245 68.4771 118.042 71.0899 117.293 73.3011C116.975 74.2539 115.585 79.1738 114.338 77.8075C113.835 77.2622 113.793 75.2187 113.583 74.4757C113.266 73.2951 112.87 72.1625 112.558 71.006Z" fill="#D1D3D4"/>
<path d="M115.045 120.277C114.134 114.218 111.258 92.8487 111.228 92.633L112.019 92.5311C112.019 92.7469 114.919 114.104 115.836 120.163L115.045 120.277Z" fill="#D1D3D4"/>
<path d="M116.154 126.006H115.357C115.411 118.814 118.413 91.2966 120.151 89.4089L120.75 89.9423C119.558 91.1887 116.202 116.148 116.154 126.006Z" fill="#D1D3D4"/>
<path d="M117.688 124.633L116.891 124.597C117.58 109.077 114.29 76.4831 114.254 76.1595L115.045 76.0756C115.081 76.4052 118.377 109.053 117.688 124.633Z" fill="#D1D3D4"/>
<path d="M107.165 105.667H124.292L123.093 123.003C122.995 124.449 122.351 125.803 121.291 126.792C120.232 127.781 118.837 128.331 117.388 128.331H114.074C112.625 128.331 111.229 127.781 110.169 126.793C109.109 125.804 108.464 124.45 108.364 123.003L107.165 105.667Z" fill="white"/>
<path d="M117.388 128.63H114.074C112.554 128.621 111.093 128.039 109.982 127.001C108.872 125.962 108.193 124.544 108.082 123.027L106.883 105.691C106.88 105.607 106.91 105.525 106.967 105.463C107.023 105.418 107.093 105.395 107.165 105.397H124.291C124.333 105.397 124.374 105.406 124.412 105.422C124.45 105.439 124.484 105.463 124.512 105.493C124.54 105.524 124.562 105.56 124.576 105.599C124.589 105.638 124.594 105.68 124.591 105.721L123.393 123.057C123.275 124.571 122.592 125.985 121.479 127.017C120.367 128.05 118.906 128.626 117.388 128.63ZM107.488 105.997L108.687 123.015C108.786 124.381 109.397 125.658 110.396 126.593C111.396 127.529 112.711 128.053 114.08 128.061H117.394C118.763 128.054 120.079 127.53 121.079 126.595C122.079 125.66 122.689 124.381 122.787 123.015L123.986 105.997H107.488Z" fill="#D1D3D4"/>
<path d="M101.549 20.2388V19.6957C101.549 18.4912 102.446 17.7828 103.604 16.9562C104.973 15.988 106.603 14.7835 106.603 12.2566C106.603 9.11569 104.477 7.08472 100.959 7.08472C97.5344 7.08472 95.0547 9.46993 95.0547 12.847H98.0539C98.0539 11.0286 99.2111 9.77694 100.888 9.77694C102.541 9.77694 103.533 10.8397 103.533 12.4456C103.533 13.8153 102.565 14.6182 101.502 15.4684C100.25 16.4367 98.9277 17.5466 98.9277 19.6957V20.2388H101.549ZM100.345 24.962C101.384 24.962 102.258 24.0882 102.258 23.0964C102.258 22.0573 101.384 21.2071 100.345 21.2071C99.282 21.2071 98.4318 22.0573 98.4318 23.0964C98.4318 24.1119 99.282 24.962 100.345 24.962Z" fill="#F47B20"/>
</svg>
