<svg width="22" height="20" viewBox="0 0 22 20" fill="none" xmlns="http://www.w3.org/2000/svg">
<path d="M2 18V4.70002C1.99994 4.49474 2.06305 4.29442 2.18077 4.12625C2.29849 3.95809 2.4651 3.83022 2.658 3.76002L12.329 0.244017C12.4045 0.216523 12.4856 0.20765 12.5653 0.218151C12.645 0.228651 12.721 0.258216 12.7869 0.304337C12.8527 0.350459 12.9065 0.411778 12.9436 0.483095C12.9807 0.554413 13 0.633625 13 0.714017V5.66702L19.316 7.77202C19.5152 7.83837 19.6885 7.96573 19.8112 8.13607C19.934 8.3064 20.0001 8.51105 20 8.72102V18H22V20H0V18H2ZM4 18H11V2.85502L4 5.40102V18ZM18 18V9.44202L13 7.77502V18H18Z" fill="#F47B20"/>
</svg>
