<svg width="24" height="25" viewBox="0 0 24 25" fill="none" xmlns="http://www.w3.org/2000/svg">
<g clip-path="url(#clip0_467_10745)">
<path d="M17 6.41992H22V8.41992H20V21.4199C20 21.6851 19.8946 21.9395 19.7071 22.127C19.5196 22.3146 19.2652 22.4199 19 22.4199H5C4.73478 22.4199 4.48043 22.3146 4.29289 22.127C4.10536 21.9395 4 21.6851 4 21.4199V8.41992H2V6.41992H7V3.41992C7 3.15471 7.10536 2.90035 7.29289 2.71282C7.48043 2.52528 7.73478 2.41992 8 2.41992H16C16.2652 2.41992 16.5196 2.52528 16.7071 2.71282C16.8946 2.90035 17 3.15471 17 3.41992V6.41992ZM18 8.41992H6V20.4199H18V8.41992ZM9 11.4199H11V17.4199H9V11.4199ZM13 11.4199H15V17.4199H13V11.4199ZM9 4.41992V6.41992H15V4.41992H9Z" fill="#F47B20"/>
</g>
<defs>
<clipPath id="clip0_467_10745">
<rect width="24" height="24" fill="white" transform="translate(0 0.419922)"/>
</clipPath>
</defs>
</svg>
