<svg width="96" height="86" viewBox="0 0 96 86" fill="none" xmlns="http://www.w3.org/2000/svg">
<path d="M90.474 49.3632L73.7412 26.7653C73.3969 26.2995 72.9479 25.9211 72.4305 25.6606C71.9131 25.4001 71.3417 25.2648 70.7624 25.2656H20.2355C19.6562 25.2648 19.0848 25.4001 18.5674 25.6606C18.05 25.9211 17.601 26.2995 17.2567 26.7653L0.523926 49.3632V76.9019C0.523926 78.4002 1.11914 79.8372 2.17862 80.8967C3.2381 81.9562 4.67507 82.5514 6.17341 82.5514H84.8347C86.3331 82.5514 87.77 81.9562 88.8295 80.8967C89.889 79.8372 90.4842 78.4002 90.4842 76.9019L90.474 49.3632Z" fill="#F9FAFB"/>
<path d="M84.8347 83.0549H6.16312C4.52857 83.0549 2.96097 82.4055 1.80517 81.2497C0.649367 80.0939 4.64542e-05 78.5263 4.64542e-05 76.8918V49.3634C-0.00143997 49.2529 0.0327802 49.1448 0.0976258 49.0553L16.8304 26.4573C17.2242 25.9279 17.7362 25.4976 18.3255 25.2007C18.9148 24.9038 19.5653 24.7485 20.2252 24.7471H70.7521C71.412 24.7485 72.0625 24.9038 72.6518 25.2007C73.2411 25.4976 73.7531 25.9279 74.1469 26.4573L90.8797 49.0553C90.9445 49.1448 90.9787 49.2529 90.9772 49.3634V76.9021C90.9745 78.5313 90.3269 80.0931 89.1758 81.2461C88.0247 82.3991 86.4639 83.0494 84.8347 83.0549ZM1.0375 49.5329V76.9021C1.0375 78.2642 1.5786 79.5705 2.54176 80.5337C3.50493 81.4969 4.81126 82.038 6.17339 82.038H84.8347C86.1969 82.038 87.5032 81.4969 88.4664 80.5337C89.4295 79.5705 89.9706 78.2642 89.9706 76.9021V49.5329L73.3406 27.0634C73.0427 26.6628 72.6554 26.3373 72.2097 26.1126C71.7639 25.8879 71.2719 25.7703 70.7727 25.7691H20.2355C19.7363 25.7703 19.2442 25.8879 18.7985 26.1126C18.3527 26.3373 17.9654 26.6628 17.6675 27.0634L1.0375 49.5329Z" fill="#D0D5DD"/>
<path d="M90.474 49.3633V76.902C90.474 78.4003 89.8788 79.8373 88.8193 80.8968C87.7598 81.9563 86.3228 82.5515 84.8245 82.5515H6.16315C4.66482 82.5515 3.22785 81.9563 2.16837 80.8968C1.10888 79.8373 0.513672 78.4003 0.513672 76.902V49.3633H24.8629L27.1535 60.6623C27.3608 61.6778 27.9127 62.5904 28.7158 63.2456C29.5189 63.9008 30.5237 64.2582 31.5601 64.2574H59.7254C60.7754 64.2565 61.7923 63.8892 62.6005 63.2189C63.4087 62.5485 63.9576 61.6171 64.1525 60.5853L66.2685 49.3325L90.474 49.3633Z" fill="#EAECF0"/>
<path d="M84.8295 83.055H6.16307C4.52852 83.055 2.96092 82.4057 1.80512 81.2499C0.649321 80.0941 0 78.5265 0 76.8919V49.3636C0 49.2273 0.0541098 49.0967 0.150426 49.0004C0.246743 48.9041 0.377377 48.85 0.513589 48.85H24.8629C24.983 48.8475 25.1002 48.8873 25.194 48.9624C25.2879 49.0375 25.3524 49.1431 25.3764 49.2608L27.6671 60.5598C27.8493 61.4612 28.3374 62.272 29.0486 62.8551C29.7599 63.4381 30.6507 63.7576 31.5703 63.7595H59.7356C60.6659 63.7586 61.5667 63.4327 62.2822 62.8382C62.9977 62.2436 63.483 61.4177 63.6543 60.5033L65.7702 49.2506C65.7932 49.1319 65.8573 49.0251 65.9512 48.949C66.0452 48.8729 66.1629 48.8324 66.2838 48.8346H90.479C90.6152 48.8346 90.7459 48.8887 90.8422 48.985C90.9385 49.0813 90.9926 49.2119 90.9926 49.3481V76.8868C90.9933 77.6966 90.8344 78.4986 90.5249 79.2469C90.2155 79.9952 89.7617 80.6752 89.1893 81.2481C88.6169 81.8209 87.9373 82.2753 87.1892 82.5854C86.4411 82.8954 85.6393 83.055 84.8295 83.055ZM1.03745 49.8771V76.9022C1.03745 78.2643 1.57855 79.5707 2.54172 80.5338C3.50488 81.497 4.81122 82.0381 6.17334 82.0381H84.8295C86.1917 82.0381 87.498 81.497 88.4612 80.5338C89.4243 79.5707 89.9654 78.2643 89.9654 76.9022V49.8771H66.705L64.6506 60.7087C64.4373 61.8613 63.8276 62.9029 62.9272 63.6533C62.0268 64.4036 60.8923 64.8155 59.7202 64.8175H31.5703C30.4139 64.8156 29.2935 64.4144 28.3988 63.6816C27.5042 62.9488 26.8901 61.9295 26.6604 60.7961L24.4417 49.8771H1.03745Z" fill="#D0D5DD"/>
<path d="M20.2821 71.3294H10.1952C10.059 71.3294 9.92838 71.2753 9.83207 71.179C9.73575 71.0827 9.68164 70.952 9.68164 70.8158C9.68164 70.6796 9.73575 70.549 9.83207 70.4527C9.92838 70.3564 10.059 70.3022 10.1952 70.3022H20.2821C20.4183 70.3022 20.549 70.3564 20.6453 70.4527C20.7416 70.549 20.7957 70.6796 20.7957 70.8158C20.7957 70.952 20.7416 71.0827 20.6453 71.179C20.549 71.2753 20.4183 71.3294 20.2821 71.3294Z" fill="#EAECF0"/>
<path d="M27.266 18.5023C27.1074 18.5015 26.9511 18.464 26.8095 18.3927C26.6678 18.3214 26.5445 18.2183 26.4494 18.0914L19.4594 8.84682C19.2953 8.62888 19.2245 8.35466 19.2625 8.08449C19.3005 7.81433 19.4444 7.57034 19.6623 7.4062C19.8802 7.24206 20.1544 7.17123 20.4246 7.20927C20.6948 7.24732 20.9388 7.39113 21.1029 7.60907L28.0877 16.8537C28.2517 17.071 28.3228 17.3445 28.2852 17.6142C28.2476 17.8838 28.1046 18.1275 27.8874 18.2917C27.7089 18.428 27.4906 18.5019 27.266 18.5023Z" fill="#D0D5DD"/>
<path d="M60.362 18.5019C60.1378 18.4997 59.92 18.4259 59.7406 18.2913C59.5235 18.1271 59.3804 17.8834 59.3428 17.6137C59.3053 17.3441 59.3763 17.0705 59.5403 16.8532L66.5303 7.60863C66.6977 7.40088 66.9394 7.26645 67.2043 7.2338C67.4691 7.20114 67.7362 7.27283 67.9492 7.43367C68.1621 7.59452 68.304 7.83191 68.345 8.09558C68.3859 8.35926 68.3227 8.62852 68.1686 8.84637L61.1838 18.091C61.0881 18.2186 60.964 18.3221 60.8214 18.3934C60.6788 18.4647 60.5215 18.5019 60.362 18.5019Z" fill="#D0D5DD"/>
<path d="M44.6209 15.4206C44.3485 15.4206 44.0872 15.3123 43.8946 15.1197C43.702 14.9271 43.5938 14.6658 43.5938 14.3934V1.63069C43.5938 1.35827 43.702 1.097 43.8946 0.904368C44.0872 0.711735 44.3485 0.603516 44.6209 0.603516C44.8934 0.603516 45.1546 0.711735 45.3473 0.904368C45.5399 1.097 45.6481 1.35827 45.6481 1.63069V14.3934C45.6481 14.6658 45.5399 14.9271 45.3473 15.1197C45.1546 15.3123 44.8934 15.4206 44.6209 15.4206Z" fill="#D0D5DD"/>
<path d="M93.4886 67.4062H63.9109C62.8076 67.4062 61.9131 68.3007 61.9131 69.4041V82.9166C61.9131 84.02 62.8076 84.9145 63.9109 84.9145H93.4886C94.5919 84.9145 95.4864 84.02 95.4864 82.9166V69.4041C95.4864 68.3007 94.5919 67.4062 93.4886 67.4062Z" fill="#F2F4F7"/>
<path d="M93.4885 85.4332H63.9109C63.2452 85.4318 62.6072 85.1668 62.1365 84.6961C61.6658 84.2254 61.4008 83.5874 61.3994 82.9217V69.404C61.4008 68.7384 61.6658 68.1004 62.1365 67.6297C62.6072 67.159 63.2452 66.8939 63.9109 66.8926H93.4885C94.1541 66.8939 94.7921 67.159 95.2628 67.6297C95.7335 68.1004 95.9986 68.7384 95.9999 69.404V82.9217C95.9986 83.5874 95.7335 84.2254 95.2628 84.6961C94.7921 85.1668 94.1541 85.4318 93.4885 85.4332ZM63.9109 67.9198C63.5172 67.9198 63.1397 68.0761 62.8613 68.3545C62.583 68.6328 62.4266 69.0104 62.4266 69.404V82.9217C62.4266 83.3153 62.583 83.6929 62.8613 83.9712C63.1397 84.2496 63.5172 84.406 63.9109 84.406H93.4885C93.8817 84.4046 94.2584 84.2478 94.5365 83.9697C94.8146 83.6917 94.9714 83.3149 94.9727 82.9217V69.404C94.9714 69.0108 94.8146 68.634 94.5365 68.356C94.2584 68.0779 93.8817 67.9211 93.4885 67.9198H63.9109Z" fill="#D0D5DD"/>
<path d="M66.9717 72.6855H70.9058V73.8668H68.2454V74.9453H70.7568V76.1215H68.2454V77.3027H71.0496V78.4788H66.9717V72.6855Z" fill="#D0D5DD"/>
<path d="M71.918 74.4836H73.0992V75.0229C73.1406 74.9387 73.1962 74.8622 73.2636 74.7969C73.336 74.7155 73.421 74.6461 73.5152 74.5915C73.6202 74.5287 73.7323 74.4787 73.8491 74.4425C73.9827 74.4047 74.121 74.3857 74.2599 74.386C74.5166 74.3813 74.7705 74.4394 74.9995 74.5555C75.2192 74.6763 75.3913 74.8683 75.4874 75.0999C75.6012 74.8704 75.7798 74.6794 76.001 74.5504C76.2232 74.4475 76.4643 74.3916 76.7091 74.3863C76.9539 74.381 77.1972 74.4264 77.4236 74.5196C77.5957 74.6053 77.744 74.7324 77.8551 74.8893C77.9671 75.0557 78.0457 75.2424 78.0862 75.4389C78.133 75.66 78.1554 75.8856 78.1529 76.1117V78.4588H76.9255V76.1425C76.9292 75.9756 76.8884 75.8108 76.8073 75.6649C76.7624 75.5959 76.6993 75.5407 76.625 75.5054C76.5507 75.4701 76.468 75.4559 76.3862 75.4646C76.2641 75.4608 76.1428 75.4854 76.0318 75.5365C75.9391 75.5779 75.8593 75.6435 75.8007 75.7265C75.7423 75.814 75.7005 75.9115 75.6774 76.0141C75.652 76.127 75.6399 76.2425 75.6415 76.3582V78.4588H74.414V76.3582C74.414 76.2863 74.414 76.199 74.414 76.0963C74.4088 75.9944 74.388 75.8939 74.3524 75.7984C74.3226 75.7062 74.2675 75.6243 74.1932 75.5621C74.0994 75.494 73.9854 75.4596 73.8696 75.4646C73.7375 75.4599 73.6064 75.49 73.4896 75.5519C73.394 75.6039 73.3156 75.6823 73.2636 75.7778C73.2103 75.8787 73.1755 75.9883 73.1609 76.1014C73.1529 76.228 73.1529 76.3549 73.1609 76.4815V78.4588H71.9334L71.918 74.4836Z" fill="#D0D5DD"/>
<path d="M79.1494 74.4834H80.2793V74.997C80.3356 74.9177 80.4011 74.8453 80.4745 74.7813C80.5562 74.7009 80.6497 74.6333 80.7518 74.581C80.8613 74.52 80.9765 74.4701 81.0959 74.4321C81.2279 74.3946 81.3645 74.3756 81.5017 74.3756C81.7758 74.373 82.0479 74.4236 82.3029 74.5245C82.5343 74.6248 82.7437 74.7696 82.9192 74.9508C83.0927 75.14 83.2271 75.3617 83.3146 75.6031C83.4097 75.8682 83.4566 76.1483 83.4533 76.4299C83.4543 76.7001 83.4127 76.9688 83.33 77.226C83.2491 77.47 83.1256 77.6978 82.9654 77.8988C82.8133 78.0951 82.6206 78.2563 82.4004 78.3713C82.1652 78.491 81.9042 78.551 81.6403 78.5459C81.3955 78.5497 81.152 78.5097 80.9213 78.4278C80.7022 78.3522 80.512 78.2104 80.3769 78.0221V80.3127H79.1494V74.4834ZM80.2793 76.471C80.2667 76.7383 80.3588 77 80.5361 77.2003C80.6305 77.2949 80.7438 77.3684 80.8686 77.4162C80.9934 77.464 81.1269 77.485 81.2603 77.4777C81.3938 77.486 81.5275 77.4655 81.6525 77.4176C81.7774 77.3698 81.8906 77.2957 81.9844 77.2003C82.1503 76.9934 82.2407 76.7362 82.2407 76.471C82.2407 76.2059 82.1503 75.9486 81.9844 75.7417C81.8906 75.6464 81.7774 75.5723 81.6525 75.5244C81.5275 75.4766 81.3938 75.4561 81.2603 75.4644C81.1269 75.4571 80.9934 75.478 80.8686 75.5258C80.7438 75.5736 80.6305 75.6472 80.5361 75.7417C80.4458 75.8435 80.3766 75.9622 80.3325 76.0909C80.2884 76.2196 80.2703 76.3558 80.2793 76.4916V76.471Z" fill="#D0D5DD"/>
<path d="M86.8997 75.5104H85.816V76.8355C85.8077 76.9346 85.8077 77.0342 85.816 77.1334C85.8219 77.2165 85.8465 77.2973 85.8879 77.3696C85.9299 77.4356 85.9907 77.4875 86.0626 77.5186C86.1618 77.5593 86.2686 77.5785 86.3758 77.5751C86.4426 77.5751 86.5299 77.5751 86.6378 77.5751C86.7261 77.5669 86.81 77.533 86.8792 77.4775V78.5047C86.7417 78.5547 86.5985 78.5875 86.4529 78.6022C86.3081 78.6209 86.1623 78.6295 86.0163 78.6279C85.8242 78.6304 85.6326 78.6079 85.4463 78.5611C85.2819 78.5234 85.1266 78.4535 84.9892 78.3557C84.8559 78.2593 84.7497 78.1302 84.681 77.9808C84.602 77.8068 84.5634 77.6172 84.568 77.4261V75.5104H83.7822V74.4832H84.568V73.3071H85.7955V74.4832H86.8792L86.8997 75.5104Z" fill="#D0D5DD"/>
<path d="M89.8114 79.1057C89.7292 79.3163 89.647 79.5063 89.57 79.6707C89.5039 79.8262 89.4059 79.9662 89.2824 80.0815C89.1553 80.2005 89.0024 80.2885 88.8355 80.3383C88.6046 80.4003 88.3658 80.428 88.1268 80.4205C87.8146 80.4225 87.5041 80.3739 87.2075 80.2767L87.3718 79.2495C87.551 79.3304 87.7453 79.3724 87.9419 79.3728C88.0567 79.3764 88.1712 79.3608 88.2809 79.3265C88.3628 79.3008 88.437 79.2549 88.4966 79.193C88.5554 79.1328 88.604 79.0635 88.6404 78.9876L88.7636 78.7L88.851 78.4688L87.0996 74.4834H88.4247L89.4518 77.1078L90.3301 74.4834H91.5884L89.8114 79.1057Z" fill="#D0D5DD"/>
</svg>
