<svg width="24" height="24" viewBox="0 0 24 24" fill="none" xmlns="http://www.w3.org/2000/svg">
<g id="material-symbols:mode-fan">
<path id="Vector" d="M10.6 22C9.75 22 9.10433 21.746 8.663 21.238C8.221 20.7293 8 20.15 8 19.5C8 19.0667 8.096 18.646 8.288 18.238C8.47933 17.8293 8.775 17.4917 9.175 17.225C9.54167 16.9917 9.83733 16.6917 10.062 16.325C10.2873 15.9583 10.4417 15.5667 10.525 15.15L10.225 15C10.125 14.95 10.0333 14.8917 9.95 14.825L7.65 15.65C7.36667 15.75 7.09167 15.8333 6.825 15.9C6.55833 15.9667 6.28333 16 6 16C4.95 16 4.02067 15.5417 3.212 14.625C2.404 13.7083 2 12.3667 2 10.6C2 9.75 2.25433 9.104 2.763 8.662C3.271 8.22067 3.84167 8 4.475 8C4.90833 8 5.33333 8.09567 5.75 8.287C6.16667 8.479 6.50833 8.775 6.775 9.175C7.00833 9.54167 7.30833 9.83733 7.675 10.062C8.04167 10.2873 8.43333 10.4417 8.85 10.525L9 10.225C9.05 10.125 9.10833 10.0333 9.175 9.95L8.35 7.65C8.25 7.36667 8.16667 7.09167 8.1 6.825C8.03333 6.55833 8 6.29167 8 6.025C8 4.95833 8.45833 4.02067 9.375 3.212C10.2917 2.404 11.6333 2 13.4 2C14.25 2 14.896 2.254 15.338 2.762C15.7793 3.27067 16 3.84167 16 4.475C16 4.90833 15.9043 5.33333 15.713 5.75C15.521 6.16667 15.225 6.50833 14.825 6.775C14.4583 7.00833 14.1627 7.30833 13.938 7.675C13.7127 8.04167 13.5583 8.43333 13.475 8.85L13.775 9C13.875 9.05 13.9667 9.10833 14.05 9.175L16.35 8.325C16.6333 8.225 16.9043 8.14567 17.163 8.087C17.421 8.029 17.6917 8 17.975 8C19.325 8 20.3333 8.55833 21 9.675C21.6667 10.7917 22 12.0333 22 13.4C22 14.25 21.7333 14.8957 21.2 15.337C20.6667 15.779 20.075 16 19.425 16C19.0083 16 18.604 15.904 18.212 15.712C17.8207 15.5207 17.4917 15.225 17.225 14.825C16.9917 14.4583 16.6917 14.1627 16.325 13.938C15.9583 13.7127 15.5667 13.5583 15.15 13.475L15 13.775C14.95 13.875 14.8917 13.9667 14.825 14.05L15.65 16.35C15.75 16.6167 15.8333 16.871 15.9 17.113C15.9667 17.3543 16 17.6083 16 17.875C16.0167 18.9583 15.5667 19.9167 14.65 20.75C13.7333 21.5833 12.3833 22 10.6 22ZM12 13.5C12.4167 13.5 12.7707 13.354 13.062 13.062C13.354 12.7707 13.5 12.4167 13.5 12C13.5 11.5833 13.354 11.2293 13.062 10.938C12.7707 10.646 12.4167 10.5 12 10.5C11.5833 10.5 11.2293 10.646 10.938 10.938C10.646 11.2293 10.5 11.5833 10.5 12C10.5 12.4167 10.646 12.7707 10.938 13.062C11.2293 13.354 11.5833 13.5 12 13.5ZM10.85 8.7C10.95 8.66667 11.0543 8.63733 11.163 8.612C11.271 8.58733 11.375 8.56667 11.475 8.55C11.6083 7.85 11.8627 7.2 12.238 6.6C12.6127 6 13.1083 5.5 13.725 5.1C13.8083 5.03333 13.875 4.95 13.925 4.85C13.975 4.75 14 4.625 14 4.475C14 4.34167 13.95 4.229 13.85 4.137C13.75 4.04567 13.6 4 13.4 4C12.7667 4 12.05 4.13733 11.25 4.412C10.45 4.68733 10.0333 5.225 10 6.025C10 6.175 10.0207 6.31667 10.062 6.45C10.104 6.58333 10.1417 6.70833 10.175 6.825L10.85 8.7ZM6 14C6.23333 14 6.50833 13.9417 6.825 13.825L8.7 13.15C8.66667 13.05 8.63767 12.9457 8.613 12.837C8.58767 12.729 8.56667 12.625 8.55 12.525C7.85 12.3917 7.2 12.1373 6.6 11.762C6 11.3873 5.5 10.8917 5.1 10.275C5.03333 10.1917 4.946 10.125 4.838 10.075C4.72933 10.025 4.60833 10 4.475 10C4.325 10 4.20833 10.05 4.125 10.15C4.04167 10.25 4 10.4 4 10.6C4 11.5 4.171 12.2917 4.513 12.975C4.85433 13.6583 5.35 14 6 14ZM10.6 20C11.3833 20 12.1543 19.8417 12.913 19.525C13.671 19.2083 14.0333 18.6583 14 17.875C14 17.6917 13.9417 17.4583 13.825 17.175L13.15 15.3C13.05 15.3333 12.946 15.3623 12.838 15.387C12.7293 15.4123 12.625 15.4333 12.525 15.45C12.3917 16.15 12.1377 16.8 11.763 17.4C11.3877 18 10.8917 18.5 10.275 18.9C10.1917 18.9667 10.1207 19.0543 10.062 19.163C10.004 19.271 9.98333 19.3833 10 19.5C10.0167 19.6333 10.0667 19.75 10.15 19.85C10.2333 19.95 10.3833 20 10.6 20ZM19.425 14C19.575 14 19.7083 13.9583 19.825 13.875C19.9417 13.7917 20 13.6333 20 13.4C20 12.7667 19.8667 12.0457 19.6 11.237C19.3333 10.429 18.7917 10.0167 17.975 10C17.825 10 17.6833 10.0167 17.55 10.05C17.4167 10.0833 17.2917 10.1167 17.175 10.15L15.3 10.85C15.3333 10.95 15.3627 11.054 15.388 11.162C15.4127 11.2707 15.4333 11.375 15.45 11.475C16.15 11.6083 16.8 11.8623 17.4 12.237C18 12.6123 18.5 13.1083 18.9 13.725C18.95 13.8083 19.025 13.875 19.125 13.925C19.225 13.975 19.325 14 19.425 14Z" fill="#DD1E25"/>
</g>
</svg>
