<svg width="24" height="25" viewBox="0 0 24 25" fill="none" xmlns="http://www.w3.org/2000/svg">
<g clip-path="url(#clip0_375_9823)">
<path d="M20.083 15.7001L21.285 16.4211C21.3592 16.4655 21.4205 16.5283 21.4632 16.6035C21.5058 16.6787 21.5282 16.7636 21.5282 16.8501C21.5282 16.9365 21.5058 17.0214 21.4632 17.0966C21.4205 17.1718 21.3592 17.2347 21.285 17.2791L12.515 22.5411C12.3595 22.6345 12.1815 22.6839 12 22.6839C11.8186 22.6839 11.6405 22.6345 11.485 22.5411L2.71501 17.2791C2.64085 17.2347 2.57947 17.1718 2.53685 17.0966C2.49423 17.0214 2.47183 16.9365 2.47183 16.8501C2.47183 16.7636 2.49423 16.6787 2.53685 16.6035C2.57947 16.5283 2.64085 16.4655 2.71501 16.4211L3.91701 15.7001L12 20.5501L20.083 15.7001ZM20.083 11.0001L21.285 11.7211C21.3592 11.7655 21.4205 11.8283 21.4632 11.9035C21.5058 11.9787 21.5282 12.0636 21.5282 12.1501C21.5282 12.2365 21.5058 12.3214 21.4632 12.3966C21.4205 12.4718 21.3592 12.5347 21.285 12.5791L12 18.1501L2.71501 12.5791C2.64085 12.5347 2.57947 12.4718 2.53685 12.3966C2.49423 12.3214 2.47183 12.2365 2.47183 12.1501C2.47183 12.0636 2.49423 11.9787 2.53685 11.9035C2.57947 11.8283 2.64085 11.7655 2.71501 11.7211L3.91701 11.0001L12 15.8501L20.083 11.0001ZM12.514 1.80907L21.285 7.07107C21.3592 7.11546 21.4205 7.17832 21.4632 7.25351C21.5058 7.32869 21.5282 7.41364 21.5282 7.50007C21.5282 7.5865 21.5058 7.67145 21.4632 7.74663C21.4205 7.82182 21.3592 7.88468 21.285 7.92907L12 13.5001L2.71501 7.92907C2.64085 7.88468 2.57947 7.82182 2.53685 7.74663C2.49423 7.67145 2.47183 7.5865 2.47183 7.50007C2.47183 7.41364 2.49423 7.32869 2.53685 7.25351C2.57947 7.17832 2.64085 7.11546 2.71501 7.07107L11.485 1.80907C11.6405 1.71563 11.8186 1.66626 12 1.66626C12.1815 1.66626 12.3595 1.71563 12.515 1.80907H12.514ZM12 3.83207L5.88701 7.50007L12 11.1681L18.113 7.50007L12 3.83207Z" fill="#2C2B2B"/>
</g>
<defs>
<clipPath id="clip0_375_9823">
<rect width="24" height="24" fill="white" transform="translate(0 0.5)"/>
</clipPath>
</defs>
</svg>
