<svg width="20" height="22" viewBox="0 0 20 22" fill="none" xmlns="http://www.w3.org/2000/svg">
<path d="M18.0829 14.6999L19.2849 15.4209C19.359 15.4653 19.4204 15.5282 19.463 15.6034C19.5056 15.6786 19.528 15.7635 19.528 15.8499C19.528 15.9364 19.5056 16.0213 19.463 16.0965C19.4204 16.1717 19.359 16.2346 19.2849 16.2789L10.5149 21.5409C10.3593 21.6344 10.1813 21.6838 9.99986 21.6838C9.81841 21.6838 9.64039 21.6344 9.48485 21.5409L0.714855 16.2789C0.640701 16.2346 0.57932 16.1717 0.536701 16.0965C0.494082 16.0213 0.47168 15.9364 0.47168 15.8499C0.47168 15.7635 0.494082 15.6786 0.536701 15.6034C0.57932 15.5282 0.640701 15.4653 0.714855 15.4209L1.91685 14.6999L9.99986 19.5499L18.0829 14.6999ZM18.0829 9.99995L19.2849 10.7209C19.359 10.7653 19.4204 10.8282 19.463 10.9034C19.5056 10.9786 19.528 11.0635 19.528 11.1499C19.528 11.2364 19.5056 11.3213 19.463 11.3965C19.4204 11.4717 19.359 11.5346 19.2849 11.5789L9.99986 17.1499L0.714855 11.5789C0.640701 11.5346 0.57932 11.4717 0.536701 11.3965C0.494082 11.3213 0.47168 11.2364 0.47168 11.1499C0.47168 11.0635 0.494082 10.9786 0.536701 10.9034C0.57932 10.8282 0.640701 10.7653 0.714855 10.7209L1.91685 9.99995L9.99986 14.8499L18.0829 9.99995ZM10.5139 0.808948L19.2849 6.07095C19.359 6.11534 19.4204 6.1782 19.463 6.25338C19.5056 6.32857 19.528 6.41352 19.528 6.49995C19.528 6.58637 19.5056 6.67132 19.463 6.74651C19.4204 6.8217 19.359 6.88455 19.2849 6.92895L9.99986 12.4999L0.714855 6.92895C0.640701 6.88455 0.57932 6.8217 0.536701 6.74651C0.494082 6.67132 0.47168 6.58637 0.47168 6.49995C0.47168 6.41352 0.494082 6.32857 0.536701 6.25338C0.57932 6.1782 0.640701 6.11534 0.714855 6.07095L9.48485 0.808948C9.64039 0.715504 9.81841 0.666138 9.99986 0.666138C10.1813 0.666138 10.3593 0.715504 10.5149 0.808948H10.5139ZM9.99986 2.83195L3.88685 6.49995L9.99986 10.1679L16.1129 6.49995L9.99986 2.83195Z" fill="#F47B20"/>
</svg>
