<svg width="24" height="24" viewBox="0 0 24 24" fill="none" xmlns="http://www.w3.org/2000/svg">
<g id="material-symbols:mode-heat">
<path id="Vector" d="M12 22C10.05 22 8.396 21.3207 7.038 19.962C5.67933 18.604 5 16.95 5 15C5 13.9 5.19167 12.904 5.575 12.012C5.95833 11.1207 6.7 10.1083 7.8 8.975C8.91667 7.825 9.57067 6.804 9.762 5.912C9.954 5.02067 10.0333 3.71667 10 2C12.6167 3.51667 14.7707 5.43333 16.462 7.75C18.154 10.0667 19 12.4833 19 15C19 16.95 18.3207 18.604 16.962 19.962C15.604 21.3207 13.95 22 12 22ZM12 20C12.35 20 12.6917 19.8623 13.025 19.587C13.3583 19.3123 13.525 18.875 13.525 18.275C13.525 17.875 13.4127 17.4083 13.188 16.875C12.9627 16.3417 12.5667 15.7 12 14.95C11.4667 15.65 11.0877 16.275 10.863 16.825C10.6377 17.375 10.525 17.8583 10.525 18.275C10.525 18.8583 10.6833 19.2917 11 19.575C11.3167 19.8583 11.65 20 12 20ZM8.525 18.6C8.44167 17.5667 8.7 16.5167 9.3 15.45C9.9 14.3833 10.5583 13.4667 11.275 12.7C11.375 12.5833 11.4877 12.5 11.613 12.45C11.7377 12.4 11.8667 12.375 12 12.375C12.1333 12.375 12.2627 12.4 12.388 12.45C12.5127 12.5 12.625 12.5833 12.725 12.7C12.825 12.8 13.0293 13.029 13.338 13.387C13.646 13.7457 13.9627 14.1873 14.288 14.712C14.6127 15.2373 14.9 15.8293 15.15 16.488C15.4 17.146 15.5167 17.8417 15.5 18.575C15.9667 18.125 16.3333 17.5917 16.6 16.975C16.8667 16.3583 17 15.7 17 15C17 13.9833 16.8417 13.025 16.525 12.125C16.2083 11.225 15.8 10.3833 15.3 9.6C14.8 8.81667 14.25 8.104 13.65 7.462C13.05 6.82067 12.4583 6.25833 11.875 5.775C11.6583 6.875 11.2793 7.79567 10.738 8.537C10.196 9.279 9.65833 9.93333 9.125 10.5C8.275 11.3667 7.70833 12.125 7.425 12.775C7.14167 13.425 7 14.1667 7 15C7 15.7 7.13333 16.3583 7.4 16.975C7.66667 17.5917 8.04167 18.1333 8.525 18.6Z" fill="#F47B20"/>
</g>
</svg>
