<svg width="18" height="18" viewBox="0 0 18 18" fill="none" xmlns="http://www.w3.org/2000/svg">
<g id="drop-line" clip-path="url(#clip0_250_1990)">
<path id="Vector" d="M9 2.32498L5.2875 6.03748C4.55333 6.77173 4.05337 7.70719 3.85084 8.72557C3.64831 9.74396 3.75231 10.7995 4.14969 11.7588C4.54706 12.7181 5.21997 13.538 6.08332 14.1149C6.94666 14.6917 7.96167 14.9996 9 14.9996C10.0383 14.9996 11.0533 14.6917 11.9167 14.1149C12.78 13.538 13.4529 12.7181 13.8503 11.7588C14.2477 10.7995 14.3517 9.74396 14.1492 8.72557C13.9466 7.70719 13.4467 6.77173 12.7125 6.03748L9 2.32498ZM9 0.203979L13.773 4.97698C14.717 5.92099 15.3599 7.12372 15.6203 8.43309C15.8808 9.74246 15.7471 11.0997 15.2362 12.3331C14.7253 13.5664 13.8601 14.6207 12.7501 15.3623C11.6401 16.104 10.335 16.4999 9 16.4999C7.66498 16.4999 6.35994 16.104 5.24991 15.3623C4.13988 14.6207 3.27472 13.5664 2.76382 12.3331C2.25293 11.0997 2.11925 9.74246 2.3797 8.43309C2.64014 7.12372 3.28301 5.92099 4.227 4.97698L9 0.203979Z" fill="#F47B20"/>
</g>
<defs>
<clipPath id="clip0_250_1990">
<rect width="18" height="18" fill="white"/>
</clipPath>
</defs>
</svg>
