<svg width="151" height="128" viewBox="0 0 151 128" fill="none" xmlns="http://www.w3.org/2000/svg">
<g id="#243_recycling_flatline">
<path id="Vector" d="M110.126 127.089C121.471 127.089 130.667 125.888 130.667 124.408C130.667 122.928 121.471 121.728 110.126 121.728C98.782 121.728 89.5857 122.928 89.5857 124.408C89.5857 125.888 98.782 127.089 110.126 127.089Z" fill="#D1D3D4"/>
<path id="Vector_2" d="M74.0863 106.949C74.0421 106.95 73.9986 106.939 73.9593 106.919C73.9015 106.884 73.8592 106.828 73.8413 106.763C73.8233 106.698 73.8311 106.628 73.8629 106.569C74.6801 105.229 75.9349 104.213 77.415 103.692C78.8952 103.171 80.5098 103.178 81.9857 103.71C83.0417 98.8672 87.7935 95.019 92.7586 95.019H92.8805C92.9478 95.019 93.0124 95.0458 93.06 95.0934C93.1076 95.141 93.1343 95.2056 93.1343 95.2729C93.1343 95.3402 93.1076 95.4048 93.06 95.4524C93.0124 95.5 92.9478 95.5267 92.8805 95.5267H92.7586C87.9255 95.5267 83.3057 99.3546 82.4274 104.112C82.4208 104.15 82.4055 104.186 82.3827 104.217C82.3599 104.249 82.3302 104.275 82.2959 104.293C82.2615 104.311 82.2235 104.321 82.1847 104.322C82.1459 104.323 82.1074 104.315 82.072 104.299C80.6875 103.719 79.1405 103.657 77.7135 104.123C76.2866 104.589 75.0748 105.552 74.2995 106.838C74.276 106.873 74.2442 106.901 74.207 106.92C74.1697 106.94 74.1283 106.95 74.0863 106.949Z" fill="#D1D3D4"/>
<path id="Vector_3" d="M145.212 106.447C145.161 106.447 145.111 106.431 145.07 106.401C145.014 106.363 144.975 106.304 144.962 106.238C144.948 106.171 144.962 106.102 144.999 106.045C146.74 103.507 147.217 101.395 146.41 99.8315C144.846 96.7854 138.972 96.6433 138.917 96.6382C138.877 96.6381 138.837 96.6283 138.802 96.6097C138.767 96.5912 138.736 96.5644 138.714 96.5316C138.691 96.4987 138.676 96.4611 138.669 96.4215C138.663 96.3819 138.666 96.3414 138.678 96.3032C139.521 93.846 139.506 92.0996 138.627 91.1096C137.434 89.7643 134.997 90.2719 134.972 90.277C134.915 90.2892 134.857 90.2818 134.805 90.256C134.753 90.2301 134.712 90.1874 134.688 90.1349C132.53 85.6775 128.555 86.9923 128.387 87.0533C128.323 87.0755 128.253 87.0714 128.192 87.0419C128.131 87.0124 128.085 86.9598 128.062 86.8959C128.04 86.8319 128.044 86.7618 128.074 86.7008C128.103 86.6399 128.156 86.5932 128.22 86.571C128.266 86.571 132.677 85.0784 135.063 89.744C135.713 89.6424 137.82 89.4343 139.008 90.7593C139.973 91.8457 140.059 93.6531 139.267 96.1305C140.602 96.2118 145.359 96.6991 146.882 99.5827C147.776 101.324 147.293 103.593 145.44 106.32C145.417 106.36 145.384 106.392 145.344 106.415C145.303 106.437 145.258 106.448 145.212 106.447Z" fill="#D1D3D4"/>
<path id="Vector_4" d="M150.355 108.35H0.254815C0.187493 108.35 0.12293 108.324 0.0753259 108.276C0.027722 108.229 0.000976562 108.164 0.000976562 108.097C0.000976562 108.029 0.027722 107.965 0.0753259 107.917C0.12293 107.87 0.187493 107.843 0.254815 107.843H150.355C150.422 107.843 150.487 107.87 150.534 107.917C150.582 107.965 150.609 108.029 150.609 108.097C150.609 108.164 150.582 108.229 150.534 108.276C150.487 108.324 150.422 108.35 150.355 108.35Z" fill="#D1D3D4"/>
<path id="Vector_5" d="M135.221 49.6323H82.0062C80.6183 49.6323 79.4932 50.7574 79.4932 52.1453V52.6784C79.4932 54.0663 80.6183 55.1914 82.0062 55.1914H135.221C136.609 55.1914 137.734 54.0663 137.734 52.6784V52.1453C137.734 50.7574 136.609 49.6323 135.221 49.6323Z" fill="white"/>
<path id="Vector_6" d="M135.211 55.4505H82.006C81.2726 55.4492 80.5696 55.1573 80.051 54.6387C79.5324 54.1201 79.2405 53.4171 79.2391 52.6837V52.176C79.2331 51.8086 79.3001 51.4436 79.4364 51.1024C79.5727 50.7611 79.7754 50.4504 80.0329 50.1882C80.2904 49.926 80.5974 49.7176 80.9361 49.5752C81.2749 49.4327 81.6385 49.359 82.006 49.3584H135.211C135.944 49.3584 136.648 49.6499 137.167 50.1688C137.686 50.6877 137.977 51.3914 137.977 52.1252V52.6329C137.983 53.0003 137.916 53.3653 137.78 53.7065C137.644 54.0478 137.441 54.3586 137.184 54.6208C136.926 54.8829 136.619 55.0913 136.28 55.2338C135.942 55.3762 135.578 55.4499 135.211 55.4505ZM82.006 49.8661C81.4072 49.8674 80.8334 50.1059 80.41 50.5292C79.9866 50.9526 79.7482 51.5265 79.7468 52.1252V52.6329C79.7408 52.9337 79.7947 53.2326 79.9054 53.5123C80.0162 53.7919 80.1815 54.0467 80.3919 54.2618C80.6022 54.4768 80.8532 54.6478 81.1304 54.7648C81.4075 54.8817 81.7052 54.9422 82.006 54.9429H135.211C135.809 54.9415 136.383 54.7031 136.807 54.2797C137.23 53.8563 137.468 53.2824 137.47 52.6837V52.176C137.476 51.8753 137.422 51.5763 137.311 51.2967C137.2 51.017 137.035 50.7622 136.825 50.5471C136.614 50.3321 136.363 50.1611 136.086 50.0442C135.809 49.9272 135.511 49.8667 135.211 49.8661H82.006Z" fill="#F47B20"/>
<path id="Vector_7" d="M133.612 55.1914L133.317 58.4913L127.733 120.54C127.627 121.72 127.084 122.818 126.209 123.618C125.334 124.418 124.191 124.861 123.006 124.86H94.2057C93.0204 124.861 91.8778 124.418 91.003 123.618C90.1282 122.818 89.5845 121.72 89.4792 120.54L84.7629 67.9341L83.6206 55.1914H133.612Z" fill="white"/>
<path id="Vector_8" d="M123.026 125.114H94.2054C92.9521 125.12 91.7426 124.653 90.8191 123.806C89.8955 122.959 89.3262 121.794 89.2251 120.545L83.3665 55.2116C83.3634 55.1413 83.3869 55.0724 83.4325 55.0187C83.4568 54.9934 83.486 54.9731 83.5182 54.9592C83.5505 54.9452 83.5852 54.9379 83.6203 54.9375H133.611C133.646 54.9379 133.681 54.9452 133.713 54.9592C133.746 54.9731 133.775 54.9934 133.799 55.0187C133.845 55.0724 133.868 55.1413 133.865 55.2116L133.571 58.5115L127.986 120.56C127.882 121.803 127.314 122.961 126.395 123.805C125.476 124.648 124.274 125.116 123.026 125.114ZM83.8995 55.4503L89.7328 120.524C89.8284 121.643 90.3417 122.684 91.1705 123.442C91.9993 124.199 93.0828 124.617 94.2054 124.611H123.026C124.149 124.617 125.232 124.199 126.061 123.442C126.89 122.684 127.403 121.643 127.499 120.524L133.332 55.4503H83.8995Z" fill="#F47B20"/>
<path id="Vector_9" d="M128.301 55.4505H83.6254C83.5581 55.4505 83.4935 55.4238 83.4459 55.3762C83.3983 55.3286 83.3716 55.264 83.3716 55.1967C83.3716 55.1294 83.3983 55.0648 83.4459 55.0172C83.4935 54.9696 83.5581 54.9429 83.6254 54.9429H128.301C128.368 54.9429 128.433 54.9696 128.481 55.0172C128.528 55.0648 128.555 55.1294 128.555 55.1967C128.555 55.264 128.528 55.3286 128.481 55.3762C128.433 55.4238 128.368 55.4505 128.301 55.4505Z" fill="#F47B20"/>
<path id="Vector_10" d="M125.402 118.641H92.8857C92.8184 118.641 92.7538 118.614 92.7062 118.567C92.6586 118.519 92.6318 118.454 92.6318 118.387C92.6318 118.32 92.6586 118.255 92.7062 118.208C92.7538 118.16 92.8184 118.133 92.8857 118.133H125.402C125.47 118.133 125.534 118.16 125.582 118.208C125.63 118.255 125.656 118.32 125.656 118.387C125.656 118.454 125.63 118.519 125.582 118.567C125.534 118.614 125.47 118.641 125.402 118.641Z" fill="#D1D3D4"/>
<path id="Vector_11" d="M54.2715 30.9146L61.6937 40.002C61.6937 40.002 70.6289 36.6056 72.228 35.5953C73.8272 34.5851 77.6399 30.0109 78.7466 31.3461C79.8534 32.6813 81.7927 35.443 79.6858 38.7226C77.579 42.0022 60.0742 48.0537 57.9978 48.2924C55.9214 48.531 45.6765 32.3614 45.6765 32.3614L54.2715 30.9146Z" fill="white"/>
<path id="Vector_12" d="M57.9676 48.551C55.7288 48.551 47.1693 35.194 45.4585 32.4932C45.4385 32.4566 45.428 32.4156 45.428 32.3739C45.428 32.3322 45.4385 32.2912 45.4585 32.2546C45.476 32.217 45.5022 32.1841 45.5348 32.1585C45.5674 32.133 45.6056 32.1154 45.6463 32.1074L54.2464 30.6605C54.2907 30.6527 54.3363 30.6571 54.3783 30.6732C54.4203 30.6893 54.4572 30.7165 54.485 30.7519L61.7752 39.7124C63.019 39.2351 70.6545 36.3008 72.0963 35.3971C72.7798 34.8924 73.4262 34.3393 74.0305 33.7421C75.5942 32.2901 77.1984 30.7874 78.2849 30.8585C78.4126 30.8655 78.5375 30.8994 78.6512 30.9581C78.7649 31.0167 78.865 31.0987 78.9449 31.1986C79.7571 32.214 82.2346 35.2194 79.8993 38.8747C77.7214 42.2508 60.0237 48.3429 58.0438 48.546L57.9676 48.551ZM46.0931 32.544C50.0428 38.7579 56.602 48.2058 57.9727 48.0434C59.9171 47.82 77.4218 41.7938 79.4729 38.5853C81.6051 35.2397 79.3053 32.4272 78.5489 31.4778C78.5132 31.432 78.4678 31.3947 78.4161 31.3683C78.3643 31.342 78.3074 31.3274 78.2493 31.3255C77.3964 31.2748 75.711 32.8486 74.3758 34.0721C73.7454 34.6954 73.0663 35.2675 72.3451 35.7829C70.7408 36.7983 62.1306 40.0728 61.7651 40.2099C61.7158 40.2299 61.6614 40.2333 61.6101 40.2196C61.5588 40.2058 61.5134 40.1757 61.4808 40.1337L54.1702 31.1885L46.0931 32.544Z" fill="#F47B20"/>
<path id="Vector_13" d="M37.8739 78.4331C37.8739 78.4331 41.387 84.5252 41.5698 86.9367C41.7525 89.3482 35.2898 114.351 35.2898 114.351H43.9762C43.9762 114.351 50.6267 90.4498 50.9973 86.5661C51.3679 82.6824 48.0427 74.3818 48.0427 74.3818L37.8739 78.4331Z" fill="white"/>
<path id="Vector_14" d="M43.9758 114.605H35.2895C35.2506 114.605 35.2121 114.597 35.1769 114.58C35.1418 114.563 35.1108 114.539 35.0864 114.509C35.0632 114.477 35.0471 114.441 35.0393 114.402C35.0314 114.363 35.0319 114.324 35.0407 114.285C35.1067 114.037 41.4984 89.2873 41.3207 86.957C41.143 84.6268 37.6908 78.621 37.6553 78.5601C37.6402 78.5274 37.6325 78.4919 37.6325 78.456C37.6325 78.42 37.6402 78.3845 37.6553 78.3519C37.6668 78.3171 37.686 78.2853 37.7115 78.2589C37.737 78.2325 37.7681 78.2123 37.8025 78.1996L47.956 74.1382C47.987 74.1258 48.0202 74.1197 48.0535 74.1201C48.0869 74.1206 48.1199 74.1276 48.1505 74.1408C48.1812 74.154 48.2089 74.1731 48.2322 74.1971C48.2554 74.221 48.2737 74.2493 48.286 74.2803C48.4231 74.6205 51.6316 82.6976 51.261 86.5966C50.8904 90.4956 44.4988 113.448 44.2297 114.422C44.2139 114.477 44.1803 114.524 44.1343 114.558C44.0883 114.591 44.0325 114.607 43.9758 114.605ZM35.6144 114.097H43.7829C44.4023 111.854 50.3827 90.1757 50.7432 86.5407C51.0681 83.1292 48.4282 76.0775 47.8951 74.6966L38.2493 78.5601C38.9245 79.7582 41.6659 84.7385 41.8335 86.9164C42.001 89.2111 36.4013 111.056 35.6144 114.097Z" fill="#F47B20"/>
<path id="Vector_15" d="M21.6026 77.3264L23.3287 86.8758C23.3287 86.8758 17.597 110.407 16.2212 114.722L24.542 115.829C24.542 115.829 33.7818 90.323 34.0305 88.2313C34.2793 86.1397 32.4263 76.4634 32.4263 76.4634L21.6026 77.3264Z" fill="white"/>
<path id="Vector_16" d="M24.5623 116.082H24.5369L16.211 114.971C16.1743 114.966 16.139 114.954 16.1075 114.935C16.076 114.915 16.049 114.89 16.0282 114.859C16.0121 114.826 16.0037 114.789 16.0037 114.752C16.0037 114.715 16.0121 114.679 16.0282 114.646C17.3329 110.488 22.7905 88.1094 23.0951 86.8656L21.3791 77.3721C21.3733 77.3365 21.3748 77.3002 21.3835 77.2653C21.3923 77.2304 21.408 77.1976 21.4299 77.169C21.4509 77.1411 21.4776 77.1181 21.5083 77.1015C21.5389 77.0848 21.5728 77.075 21.6076 77.0725L32.4516 76.2095C32.5133 76.2056 32.5743 76.224 32.6237 76.2612C32.673 76.2985 32.7074 76.3522 32.7207 76.4126C32.7968 76.8136 34.5737 86.1498 34.3249 88.2567C34.0762 90.3635 25.1867 114.874 24.8263 115.915C24.8073 115.968 24.771 116.014 24.7231 116.044C24.6753 116.075 24.6187 116.088 24.5623 116.082ZM16.5765 114.509L24.3947 115.524C25.2426 113.168 33.5685 90.1402 33.7969 88.1754C34.0152 86.3173 32.5125 78.1691 32.2384 76.707L21.902 77.5295L23.5774 86.8047C23.5849 86.8398 23.5849 86.8762 23.5774 86.9113C23.5215 87.1652 18.0589 109.574 16.5765 114.509Z" fill="#F47B20"/>
<path id="Vector_17" d="M34.929 12.6788C34.5838 12.3589 34.3858 10.2978 34.2081 9.72917C33.6997 8.07179 33.721 6.2971 34.269 4.6524C34.8872 3.16379 36.0702 1.98085 37.5588 1.36265C38.3423 0.960294 39.2486 0.867852 40.0972 1.10373C40.3328 1.22102 40.587 1.2966 40.8485 1.32711C41.0747 1.30578 41.2941 1.2384 41.4933 1.12912C44.387 -0.175614 47.027 0.00207293 49.7887 1.51495C50.5122 1.87181 51.1576 2.36879 51.6874 2.97706C52.1166 3.56835 52.4031 4.25089 52.5247 4.97132C52.6462 5.69174 52.5994 6.43051 52.388 7.12986C52.119 8.14522 51.4437 9.84086 50.5198 10.4501C50.0121 10.775 49.4486 10.6075 48.9663 10.7953C47.9509 11.171 47.0066 12.1102 46.0421 12.6077C42.6406 14.3795 38.0918 15.5675 34.929 12.6788Z" fill="white"/>
<path id="Vector_18" d="M39.6354 14.6789C37.8367 14.7236 36.0898 14.0747 34.7566 12.8665C34.4875 12.6177 34.3403 11.8511 34.1525 10.7596C34.0865 10.3636 34.0205 9.98796 33.9646 9.8052C33.4401 8.0943 33.4649 6.26201 34.0357 4.56597C34.3519 3.79615 34.8169 3.09631 35.4041 2.50652C35.9913 1.91674 36.6891 1.44862 37.4575 1.12899C38.2968 0.694382 39.2714 0.599838 40.1786 0.864997L40.3715 0.941149C40.5183 1.01218 40.6764 1.05686 40.8386 1.07315C41.0169 1.053 41.1894 0.997784 41.3463 0.910688C44.2959 -0.419426 47.0069 -0.292507 49.9006 1.29145C50.6537 1.66509 51.3263 2.18249 51.8806 2.81448C52.3407 3.43958 52.6486 4.16338 52.7799 4.92835C52.9112 5.69332 52.8623 6.47837 52.637 7.22112C52.3121 8.42939 51.6217 10.0641 50.6571 10.6886C50.3486 10.8675 49.9984 10.9621 49.6417 10.9627C49.4489 10.9676 49.2577 10.9983 49.0731 11.0541C48.4946 11.3151 47.9493 11.644 47.4485 12.0339C47.044 12.3397 46.6182 12.6162 46.1743 12.8614C44.5497 13.6737 42.1027 14.6789 39.6354 14.6789ZM35.0968 12.4908C38.4525 15.5369 43.3211 13.7397 45.9255 12.3842C46.3467 12.1486 46.752 11.8857 47.1389 11.5973C47.6733 11.1882 48.2565 10.8472 48.8751 10.5819C49.1064 10.5055 49.3475 10.4628 49.5909 10.455C49.8649 10.4598 50.1356 10.3952 50.3778 10.2672C51.2612 9.68335 51.9009 7.99279 52.1446 7.08912C52.3484 6.42833 52.3954 5.7291 52.2817 5.04698C52.168 4.36487 51.8968 3.71866 51.4897 3.1597C50.9778 2.58118 50.3589 2.1071 49.6671 1.76359C46.9256 0.240554 44.3619 0.139019 41.595 1.38791C41.3622 1.5115 41.1064 1.58581 40.8437 1.60621C40.6155 1.58962 40.3921 1.5329 40.1837 1.43867L40.0111 1.37267C39.2246 1.15189 38.3834 1.24091 37.6605 1.62144C36.9536 1.91254 36.3111 2.34047 35.7701 2.88063C35.229 3.4208 34.8001 4.06256 34.5078 4.76904C33.9752 6.35916 33.9557 8.07645 34.452 9.67828C34.518 9.8915 34.5789 10.2621 34.6551 10.6936C34.7218 11.3097 34.8704 11.914 35.0968 12.4908Z" fill="#F47B20"/>
<path id="Vector_19" d="M43.9051 57.7349L52.9976 83.1847L38.6354 85.6013L34.5739 72.2138L36.097 85.7536L20.2625 86.6979C20.2625 86.6979 15.8153 66.6192 17.5363 58.4964L43.9051 57.7349Z" fill="#F47B20"/>
<path id="Vector_20" d="M20.2319 86.9519C20.1747 86.952 20.1193 86.9323 20.0749 86.8962C20.0305 86.8602 19.9999 86.8099 19.9882 86.7539C19.8055 85.9315 15.5714 66.5128 17.2925 58.4205C17.3029 58.3644 17.3323 58.3136 17.3758 58.2766C17.4192 58.2397 17.474 58.2187 17.5311 58.2174L43.8998 57.4813C43.9532 57.4786 44.006 57.4936 44.05 57.5238C44.094 57.5541 44.1269 57.598 44.1435 57.6488L53.236 83.0987C53.2523 83.1328 53.2607 83.17 53.2607 83.2078C53.2607 83.2456 53.2523 83.2829 53.236 83.317C53.217 83.3479 53.1918 83.3746 53.1622 83.3955C53.1325 83.4165 53.0989 83.4312 53.0634 83.4388L38.6961 85.8553C38.6355 85.8632 38.574 85.8498 38.5222 85.8174C38.4703 85.785 38.4313 85.7356 38.4118 85.6777L35.1322 74.9098L36.3354 85.7234C36.3404 85.7576 36.3379 85.7926 36.3283 85.8258C36.3187 85.8591 36.3021 85.8899 36.2796 85.9163C36.2569 85.9426 36.2288 85.964 36.1974 85.9788C36.1659 85.9937 36.1316 86.0018 36.0968 86.0026L20.2674 86.9519H20.2319ZM17.7443 58.72C16.2517 66.3758 19.9781 84.2765 20.435 86.429L35.7821 85.5152L34.3047 72.2445C34.2981 72.2112 34.298 72.1769 34.3046 72.1435C34.3112 72.1102 34.3243 72.0784 34.3432 72.0502C34.362 72.0219 34.3863 71.9976 34.4145 71.9787C34.4428 71.9597 34.4745 71.9466 34.5078 71.9399C34.5411 71.9332 34.5754 71.9332 34.6088 71.9398C34.6421 71.9464 34.6739 71.9595 34.7022 71.9784C34.7304 71.9972 34.7547 72.0215 34.7737 72.0497C34.7926 72.078 34.8057 72.1097 34.8124 72.143L38.8231 85.3426L52.6674 83.0124L43.7272 57.9889L17.7443 58.72Z" fill="#F47B20"/>
<path id="Vector_21" d="M36.8684 20.0704C36.8684 20.0704 23.0138 17.9179 19.6784 24.9898C16.0333 32.7471 16.2059 60.2277 16.2059 60.2277L46.3315 59.1108L45.3973 42.0935L49.9207 45.4746L57.1958 32.0973C57.1958 32.0973 51.2915 26.457 47.2656 23.5633C43.2397 20.6695 36.8684 20.0704 36.8684 20.0704Z" fill="#FDDAA5"/>
<path id="Vector_22" d="M43.2397 20.6694L42.4071 26.0051C42.4071 26.0051 41.3359 28.3404 37.8888 26.9544C34.4417 25.5685 34.269 23.025 34.269 23.025L36.1728 13.1101C36.1728 13.1101 42.2142 10.9474 42.265 5.07861C43.3102 6.3094 44.6022 7.30692 46.0575 8.00656C47.5127 8.7062 49.0987 9.09236 50.7127 9.14003C50.7127 9.14003 50.205 15.1865 49.3572 17.8924C48.5094 20.5983 43.2397 20.6694 43.2397 20.6694Z" fill="white"/>
<path id="Vector_23" d="M39.8891 27.6601C39.1674 27.6439 38.4555 27.4888 37.7924 27.2032C34.2387 25.7715 34.0255 23.1418 34.0153 23.0555C34.0128 23.0352 34.0128 23.0148 34.0153 22.9945L35.9191 13.0745C35.9279 13.0314 35.9474 12.9911 35.9758 12.9574C36.0042 12.9237 36.0405 12.8977 36.0815 12.8816C36.1425 12.8816 41.9605 10.7138 42.0214 5.08876C42.0225 5.03617 42.0396 4.98516 42.0704 4.94253C42.1013 4.8999 42.1444 4.86768 42.194 4.85016C42.2436 4.83242 42.2976 4.83124 42.348 4.8468C42.3983 4.86236 42.4423 4.89382 42.4732 4.93646C43.498 6.13554 44.7612 7.10819 46.1824 7.79256C47.6035 8.47692 49.1516 8.85801 50.728 8.91158C50.7625 8.91142 50.7966 8.91857 50.8281 8.93258C50.8596 8.94658 50.8878 8.96711 50.9108 8.99281C50.9348 9.01847 50.9531 9.04894 50.9645 9.08219C50.9759 9.11544 50.9801 9.15073 50.9768 9.18572C50.9768 9.43448 50.4437 15.2779 49.6112 17.9939C48.8192 20.5323 44.4887 20.8775 43.453 20.9181L42.661 26.0558C42.6633 26.0795 42.6633 26.1033 42.661 26.1269C42.384 26.6121 41.9789 27.0118 41.4901 27.2822C41.0012 27.5526 40.4473 27.6833 39.8891 27.6601ZM34.523 23.0555C34.5585 23.3448 34.8936 25.4923 37.9803 26.7311C40.9857 27.9393 42.0417 26.2234 42.1635 25.9391L42.986 20.6338C42.9963 20.5746 43.0266 20.5206 43.0719 20.4809C43.1171 20.4412 43.1746 20.4181 43.2347 20.4155C43.2855 20.4155 48.3623 20.3445 49.1339 17.8467C49.8498 15.5165 50.3422 10.6072 50.4539 9.4091C47.4292 9.25851 44.5801 7.94314 42.5037 5.73859C42.0671 10.7595 37.2746 12.9476 36.4115 13.3081L34.523 23.0555Z" fill="#F47B20"/>
<path id="Vector_24" d="M37.9091 13.085C37.8106 12.4533 37.4992 11.8743 37.0264 11.444C36.5536 11.0137 35.9479 10.7579 35.3098 10.7192C33.7207 10.7192 33.472 12.486 33.7867 13.6942C33.883 14.0631 34.052 14.409 34.2838 14.7117C34.5156 15.0144 34.8055 15.2678 35.1366 15.4569C35.4676 15.6461 35.833 15.7672 36.2115 15.8132C36.5899 15.8593 36.9738 15.8292 37.3405 15.7249" fill="white"/>
<path id="Vector_25" d="M36.564 16.0751C35.8761 16.0767 35.2072 15.8505 34.6616 15.4316C34.116 15.0128 33.7245 14.425 33.5484 13.7601C33.415 13.3228 33.3764 12.862 33.435 12.4086C33.4937 11.9551 33.6483 11.5194 33.8885 11.1303C34.0563 10.9154 34.2725 10.7431 34.5196 10.6275C34.7666 10.5119 35.0374 10.4563 35.31 10.4653C36.0076 10.5118 36.6688 10.7938 37.1853 11.2651C37.7018 11.7363 38.043 12.369 38.153 13.0595C38.1597 13.1268 38.1394 13.1941 38.0966 13.2464C38.0538 13.2988 37.9919 13.332 37.9245 13.3387C37.8572 13.3455 37.79 13.3252 37.7376 13.2823C37.6852 13.2395 37.652 13.1776 37.6453 13.1103C37.5498 12.5448 37.2682 12.0274 36.8451 11.6402C36.422 11.2529 35.8817 11.0181 35.31 10.973C35.1155 10.9624 34.9214 10.9995 34.7445 11.0809C34.5676 11.1622 34.4132 11.2855 34.2946 11.44C34.1016 11.7667 33.9789 12.13 33.9343 12.5068C33.8897 12.8835 33.9243 13.2655 34.0357 13.6281C34.1239 13.9624 34.2777 14.2758 34.488 14.5502C34.6984 14.8246 34.9612 15.0544 35.2611 15.2263C35.5611 15.3982 35.8922 15.5089 36.2352 15.5517C36.5783 15.5946 36.9264 15.5689 37.2595 15.4761C37.2928 15.4671 37.3276 15.4647 37.3618 15.4692C37.3961 15.4736 37.4291 15.4847 37.459 15.5019C37.489 15.5192 37.5152 15.5421 37.5363 15.5694C37.5574 15.5968 37.5729 15.628 37.5819 15.6614C37.5909 15.6947 37.5932 15.7295 37.5888 15.7637C37.5843 15.798 37.5732 15.831 37.556 15.8609C37.5388 15.8909 37.5158 15.9171 37.4885 15.9382C37.4611 15.9593 37.4299 15.9747 37.3966 15.9837C37.1244 16.0517 36.8443 16.0824 36.564 16.0751Z" fill="#F47B20"/>
<path id="Vector_26" d="M45.4685 11.9883C45.4685 11.9883 47.0423 15.0343 46.5397 15.4456C46.0371 15.8568 44.8237 15.4456 44.8237 15.4456" fill="white"/>
<path id="Vector_27" d="M45.89 15.8923C45.4945 15.8778 45.1038 15.8007 44.7325 15.6638C44.701 15.652 44.6722 15.6341 44.6477 15.611C44.6233 15.588 44.6036 15.5603 44.5899 15.5296C44.5762 15.4989 44.5687 15.4658 44.5679 15.4322C44.5671 15.3986 44.573 15.3652 44.5853 15.3339C44.6092 15.2715 44.6567 15.2211 44.7175 15.1936C44.7783 15.166 44.8475 15.1635 44.9102 15.1866C45.3265 15.344 46.0931 15.5014 46.3723 15.2577C46.5195 15.0191 45.9915 13.5468 45.2452 12.105C45.2211 12.0487 45.2186 11.9853 45.2383 11.9272C45.258 11.8691 45.2984 11.8204 45.3519 11.7903C45.4112 11.7598 45.4801 11.7539 45.5438 11.7738C45.6075 11.7938 45.6607 11.838 45.692 11.8969C46.3164 13.0899 47.276 15.1663 46.7074 15.6638C46.4703 15.8339 46.1809 15.9148 45.89 15.8923Z" fill="#F47B20"/>
<path id="Vector_28" d="M44.5222 10.4142C44.6498 9.86523 44.5607 9.37545 44.3231 9.32021C44.0855 9.26496 43.7894 9.66516 43.6618 10.2141C43.5341 10.763 43.6233 11.2528 43.8609 11.308C44.0985 11.3633 44.3945 10.9631 44.5222 10.4142Z" fill="#F47B20"/>
<path id="Vector_29" d="M48.8 11.4054C48.9276 10.8564 48.8385 10.3667 48.6009 10.3114C48.3633 10.2562 48.0672 10.6564 47.9396 11.2053C47.812 11.7542 47.9011 12.244 48.1387 12.2993C48.3763 12.3545 48.6724 11.9543 48.8 11.4054Z" fill="#F47B20"/>
<path id="Vector_30" d="M43.24 20.6696C43.24 20.6696 41.1483 20.7356 38.9653 18.7861C38.9653 18.7861 39.2953 22.6851 42.7881 23.5634L43.24 20.6696Z" fill="#F47B20"/>
<path id="Vector_31" d="M42.8131 23.8173H42.7522C39.1274 22.9034 38.7416 18.8522 38.7416 18.8116C38.7363 18.7611 38.7466 18.7102 38.7711 18.6657C38.7956 18.6212 38.8331 18.5853 38.8786 18.5628C38.9241 18.5394 38.9756 18.5303 39.0263 18.5366C39.077 18.543 39.1246 18.5645 39.1629 18.5983C40.262 19.6651 41.7018 20.3104 43.2294 20.4209C43.2668 20.4195 43.304 20.4265 43.3383 20.4414C43.3726 20.4564 43.403 20.4789 43.4274 20.5072C43.4518 20.5356 43.4698 20.5689 43.4803 20.6047C43.4908 20.6406 43.4935 20.6783 43.4884 20.7154L43.0416 23.6091C43.0364 23.6442 43.0237 23.6777 43.0044 23.7075C42.9852 23.7373 42.9598 23.7626 42.9299 23.7817C42.8948 23.8037 42.8545 23.816 42.8131 23.8173ZM39.3305 19.4056C39.5742 20.4717 40.3458 22.5278 42.5847 23.2334L42.9451 20.9032C41.6229 20.7557 40.3696 20.2365 39.3305 19.4056Z" fill="#F47B20"/>
<path id="Vector_32" d="M45.1386 18.1715C44.3189 18.2108 43.5167 17.9264 42.9048 17.3795C41.4732 16.0241 41.8387 13.4603 41.8539 13.3537C41.8652 13.2876 41.9016 13.2284 41.9556 13.1887C42.0096 13.1489 42.0769 13.1316 42.1433 13.1404C42.1763 13.1454 42.208 13.1568 42.2366 13.1741C42.2652 13.1913 42.2902 13.214 42.31 13.2409C42.3298 13.2678 42.3441 13.2983 42.3521 13.3307C42.3601 13.3631 42.3616 13.3968 42.3565 13.4298C42.3565 13.4552 42.0164 15.8413 43.2551 17.0089C43.9202 17.6385 44.9355 17.8162 46.2758 17.5166C46.3416 17.5045 46.4096 17.5184 46.4655 17.5553C46.5213 17.5922 46.5607 17.6493 46.5753 17.7146C46.5827 17.7473 46.5834 17.7812 46.5774 17.8142C46.5713 17.8472 46.5587 17.8786 46.5402 17.9066C46.5217 17.9346 46.4977 17.9585 46.4698 17.977C46.4418 17.9955 46.4103 18.0081 46.3773 18.0141C45.9708 18.1084 45.5558 18.1612 45.1386 18.1715Z" fill="#F47B20"/>
<path id="Vector_33" d="M59.9019 39.9408C60.2421 40.5043 60.5721 41.0272 60.8462 41.4638C61.1084 41.8976 61.1904 42.4167 61.0746 42.91C60.9588 43.4034 60.6546 43.8319 60.2268 44.1038L56.5208 46.4949C56.0929 46.7683 55.5751 46.8634 55.078 46.76C54.5809 46.6566 54.1439 46.3629 53.8606 45.9416L52.8452 44.4185C51.1242 41.8243 48.9259 38.4381 48.7432 37.8187C48.6649 37.5554 48.6306 37.2809 48.6416 37.0064C48.6416 36.1586 48.8904 35.2245 48.601 34.5087C48.2152 33.5542 46.5297 33.9705 45.6717 32.3307C45.4208 31.8673 45.2983 31.3452 45.3171 30.8186C45.3358 30.2919 45.4951 29.7798 45.7783 29.3354L49.2204 27.1372C49.7429 27.0699 50.2739 27.1425 50.7591 27.3476C51.2444 27.5528 51.6664 27.8831 51.9822 28.3048C53.1041 29.7771 52.0126 31.1326 52.7183 31.8586C53.226 32.4272 54.1956 32.5998 54.9622 32.9501C55.2156 33.0611 55.4516 33.2081 55.6628 33.3867C56.14 33.8639 58.2774 37.2857 59.9019 39.9408Z" fill="white"/>
<path id="Vector_34" d="M55.4544 47.0586C55.0945 47.0589 54.7401 46.9701 54.4229 46.8C54.1058 46.6299 53.8357 46.3838 53.6369 46.0839L53.0988 45.297L52.6368 44.5964C51.1848 42.4083 48.7124 38.6311 48.5043 37.9458C48.4193 37.6559 48.3816 37.3542 48.3926 37.0523C48.3926 36.7832 48.3926 36.504 48.4434 36.2349C48.5414 35.7099 48.5153 35.1692 48.3672 34.656C48.2504 34.3565 47.9357 34.2245 47.4382 34.0417C46.9504 33.9165 46.4994 33.6767 46.1228 33.3424C45.7462 33.008 45.4547 32.5887 45.2726 32.1192C45.0904 31.6496 45.0228 31.1434 45.0754 30.6426C45.128 30.1417 45.2993 29.6606 45.575 29.2391C45.5934 29.2107 45.6176 29.1864 45.6461 29.168L49.0881 26.9749C49.1158 26.957 49.1469 26.9449 49.1795 26.9393C49.6767 26.8709 50.183 26.9213 50.6569 27.0865C51.1308 27.2517 51.5587 27.527 51.9056 27.8897C52.2525 28.2524 52.5083 28.6922 52.6522 29.173C52.7961 29.6538 52.8238 30.1619 52.7332 30.6555C52.6875 31.1632 52.6723 31.5237 52.8906 31.7623C53.2965 32.1126 53.7777 32.3645 54.2969 32.4984C54.5507 32.5898 54.8046 32.6812 55.0584 32.7979C55.3344 32.9164 55.591 33.0756 55.8199 33.2701C56.3276 33.7778 58.734 37.5853 60.1047 39.8293L60.521 40.5146C60.7088 40.8192 60.8865 41.1086 61.0287 41.3726C61.3284 41.8626 61.4235 42.4507 61.2933 43.0102C61.1632 43.5696 60.8183 44.0554 60.3332 44.3628L56.6119 46.7337C56.2632 46.9462 55.8627 47.0586 55.4544 47.0586ZM45.9608 29.559C45.7399 29.9181 45.6071 30.3245 45.5735 30.7449C45.5398 31.1652 45.6062 31.5876 45.7671 31.9773C45.9281 32.3671 46.1791 32.7132 46.4995 32.9873C46.82 33.2614 47.2008 33.4557 47.6108 33.5544C48.1184 33.7473 48.6261 33.9301 48.8393 34.453C49.0197 35.0415 49.058 35.6643 48.951 36.2705C48.9256 36.5344 48.9003 36.7781 48.9003 37.0472C48.8911 37.2972 48.9202 37.5472 48.9866 37.7884C49.1236 38.2352 50.6467 40.672 53.048 44.307L53.5151 45.0025L54.0481 45.8097C54.2885 46.1817 54.6661 46.4436 55.0986 46.5387C55.5312 46.6338 55.9838 46.5542 56.358 46.3174L60.0793 43.9465C60.4525 43.7102 60.7179 43.3368 60.8186 42.9067C60.9192 42.4766 60.847 42.0241 60.6175 41.6468L60.1098 40.7989L59.6884 40.1085C57.4089 36.3517 55.8453 33.9453 55.5051 33.6204C55.3153 33.4577 55.1012 33.3258 54.8706 33.2295C54.6421 33.1229 54.3933 33.0315 54.1496 32.9452C53.553 32.7918 53.0002 32.5015 52.5352 32.0973C52.1494 31.6861 52.1951 31.1632 52.2408 30.6048C52.3102 30.2417 52.3056 29.8684 52.2271 29.5072C52.1485 29.146 51.9978 28.8044 51.7839 28.503C51.5036 28.1222 51.128 27.8218 50.695 27.632C50.2619 27.4422 49.7865 27.3697 49.3166 27.4216L45.9608 29.559Z" fill="#F47B20"/>
<path id="Vector_35" d="M48.0666 25.3537L44.8728 27.3892L46.0324 29.2087L49.2262 27.1732L48.0666 25.3537Z" fill="white"/>
<path id="Vector_36" d="M46.0322 29.4626C45.9891 29.4625 45.9468 29.4512 45.9095 29.4298C45.8721 29.4085 45.8409 29.3778 45.8189 29.3407L44.6564 27.5283C44.6389 27.5007 44.6273 27.4698 44.622 27.4375C44.6168 27.4052 44.6181 27.3722 44.6259 27.3405C44.6408 27.274 44.6808 27.2157 44.7376 27.178L47.9309 25.1473C47.9585 25.1299 47.9894 25.1182 48.0217 25.113C48.054 25.1078 48.087 25.1091 48.1187 25.1169C48.152 25.1234 48.1835 25.1367 48.2115 25.1559C48.2394 25.1751 48.2631 25.1999 48.2812 25.2286L49.4387 27.0207C49.4749 27.0772 49.4873 27.1459 49.473 27.2115C49.4587 27.2772 49.419 27.3345 49.3625 27.371L46.1692 29.4017C46.1298 29.4339 46.0825 29.4549 46.0322 29.4626ZM45.225 27.4674L46.1083 28.8534L48.8752 27.0917L47.9867 25.7058L45.225 27.4674Z" fill="#F47B20"/>
<path id="Vector_37" d="M59.9018 39.9411L52.8501 44.4391C51.1291 41.8449 48.9309 38.4587 48.7481 37.8393C48.6698 37.576 48.6355 37.3016 48.6466 37.0271L54.9671 32.9961C55.2205 33.1071 55.4565 33.2541 55.6677 33.4327C56.1399 33.8642 58.2772 37.286 59.9018 39.9411Z" fill="#F47B20"/>
<path id="Vector_38" d="M52.8501 44.6926C52.8078 44.6921 52.7661 44.6812 52.729 44.6608C52.6918 44.6405 52.6602 44.6113 52.6369 44.5759C51.185 42.3878 48.7126 38.6107 48.5044 37.9253C48.4194 37.6354 48.3817 37.3337 48.3927 37.0318C48.3937 36.9895 48.4048 36.948 48.4251 36.9109C48.4454 36.8738 48.4744 36.8421 48.5095 36.8186L54.8301 32.7927C54.8676 32.7727 54.9094 32.7622 54.9519 32.7622C54.9944 32.7622 55.0363 32.7727 55.0738 32.7927C55.3497 32.9112 55.6064 33.0703 55.8353 33.2648C56.343 33.7725 58.7493 37.5801 60.1201 39.824C60.1543 39.8808 60.1649 39.9486 60.1498 40.0131C60.1346 40.0777 60.0948 40.1337 60.0388 40.1692L52.9669 44.652C52.9314 44.674 52.8916 44.6878 52.8501 44.6926ZM48.9055 37.1739C48.9078 37.3782 48.9368 37.5813 48.9918 37.7781C49.1289 38.2197 50.5961 40.5703 52.9263 44.0885L59.5667 39.8595C57.3634 36.2601 55.8505 33.94 55.5053 33.6303C55.3511 33.4974 55.1805 33.3848 54.9976 33.2953L48.9055 37.1739Z" fill="#F47B20"/>
<path id="Vector_39" d="M21.4048 40.8955C21.4048 41.261 23.3746 58.2682 26.0856 58.39C28.7966 58.5119 47.2659 47.4242 47.2659 47.4242C50.5049 46.4952 58.5871 44.8858 55.739 39.6111C55.5438 39.2133 55.2345 38.8828 54.8506 38.6617C54.2509 38.418 53.5829 38.4018 52.9722 38.616C52.3277 38.7829 51.7055 39.0267 51.1191 39.342C50.9246 39.4844 50.6834 39.5478 50.4439 39.5197C50.2997 39.4627 50.1722 39.3701 50.0733 39.2506L49.058 38.1997C48.4589 39.3775 47.8852 40.9666 46.809 41.6773C46.2509 41.9512 45.6655 42.1657 45.0625 42.317L39.2598 44.4492L30.5024 47.6679L29.025 38.5297" fill="white"/>
<path id="Vector_40" d="M26.126 58.6437H26.06C22.9784 58.5016 21.1355 41.068 21.1355 40.875C21.1355 40.8077 21.1622 40.7432 21.2098 40.6956C21.2574 40.6479 21.322 40.6212 21.3893 40.6212C21.4567 40.6212 21.5212 40.6479 21.5688 40.6956C21.6164 40.7432 21.6432 40.8077 21.6432 40.875C21.6838 42.2661 23.7805 58.0142 26.0803 58.1361C28.1465 58.2224 40.7522 51.0286 47.1184 47.2058L47.1794 47.1804L48.1338 46.9164C50.6417 46.2412 54.8402 45.1141 55.8403 42.789C56.2312 41.8853 56.1196 40.8852 55.5002 39.7429C55.3299 39.3913 55.0574 39.0994 54.7184 38.9053C54.1764 38.6854 53.5722 38.6746 53.0227 38.8748C52.3962 39.0381 51.7913 39.275 51.2205 39.5805C51.0979 39.6691 50.9589 39.7323 50.8115 39.7663C50.6642 39.8003 50.5115 39.8044 50.3625 39.7785C50.1642 39.716 49.988 39.5979 49.8548 39.4383L49.0882 38.6514L48.9105 39.0271C48.4029 40.0881 47.8444 41.2913 46.9154 41.9056C46.5251 42.133 46.1047 42.3039 45.6665 42.4133C45.4736 42.4692 45.2857 42.525 45.1182 42.5859L30.6291 47.9064C30.5958 47.9225 30.5594 47.9309 30.5225 47.9309C30.4855 47.9309 30.4491 47.9225 30.4158 47.9064C30.3831 47.887 30.3552 47.8605 30.3341 47.8289C30.313 47.7972 30.2993 47.7613 30.294 47.7236L28.8116 38.5854C28.8065 38.5524 28.8081 38.5187 28.816 38.4863C28.824 38.4539 28.8383 38.4234 28.8582 38.3965C28.878 38.3696 28.9029 38.3469 28.9315 38.3297C28.9601 38.3124 28.9918 38.301 29.0248 38.296C29.0575 38.2903 29.0911 38.2911 29.1235 38.2985C29.1559 38.3059 29.1864 38.3196 29.2134 38.3391C29.2404 38.3585 29.2632 38.3831 29.2805 38.4114C29.2978 38.4398 29.3093 38.4713 29.3142 38.5042L30.7255 47.3276L44.976 42.0782C45.1537 42.0173 45.3517 41.9564 45.5599 41.8955C45.9481 41.8021 46.3221 41.657 46.6717 41.4639C47.4789 40.9563 48.017 39.7988 48.4892 38.7986C48.6008 38.5499 48.7176 38.291 48.8293 38.0828C48.8492 38.047 48.8768 38.0161 48.9102 37.9924C48.9436 37.9687 48.9819 37.9527 49.0222 37.9457C49.062 37.9402 49.1026 37.9443 49.1405 37.9575C49.1785 37.9708 49.2128 37.9928 49.2405 38.0219L50.2559 39.0728C50.3253 39.1584 50.414 39.2262 50.5148 39.2708C50.6417 39.3114 50.8245 39.2149 51.0225 39.1185C51.6282 38.7927 52.2708 38.5404 52.9364 38.3671C53.6077 38.1405 54.3385 38.1658 54.9925 38.4382C55.4303 38.6766 55.7846 39.0434 56.0079 39.4891C56.6983 40.7684 56.8201 41.9513 56.3683 42.9921C55.2717 45.5304 51.0885 46.6626 48.3267 47.4089L47.4129 47.6576C46.2808 48.3125 29.0096 58.6437 26.126 58.6437Z" fill="#F47B20"/>
<path id="Vector_41" d="M29.7814 24.5073C29.7814 25.1216 31.2638 41.2607 31.2638 41.2607L20.171 43.3574C20.171 43.3574 19.308 30.4218 19.5567 29.9242" fill="#FDDAA5"/>
<path id="Vector_42" d="M20.1711 43.6116C20.1154 43.611 20.0617 43.5913 20.0188 43.5558C19.9891 43.535 19.9645 43.5078 19.9469 43.4761C19.9293 43.4445 19.9192 43.4092 19.9172 43.373C19.6583 39.4639 19.0796 30.3156 19.3283 29.813C19.3429 29.7829 19.3633 29.756 19.3885 29.734C19.4136 29.712 19.4429 29.6953 19.4747 29.6849C19.5064 29.6745 19.54 29.6706 19.5733 29.6734C19.6066 29.6762 19.6389 29.6857 19.6685 29.7013C19.6985 29.7159 19.7254 29.7363 19.7475 29.7613C19.7697 29.7864 19.7866 29.8155 19.7975 29.8471C19.8083 29.8787 19.8128 29.9121 19.8107 29.9455C19.8086 29.9788 19.8 30.0114 19.7852 30.0414C19.6431 30.5491 20.0746 38.0069 20.4046 43.0532L30.9897 41.058C30.8018 39.0273 29.5276 25.0916 29.5276 24.5077C29.5276 24.4404 29.5543 24.3759 29.6019 24.3283C29.6495 24.2806 29.7141 24.2539 29.7814 24.2539C29.8487 24.2539 29.9133 24.2806 29.9609 24.3283C30.0085 24.3759 30.0353 24.4404 30.0353 24.5077C30.0353 24.985 31.0049 35.6766 31.5126 41.2611C31.5187 41.3233 31.5012 41.3854 31.4636 41.4353C31.426 41.4851 31.371 41.519 31.3095 41.5302L20.2219 43.6066L20.1711 43.6116Z" fill="#F47B20"/>
<path id="Vector_43" d="M22.0849 84.7335C22.0254 84.7343 21.9676 84.7138 21.922 84.6756C21.8763 84.6374 21.8459 84.5841 21.8362 84.5254C20.6373 77.6819 19.8018 70.7796 19.3333 63.8477C19.3317 63.781 19.3555 63.7161 19.3997 63.6662C19.444 63.6163 19.5055 63.585 19.5719 63.5786C19.6053 63.5765 19.6387 63.5811 19.6703 63.592C19.7019 63.6029 19.731 63.6199 19.756 63.642C19.781 63.6642 19.8014 63.6911 19.816 63.7212C19.8306 63.7512 19.8391 63.7839 19.841 63.8172C20.3033 70.729 21.1354 77.6112 22.3337 84.434C22.3456 84.4999 22.3309 84.5679 22.2928 84.6231C22.2548 84.6782 22.1965 84.7161 22.1306 84.7285L22.0849 84.7335Z" fill="white"/>
<path id="Vector_44" d="M16.2414 114.722C16.2414 114.722 12.8196 121.743 13.4339 122.235C14.0482 122.728 31.0554 125.789 30.8066 123.591C30.5579 121.393 24.6841 118.418 24.5622 115.828L16.2414 114.722Z" fill="#F47B20"/>
<path id="Vector_45" d="M28.1416 124.622C23.2831 124.622 13.7591 122.819 13.2768 122.434C12.6371 121.926 14.414 117.895 16.0183 114.61C16.0412 114.563 16.0785 114.523 16.1249 114.498C16.1714 114.472 16.2246 114.462 16.2772 114.468L24.5929 115.58C24.6523 115.587 24.7073 115.615 24.7481 115.658C24.789 115.702 24.8132 115.759 24.8163 115.819C24.8772 117.072 26.4866 118.499 28.0502 119.88C29.5326 121.185 30.9338 122.418 31.0608 123.571C31.0733 123.72 31.0383 123.869 30.9608 123.996C30.8832 124.124 30.7671 124.224 30.6292 124.281C29.8331 124.568 28.9855 124.684 28.1416 124.622ZM13.617 122.048C14.5917 122.5 28.4411 125.068 30.4262 123.804C30.5683 123.718 30.5581 123.652 30.5531 123.622C30.4515 122.667 29.0605 121.444 27.7152 120.256C26.1515 118.88 24.5422 117.458 24.3289 116.057L16.4143 114.996C14.8912 118.078 13.485 121.479 13.617 122.048Z" fill="#F47B20"/>
<path id="Vector_46" d="M35.2896 114.341C35.2896 114.341 33.6345 116.138 32.5989 121.362C32.5989 121.362 51.5251 123.058 51.7383 122.134C51.9515 121.21 46.8392 119.641 45.2705 117.793C43.7018 115.945 43.9759 114.341 43.9759 114.341H35.2896Z" fill="#F47B20"/>
<path id="Vector_47" d="M49.3318 122.672C47.8799 122.672 45.6156 122.586 42.072 122.357C37.3659 122.053 32.6242 121.631 32.5785 121.626C32.5431 121.623 32.5087 121.613 32.4776 121.596C32.4464 121.579 32.4192 121.555 32.3977 121.527C32.3762 121.499 32.3608 121.466 32.3526 121.432C32.3444 121.397 32.3435 121.362 32.35 121.327C33.3654 116.092 35.0305 114.255 35.1016 114.179C35.1258 114.153 35.1549 114.133 35.1872 114.119C35.2195 114.105 35.2543 114.097 35.2895 114.097H43.9758C44.0129 114.096 44.0498 114.104 44.0833 114.12C44.1169 114.136 44.1462 114.159 44.1687 114.189C44.1933 114.216 44.2112 114.248 44.2209 114.284C44.2306 114.319 44.2318 114.356 44.2246 114.392C44.2246 114.392 43.9961 115.915 45.4633 117.636C46.2147 118.524 47.8545 119.362 49.3014 120.103C51.1595 121.052 52.1241 121.575 51.987 122.2C51.9514 122.413 51.8753 122.672 49.3318 122.672ZM32.9034 121.149C39.6758 121.748 50.3116 122.484 51.4793 122.032C51.3372 121.712 49.9563 121.017 49.0678 120.555C47.5803 119.793 45.8948 118.93 45.0775 117.966C44.223 117.052 43.7335 115.856 43.7017 114.605H35.4062C35.0965 115.001 33.7918 116.879 32.9034 121.149Z" fill="#F47B20"/>
<path id="Vector_48" d="M78.1732 34.2095C78.1732 34.2095 79.6962 37.1388 82.5189 44.4392C85.3416 51.7396 90.0325 67.508 88.8039 78.2251C87.5754 88.9422 80.9756 100.527 72.8426 101.883C64.7096 103.238 58.1199 100.02 56.338 96.1461C54.556 92.2725 55.7795 72.3259 55.414 66.7008C55.2093 63.4469 54.828 60.2066 54.2717 56.994C54.2717 56.994 77.6807 44.1295 78.1732 34.2095Z" fill="white"/>
<path id="Vector_49" d="M69.3243 102.421C63.7754 102.421 58.0183 100.39 56.1247 96.2526C54.9063 93.6127 55.0636 83.8145 55.1855 75.9455C55.2464 72.0008 55.3023 68.5943 55.1855 66.7413C54.981 63.4977 54.6014 60.2676 54.0483 57.065C54.0384 57.0125 54.0454 56.9582 54.0682 56.9099C54.091 56.8616 54.1284 56.8217 54.1752 56.7959C54.4087 56.669 77.4675 43.8704 77.9497 34.2042C77.9536 34.1493 77.9753 34.0971 78.0114 34.0555C78.0476 34.014 78.0963 33.9853 78.1501 33.9738C78.204 33.9624 78.2602 33.9687 78.3101 33.992C78.36 34.0152 78.4011 34.0541 78.427 34.1027C78.427 34.1332 79.9754 37.1488 82.7828 44.3527C85.702 51.8816 90.3168 67.4927 89.078 78.2656C87.885 88.6526 81.3664 100.735 72.9085 102.126C71.7238 102.322 70.5251 102.42 69.3243 102.421ZM54.556 57.1411C55.0903 60.3046 55.4597 63.4937 55.6627 66.6956C55.7896 68.574 55.7338 71.9907 55.6627 75.9455C55.5409 83.7688 55.3886 93.506 56.5562 96.0394C58.3026 99.8266 64.8517 102.959 72.8019 101.624C81.0212 100.253 87.3773 88.3937 88.5399 78.1894C89.7685 67.5282 85.1791 52.0034 82.2701 44.5202C80.28 39.3876 78.9346 36.3974 78.3204 35.0978C77.6198 39.1236 73.5431 43.9669 66.1818 49.5209C62.4658 52.296 58.5832 54.8408 54.556 57.1411Z" fill="#F47B20"/>
<path id="Vector_50" d="M78.6454 38.9257C78.188 42.3342 77.0466 45.6151 75.2896 48.5715C74.9292 49.2011 74.5332 49.8407 74.1067 50.4753C73.0674 52.0045 71.8374 53.3949 70.4464 54.6129C69.5909 55.3661 68.6888 56.0647 67.7455 56.7045C66.7867 57.3597 65.7861 57.9515 64.7502 58.4763C63.5392 59.1033 62.2666 59.6035 60.9528 59.9689C60.4243 60.1109 59.8839 60.2044 59.3384 60.2481C59.0568 60.2814 58.7722 60.2814 58.4906 60.2481C56.5106 60.0044 54.8302 59.1566 54.3479 57.3594C54.0788 56.3441 54.1855 55.0952 54.7947 53.4757C56.5208 48.9066 62.8363 44.4137 66.9028 41.4285C70.9693 38.4434 77.3356 33.9301 77.3356 33.9301C78.3154 33.59 79.0261 35.6511 78.6454 38.9257Z" fill="#F47B20"/>
<path id="Vector_51" d="M58.9168 60.5274C58.7646 60.5357 58.6121 60.5357 58.4599 60.5274C56.0688 60.233 54.561 59.1719 54.1041 57.4509C53.8096 56.3594 53.9619 54.9988 54.561 53.3895C56.2414 48.9371 62.2675 44.5153 66.2375 41.591L66.7452 41.2306C70.7711 38.2759 77.1272 33.783 77.1932 33.7373L77.2541 33.7068C77.3941 33.6538 77.5458 33.6395 77.6932 33.6654C77.8406 33.6913 77.9783 33.7565 78.0918 33.854C78.8635 34.4734 79.1782 36.4787 78.8889 38.9664C78.4211 42.4071 77.2698 45.7196 75.5027 48.7087C75.132 49.3585 74.731 50.0033 74.3147 50.6277C73.2621 52.1739 72.0167 53.5797 70.6086 54.811C69.7459 55.5719 68.8372 56.2789 67.8875 56.928C66.9098 57.5856 65.8925 58.1824 64.8414 58.715C63.6166 59.3545 62.3287 59.8649 60.9983 60.238C60.4548 60.3845 59.8992 60.4814 59.3382 60.5274C59.2011 60.5274 59.059 60.5274 58.9168 60.5274ZM77.4572 34.1688C76.9495 34.5191 70.9234 38.7887 67.0498 41.6317L66.5421 41.9972C62.6026 44.8859 56.6475 49.2519 55.0179 53.5621C54.4594 55.0496 54.3122 56.3035 54.5813 57.2935C55.0889 59.1922 56.9927 59.8319 58.5056 59.9944C58.7705 60.023 59.0377 60.023 59.3027 59.9944C59.8341 59.9452 60.3605 59.8518 60.8765 59.7151C62.1705 59.3551 63.4242 58.8635 64.618 58.2479C65.6437 57.7249 66.6356 57.1382 67.588 56.4914C68.529 55.8658 69.4279 55.179 70.2787 54.4353C71.654 53.2324 72.8704 51.859 73.8984 50.3485C74.3096 49.7342 74.7056 49.0996 75.0711 48.4599C76.8013 45.5308 77.9301 42.2861 78.3913 38.9156C78.6959 36.2909 78.2847 34.6613 77.7821 34.2551C77.7403 34.2132 77.6886 34.1825 77.6319 34.1657C77.5752 34.1488 77.5151 34.1464 77.4572 34.1587V34.1688Z" fill="#F47B20"/>
<path id="Vector_52" d="M68.7049 53.6738C68.3927 54.2672 68.0434 54.8404 67.659 55.3898C66.084 57.6992 63.6968 59.3305 60.9729 59.9589C60.4443 60.1005 59.904 60.1939 59.3585 60.2381C59.0769 60.2714 58.7923 60.2714 58.5107 60.2381C57.0943 60.0503 55.5611 59.5528 54.764 58.2683C53.967 56.9839 54.9722 55.0852 56.3987 54.6029C56.3692 54.185 56.44 53.7661 56.6051 53.3811C56.7703 52.9961 57.025 52.6561 57.3481 52.3894C58.1858 51.7041 60.1911 51.3741 61.2268 51.5822C61.1482 50.5722 61.3559 49.5605 61.8258 48.6631C62.0657 48.2172 62.4216 47.8446 62.856 47.5845C63.2903 47.3244 63.7869 47.1866 64.2931 47.1857C64.3634 46.5572 64.6045 45.9599 64.9902 45.4587C65.376 44.9575 65.8916 44.5716 66.4812 44.3427C67.7149 43.8807 68.8368 44.2666 69.8877 44.9367C70.9386 45.6069 70.9031 46.4293 70.6899 47.6477C70.3393 49.7459 69.6699 51.7781 68.7049 53.6738Z" fill="white"/>
<path id="Vector_53" d="M58.9171 60.527C58.7649 60.5353 58.6124 60.5353 58.4602 60.527C56.5564 60.2732 55.2314 59.5726 54.5308 58.4404C54.3418 58.1272 54.2278 57.7744 54.1979 57.4098C54.168 57.0452 54.2228 56.6786 54.3581 56.3387C54.5075 55.9222 54.741 55.541 55.0441 55.2187C55.3472 54.8965 55.7133 54.64 56.1198 54.4653C56.1166 54.0379 56.2088 53.6151 56.3897 53.2277C56.5707 52.8404 56.8357 52.4984 57.1656 52.2265C58.0033 51.5462 59.8004 51.2111 60.9478 51.3228C60.908 50.363 61.1291 49.4103 61.5875 48.5661C61.8339 48.117 62.1877 47.7358 62.6174 47.4568C63.0471 47.1777 63.5391 47.0094 64.0497 46.9669C64.1612 46.3353 64.4338 45.7432 64.8411 45.2478C65.2484 44.7524 65.7767 44.3706 66.3749 44.1392C67.8979 43.5757 69.1671 44.2255 70.0048 44.7585C71.208 45.5251 71.1369 46.5151 70.9237 47.7285C70.5594 49.8503 69.8747 51.9045 68.8929 53.8206C68.5773 54.4233 68.2229 55.005 67.8319 55.5619C66.2199 57.9201 63.7812 59.587 60.9986 60.2325C60.4569 60.3794 59.9029 60.4763 59.3435 60.5219C59.2014 60.527 59.0592 60.527 58.9171 60.527ZM60.4807 51.7848C59.4654 51.7848 58.1099 52.0843 57.4854 52.592C57.1943 52.8335 56.9651 53.1409 56.8167 53.4888C56.6684 53.8367 56.6052 54.215 56.6325 54.5922C56.6375 54.6486 56.6231 54.705 56.5917 54.752C56.5603 54.7991 56.5139 54.8341 56.4599 54.8512C56.0871 54.99 55.7487 55.208 55.4683 55.4902C55.1878 55.7725 54.9719 56.1122 54.8354 56.4859C54.7267 56.7536 54.6816 57.0428 54.7037 57.3309C54.7257 57.6189 54.8142 57.8979 54.9623 58.146C55.5816 59.1613 56.7798 59.7655 58.516 59.999C58.7794 60.0248 59.0446 60.0248 59.308 59.999C59.8394 59.9495 60.3658 59.8561 60.8818 59.7198C63.5441 59.1022 65.8776 57.5079 67.4207 55.2522C67.7937 54.7102 68.1328 54.1456 68.436 53.5617C69.391 51.689 70.052 49.6804 70.3957 47.6066C70.6241 46.3374 70.5784 45.713 69.7052 45.1545C68.502 44.3879 67.5222 44.2102 66.5221 44.5859C65.9758 44.7972 65.4978 45.1539 65.1398 45.6175C64.7819 46.0811 64.5576 46.6338 64.4914 47.2157C64.485 47.2803 64.454 47.34 64.4049 47.3825C64.3558 47.425 64.2923 47.4471 64.2274 47.4442C63.7686 47.4502 63.3197 47.5785 62.927 47.8159C62.5344 48.0533 62.2122 48.3911 61.9936 48.7946C61.5432 49.6488 61.3476 50.6145 61.4301 51.5766C61.4313 51.6152 61.4237 51.6535 61.4079 51.6887C61.392 51.7239 61.3684 51.755 61.3387 51.7797C61.3099 51.8048 61.2756 51.8229 61.2386 51.8325C61.2016 51.8422 61.1629 51.8433 61.1255 51.8356C60.913 51.7947 60.6971 51.7743 60.4807 51.7746V51.7848Z" fill="#F47B20"/>
<path id="Vector_54" d="M76.8278 32.9147C77.4167 32.5847 78.1072 32.3614 78.0919 33.1736C78.0615 34.5799 77.2136 37.5752 76.3709 37.8189C74.6956 38.3266 75.5688 34.5799 75.5688 34.5799" fill="white"/>
<path id="Vector_55" d="M76.107 38.1182C75.9994 38.1204 75.8925 38.1014 75.7923 38.0622C75.6921 38.023 75.6007 37.9644 75.5232 37.8897C74.7515 37.1587 75.2795 34.7878 75.3404 34.5187C75.3561 34.4536 75.3969 34.3972 75.454 34.362C75.5111 34.3268 75.5797 34.3156 75.645 34.3309C75.6776 34.3381 75.7085 34.3517 75.7357 34.371C75.763 34.3903 75.7861 34.4149 75.8036 34.4433C75.8211 34.4718 75.8327 34.5034 75.8378 34.5365C75.8428 34.5695 75.8411 34.6032 75.8329 34.6355C75.6247 35.5392 75.447 37.1181 75.8735 37.5242C75.9395 37.5851 76.0512 37.6562 76.3202 37.575C76.9498 37.3922 77.8433 34.6457 77.8433 33.1683C77.8433 33.0211 77.8179 32.9145 77.7722 32.884C77.7265 32.8536 77.5742 32.7876 76.9599 33.1328C76.9311 33.1498 76.8991 33.1607 76.8659 33.1651C76.8327 33.1694 76.799 33.167 76.7668 33.158C76.7345 33.149 76.7045 33.1336 76.6783 33.1127C76.6522 33.0918 76.6306 33.0658 76.6147 33.0363C76.5818 32.9777 76.5735 32.9085 76.5916 32.8438C76.6097 32.7791 76.6527 32.7242 76.7111 32.6911C77.3102 32.356 77.7265 32.2748 78.0362 32.4525C78.1501 32.5331 78.2398 32.6434 78.2953 32.7714C78.3508 32.8994 78.37 33.0402 78.3509 33.1785C78.3256 34.4324 77.5387 37.7476 76.4472 38.0623C76.3371 38.0973 76.2225 38.1161 76.107 38.1182Z" fill="#F47B20"/>
<path id="Vector_56" d="M45.3162 65.0505C45.2753 65.0508 45.235 65.0403 45.1995 65.0201C43.778 64.2636 42.0265 61.3546 41.9554 61.2277C41.938 61.1995 41.9265 61.1681 41.9214 61.1353C41.9163 61.1025 41.9178 61.0691 41.9259 61.0369C41.9339 61.0048 41.9483 60.9745 41.9682 60.948C41.9881 60.9215 42.0131 60.8992 42.0417 60.8825C42.0703 60.865 42.1021 60.8533 42.1353 60.8482C42.1684 60.8431 42.2023 60.8446 42.2349 60.8526C42.2674 60.8606 42.2981 60.875 42.3251 60.895C42.352 60.9149 42.3748 60.94 42.392 60.9688C42.392 60.9993 44.1435 63.8829 45.4381 64.5733C45.4879 64.6002 45.5273 64.643 45.55 64.6948C45.5727 64.7467 45.5775 64.8046 45.5635 64.8595C45.5494 64.9143 45.5175 64.9629 45.4727 64.9975C45.4279 65.0322 45.3728 65.0508 45.3162 65.0505Z" fill="white"/>
<path id="Vector_57" d="M23.9278 66.1574C23.8689 66.1563 23.812 66.135 23.7668 66.0971C23.7216 66.0593 23.6906 66.0071 23.6791 65.9493C23.6672 65.8833 23.6819 65.8154 23.7199 65.7602C23.758 65.705 23.8163 65.6672 23.8821 65.6548C24.0141 65.6548 27.0145 65.0405 26.451 61.8828C26.4406 61.8163 26.4565 61.7483 26.4954 61.6934C26.5342 61.6384 26.593 61.6007 26.6591 61.5883C26.6921 61.5825 26.726 61.5833 26.7587 61.5906C26.7914 61.5979 26.8224 61.6117 26.8497 61.631C26.8771 61.6504 26.9004 61.675 26.9182 61.7034C26.936 61.7318 26.9481 61.7634 26.9536 61.7965C27.6034 65.4518 24.0141 66.1473 23.9735 66.1574H23.9278Z" fill="white"/>
<path id="Vector_58" d="M78.6453 38.9258C78.1879 42.3343 77.0465 45.6152 75.2895 48.5717C74.9291 49.2012 74.5331 49.8408 74.1066 50.4754C72.3989 52.9352 70.2404 55.0489 67.7454 56.7046C67.913 56.593 67.5474 53.2575 67.5677 52.7905C67.588 52.3234 67.7353 51.8106 67.7454 51.3537C67.7454 50.6937 67.3494 50.0845 67.2377 49.4296C67.1444 48.9274 67.1772 48.4099 67.3331 47.9234C67.4891 47.437 67.7633 46.9968 68.1313 46.6425C67.8977 46.5545 67.7033 46.3859 67.5832 46.1671C67.4631 45.9483 67.4252 45.6937 67.4763 45.4494C67.5926 44.9629 67.8699 44.53 68.2633 44.2209C69.3081 43.244 70.5369 42.4847 71.8779 41.9871C72.0733 41.8916 72.2957 41.8665 72.5074 41.916C72.7308 42.0023 72.8476 42.246 73.0557 42.3628C73.5076 42.6268 74.0406 42.1851 74.4518 41.8551C74.8631 41.5251 75.655 41.3931 75.7769 41.9008C75.7595 41.5134 75.8216 41.1267 75.9592 40.7642C76.0969 40.4017 76.3072 40.0712 76.5773 39.7931C76.8474 39.5149 77.1715 39.2949 77.5298 39.1466C77.888 38.9984 78.2728 38.9249 78.6605 38.9309L78.6453 38.9258Z" fill="white"/>
<path id="Vector_59" d="M67.7455 56.9735C67.701 56.9732 67.6575 56.9613 67.6191 56.9389C67.5807 56.9165 67.5489 56.8844 67.5268 56.8459C67.5047 56.8073 67.4931 56.7637 67.4932 56.7192C67.4932 56.6748 67.5049 56.6312 67.5272 56.5927C67.5275 55.7804 67.4852 54.9687 67.4002 54.1609C67.3444 53.4299 67.3089 52.9679 67.3139 52.7953C67.3291 52.5466 67.3596 52.299 67.4053 52.0541C67.45 51.8262 67.4788 51.5955 67.4916 51.3636C67.4719 50.9996 67.3823 50.6428 67.2276 50.3127C67.1218 50.0473 67.0369 49.774 66.9738 49.4954C66.8846 49.01 66.9034 48.5109 67.0289 48.0335C67.1544 47.5562 67.3834 47.1124 67.6998 46.7336C67.507 46.5796 67.3584 46.3773 67.2692 46.1472C67.18 45.9171 67.1534 45.6675 67.1921 45.4238C67.3122 44.878 67.6193 44.3913 68.0602 44.048C69.1281 43.0483 70.3845 42.2717 71.7561 41.7634C72.0099 41.6437 72.2986 41.6202 72.5684 41.6974C72.7217 41.7655 72.8572 41.868 72.9644 41.997C73.0174 42.0594 73.079 42.1141 73.1472 42.1594C73.4365 42.327 73.8731 41.9817 74.2234 41.7025C74.3985 41.5517 74.6056 41.4427 74.829 41.3838C75.0524 41.3249 75.2863 41.3175 75.5129 41.3624C75.6166 40.6964 75.9299 40.0808 76.4074 39.6051C76.8849 39.1294 77.5017 38.8185 78.1681 38.7174C78.3202 38.7068 78.4729 38.7068 78.625 38.7174C78.6606 38.7163 78.6961 38.723 78.7289 38.737C78.7616 38.7511 78.7909 38.7722 78.8146 38.7988C78.8384 38.8255 78.856 38.857 78.8662 38.8912C78.8764 38.9253 78.879 38.9613 78.8738 38.9966C78.406 42.4374 77.2547 45.7498 75.4875 48.7389C75.1169 49.3888 74.7159 50.0335 74.2996 50.6579C72.5763 53.1454 70.395 55.2819 67.8724 56.9532C67.832 56.9689 67.7887 56.9758 67.7455 56.9735ZM72.3146 42.1544C72.1908 42.1649 72.0693 42.194 71.9541 42.2407C70.6454 42.7282 69.4462 43.4701 68.4258 44.4237C68.0729 44.6951 67.8223 45.078 67.715 45.5101C67.6767 45.6921 67.7029 45.8818 67.789 46.0466C67.8752 46.2114 68.0159 46.3412 68.1871 46.4138C68.2305 46.4254 68.2699 46.4485 68.3012 46.4807C68.3325 46.5128 68.3545 46.5529 68.3648 46.5965C68.3764 46.6406 68.3759 46.6869 68.3634 46.7306C68.3509 46.7744 68.3268 46.814 68.2938 46.8453C67.9604 47.1693 67.7115 47.5702 67.569 48.0127C67.4265 48.4553 67.3947 48.926 67.4764 49.3837C67.5325 49.6338 67.6107 49.8784 67.7099 50.1147C67.8874 50.5083 67.9873 50.9323 68.0044 51.3636C67.9912 51.6192 67.9606 51.8737 67.913 52.1251C67.8702 52.3482 67.8414 52.5737 67.8267 52.8003C67.8267 52.9527 67.8673 53.5162 67.913 54.1051C67.9942 55.156 68.0399 55.7957 68.0501 56.1916C70.3364 54.6051 72.3191 52.6207 73.9036 50.333C74.3148 49.7187 74.7108 49.0841 75.0763 48.4445C76.7472 45.6016 77.8586 42.4653 78.3509 39.2047H78.2493C77.6151 39.3074 77.0394 39.6357 76.628 40.1291C76.2166 40.6226 75.9973 41.2481 76.0105 41.8904C76.0199 41.9577 76.0022 42.026 75.9612 42.0803C75.9203 42.1345 75.8595 42.1703 75.7922 42.1797C75.7248 42.1892 75.6565 42.1715 75.6023 42.1305C75.548 42.0896 75.5122 42.0288 75.5028 41.9614C75.4957 41.9313 75.4807 41.9036 75.4592 41.8813C75.4378 41.859 75.4108 41.8428 75.3809 41.8345C75.2394 41.8123 75.0948 41.8202 74.9565 41.8578C74.8183 41.8954 74.6895 41.9619 74.5788 42.0528C74.0965 42.4387 73.4873 42.926 72.8933 42.5605C72.7851 42.4923 72.6876 42.4084 72.6039 42.3117C72.5436 42.2386 72.4695 42.1782 72.3856 42.134C72.3604 42.1301 72.3347 42.1301 72.3095 42.134L72.3146 42.1544Z" fill="#F47B20"/>
<path id="Vector_60" d="M75.3046 48.5665C74.9441 49.196 74.5481 49.8357 74.1217 50.4703C71.7204 54.0545 68.06 56.8112 64.7652 58.4713C63.5542 59.0983 62.2816 59.5984 60.9678 59.9639C60.2976 59.0247 60.1098 57.725 60.6784 56.2121C61.577 53.821 64.8464 53.4453 67.0599 53.4707C66.9685 52.6127 66.7045 51.7496 66.933 50.8714C67.1614 49.9931 67.9483 49.2163 68.8317 49.3483C69.0754 49.3483 69.3394 49.46 69.5475 49.3229C69.6862 49.1846 69.7799 49.0077 69.8166 48.8153C69.9457 48.4567 70.1557 48.1327 70.4305 47.8685C70.7052 47.6044 71.0372 47.4072 71.4005 47.2922C72.1038 47.0856 72.8532 47.0967 73.5501 47.3242C74.2469 47.5516 74.8586 47.9847 75.3046 48.5665Z" fill="white"/>
<path id="Vector_61" d="M60.9527 60.2175C60.9122 60.217 60.8723 60.207 60.8362 60.1885C60.8001 60.17 60.7687 60.1435 60.7446 60.1109C60.3615 59.5267 60.1315 58.8555 60.0756 58.1591C60.0197 57.4628 60.1398 56.7635 60.4247 56.1257C61.3132 53.7599 64.2983 53.2268 66.7555 53.2167C66.7555 53.0948 66.7199 52.973 66.6996 52.8511C66.5509 52.1833 66.5423 51.4918 66.6742 50.8204C66.9179 49.8711 67.8013 48.9623 68.8471 49.0842H69.0096C69.1333 49.1242 69.2665 49.1242 69.3903 49.0842C69.4614 49.0385 69.4969 48.9014 69.5375 48.7593V48.6933C69.6769 48.2941 69.9066 47.9325 70.2086 47.6366C70.5106 47.3407 70.8769 47.1186 71.2789 46.9875C72.0385 46.7657 72.848 46.7831 73.5973 47.0374C74.3467 47.2918 74.9995 47.7706 75.4672 48.409C75.497 48.4504 75.513 48.5001 75.513 48.5511C75.513 48.6021 75.497 48.6518 75.4672 48.6933C75.0966 49.3431 74.6955 49.9878 74.2792 50.6123C71.8475 54.0521 68.5969 56.8316 64.8212 58.6996C63.5964 59.3391 62.3084 59.8495 60.9781 60.2226L60.9527 60.2175ZM66.8316 53.7243C64.5217 53.7243 61.699 54.1863 60.9019 56.3033C60.6623 56.8376 60.5521 57.4209 60.5803 58.0057C60.6086 58.5906 60.7744 59.1606 61.0644 59.6692C62.2913 59.309 63.4813 58.8331 64.6181 58.2477C68.3164 56.4184 71.5007 53.6965 73.8833 50.328C74.264 49.7645 74.6245 49.1806 74.9646 48.5917C74.5526 48.0821 74.0003 47.7043 73.376 47.5049C72.7517 47.3055 72.0826 47.2933 71.4515 47.4698C71.1246 47.5726 70.8261 47.75 70.5794 47.9878C70.3327 48.2257 70.1447 48.5176 70.03 48.8405V48.9014C69.9885 49.1353 69.8664 49.3473 69.6848 49.5005C69.5728 49.5649 69.4491 49.6062 69.3209 49.6219C69.1927 49.6376 69.0627 49.6274 68.9385 49.5919H68.7963C68.0297 49.5005 67.3596 50.2264 67.1718 50.9473C67.0543 51.5556 67.0664 52.1819 67.2073 52.7851C67.2428 53.0085 67.2784 53.2319 67.3038 53.4604C67.3068 53.4961 67.3025 53.5321 67.2912 53.5661C67.2798 53.6002 67.2616 53.6316 67.2378 53.6583C67.2127 53.6841 67.1827 53.7045 67.1495 53.7185C67.1164 53.7324 67.0808 53.7396 67.0448 53.7396L66.8316 53.7243Z" fill="#F47B20"/>
<path id="Vector_62" d="M64.5319 58.0804C64.5836 58.2214 64.6573 58.3534 64.7502 58.4713C63.0701 59.3885 61.2357 59.9891 59.3384 60.2431C59.5684 59.8497 59.7039 59.4083 59.7344 58.9536C59.7344 57.9383 58.0133 57.6743 57.8357 55.8263C57.7796 55.3025 57.8644 54.7731 58.0812 54.293C58.2981 53.8128 58.6392 53.3993 59.0693 53.095L59.3587 53.0442L63.08 52.3589C63.5914 52.4918 64.0578 52.7591 64.431 53.1332C64.8042 53.5072 65.0704 53.9744 65.2021 54.4861C65.6844 56.2731 64.1613 57.1158 64.5319 58.0804Z" fill="white"/>
<path id="Vector_63" d="M59.3382 60.4967C59.2969 60.4973 59.2561 60.4873 59.2197 60.4678C59.1833 60.4482 59.1524 60.4197 59.13 60.385C59.1078 60.3464 59.096 60.3026 59.096 60.2581C59.096 60.2135 59.1078 60.1698 59.13 60.1312C59.3412 59.7717 59.4679 59.369 59.5006 58.9534C59.5006 58.6335 59.2569 58.3949 58.866 58.0345C58.4601 57.7352 58.1316 57.3431 57.908 56.8911C57.6844 56.439 57.5721 55.94 57.5805 55.4357C57.589 54.9315 57.7179 54.4365 57.9565 53.9922C58.1952 53.5479 58.5366 53.1671 58.9523 52.8815C58.9809 52.8653 59.0117 52.8534 59.0437 52.846L63.0544 52.1099H63.1204C63.6099 52.231 64.0635 52.4671 64.4435 52.7986C64.8236 53.13 65.1192 53.5473 65.3058 54.0158C65.4924 54.4843 65.5646 54.9905 65.5166 55.4925C65.4685 55.9945 65.3014 56.4778 65.0292 56.9023C64.7856 57.3796 64.6434 57.6842 64.7602 57.9888C64.8029 58.1095 64.8646 58.2226 64.9429 58.3238C64.9646 58.3534 64.9795 58.3874 64.9865 58.4234C64.9936 58.4593 64.9925 58.4964 64.9836 58.532C64.9747 58.5677 64.9584 58.6011 64.9356 58.63C64.9128 58.6589 64.8842 58.6826 64.8516 58.6995C63.1425 59.6302 61.2772 60.2393 59.3483 60.4967H59.3382ZM59.1656 53.3384C58.7857 53.6182 58.4863 53.993 58.2973 54.4253C58.1084 54.8575 58.0366 55.3319 58.0893 55.8007C58.1368 56.1692 58.2585 56.5243 58.4469 56.8445C58.6354 57.1647 58.8868 57.4434 59.1859 57.6639C59.4061 57.8067 59.5921 57.9963 59.7307 58.2192C59.8694 58.442 59.9572 58.6927 59.988 58.9534C59.978 59.2952 59.9003 59.6317 59.7596 59.9433C61.371 59.6522 62.9299 59.1218 64.3845 58.3695C64.3489 58.3043 64.3183 58.2364 64.2931 58.1665C64.09 57.6588 64.3337 57.1511 64.5825 56.6739C64.7853 56.3649 64.9228 56.0177 64.9865 55.6537C65.0503 55.2896 65.0389 54.9164 64.9531 54.5569C64.8393 54.097 64.6054 53.6757 64.2754 53.3358C63.9453 52.996 63.531 52.7499 63.0747 52.6226L59.1656 53.3384Z" fill="#F47B20"/>
<path id="Vector_64" d="M62.6929 50.2483L58.9673 50.9287L59.3549 53.0512L63.0806 52.3708L62.6929 50.2483Z" fill="white"/>
<path id="Vector_65" d="M59.3586 53.2981C59.3061 53.2978 59.2548 53.2819 59.2114 53.2524C59.1846 53.2334 59.1618 53.2092 59.1444 53.1813C59.1269 53.1534 59.1152 53.1224 59.1099 53.0899L58.7189 50.9678C58.7131 50.9348 58.7139 50.901 58.7212 50.8683C58.7286 50.8355 58.7423 50.8046 58.7616 50.7772C58.781 50.7499 58.8056 50.7266 58.834 50.7088C58.8624 50.6909 58.894 50.6789 58.9271 50.6734L62.6484 49.9931C62.7155 49.9807 62.7848 49.9953 62.8413 50.0337C62.8683 50.0525 62.8912 50.0766 62.9087 50.1045C62.9261 50.1325 62.9377 50.1636 62.9428 50.1962L63.3337 52.3183C63.3456 52.3842 63.3309 52.4522 63.2929 52.5073C63.2548 52.5625 63.1965 52.6004 63.1307 52.6127L59.4043 53.293L59.3586 53.2981ZM59.2672 51.1252L59.5617 52.7498L62.7854 52.1609L62.491 50.5363L59.2672 51.1252Z" fill="#F47B20"/>
<path id="Vector_66" d="M71.6393 44.6928C71.5898 44.6918 71.5416 44.6766 71.5004 44.649C71.4592 44.6215 71.4268 44.5827 71.407 44.5372C71.3872 44.4918 71.3809 44.4416 71.3888 44.3927C71.3967 44.3438 71.4184 44.2982 71.4515 44.2612C71.9182 43.6975 72.5475 43.2916 73.2535 43.099C73.9595 42.9063 74.7078 42.9364 75.3961 43.185C75.4581 43.2126 75.5065 43.2636 75.5308 43.3269C75.5551 43.3903 75.5532 43.4606 75.5256 43.5226C75.498 43.5845 75.4469 43.6329 75.3836 43.6572C75.3203 43.6815 75.2499 43.6796 75.188 43.652C75.1169 43.6165 73.4213 42.8956 71.8272 44.6115C71.7774 44.6618 71.7101 44.6909 71.6393 44.6928Z" fill="#D1D3D4"/>
<path id="Vector_67" d="M68.7964 54.7196C68.734 54.7201 68.6736 54.6975 68.6268 54.6563C68.58 54.6151 68.55 54.5582 68.5425 54.4962C68.3553 53.399 68.4585 52.2718 68.8421 51.2268C69.0469 50.6835 69.3929 50.2047 69.8445 49.8397C70.296 49.4747 70.8367 49.2368 71.4109 49.1504C71.4441 49.1462 71.4779 49.1488 71.51 49.1582C71.5421 49.1676 71.572 49.1835 71.5977 49.2049C71.6234 49.2264 71.6445 49.2529 71.6595 49.2828C71.6745 49.3127 71.6832 49.3454 71.685 49.3789C71.6885 49.4119 71.6854 49.4454 71.6757 49.4772C71.666 49.5091 71.6501 49.5386 71.6288 49.5642C71.6075 49.5898 71.5812 49.6108 71.5517 49.6261C71.5221 49.6413 71.4898 49.6505 71.4566 49.653C70.9749 49.7311 70.5226 49.9358 70.1462 50.2463C69.7697 50.5567 69.4826 50.9617 69.3142 51.4197C68.9616 52.3839 68.8688 53.4239 69.0451 54.4353C69.0538 54.5019 69.0357 54.5693 68.9947 54.6226C68.9538 54.6759 68.8934 54.7108 68.8268 54.7196H68.7964Z" fill="#D1D3D4"/>
<path id="Vector_68" d="M63.9683 49.6223C63.9349 49.621 63.9022 49.6131 63.8719 49.5991C63.8416 49.5851 63.8143 49.5653 63.7917 49.5408C63.7691 49.5163 63.7515 49.4875 63.74 49.4562C63.7284 49.4249 63.7232 49.3916 63.7246 49.3583C63.7637 48.8107 63.9792 48.2906 64.3389 47.8759C64.6808 47.486 65.0817 47.1519 65.5268 46.8859C65.5833 46.8537 65.6499 46.8444 65.7131 46.8598C65.7762 46.8753 65.831 46.9144 65.8661 46.9691C65.9013 47.0238 65.9141 47.0899 65.902 47.1537C65.8899 47.2176 65.8537 47.2743 65.801 47.3123C65.3994 47.5502 65.0378 47.8501 64.7298 48.2008C64.4368 48.5296 64.2586 48.9447 64.2221 49.3837C64.2171 49.4479 64.1882 49.5079 64.1413 49.552C64.0944 49.5962 64.0327 49.6212 63.9683 49.6223Z" fill="#D1D3D4"/>
<path id="Vector_69" d="M68.7048 79.8496C68.6641 79.8502 68.6238 79.8408 68.5875 79.8222C68.5512 79.8037 68.52 79.7764 68.4967 79.743C68.4587 79.6874 68.4438 79.6193 68.4551 79.5529C68.4665 79.4866 68.5033 79.4273 68.5576 79.3876C77.0105 73.4325 80.3205 51.0135 80.351 50.7901C80.3604 50.7228 80.3962 50.662 80.4504 50.621C80.5047 50.5801 80.573 50.5624 80.6403 50.5718C80.7077 50.5812 80.7685 50.617 80.8094 50.6713C80.8504 50.7256 80.8681 50.7939 80.8586 50.8612C80.2136 54.9613 79.3063 59.0157 78.1426 62.9998C75.6042 71.5897 72.487 77.2452 68.8572 79.8039C68.8123 79.8344 68.7591 79.8504 68.7048 79.8496Z" fill="#D1D3D4"/>
<path id="Vector_70" d="M64.8364 91.3992C63.0666 91.3913 61.3249 90.9558 59.7596 90.13C59.7017 90.095 59.6601 90.0385 59.6439 89.9728C59.6277 89.9071 59.6383 89.8376 59.6733 89.7797C59.7083 89.7218 59.7649 89.6802 59.8306 89.664C59.8962 89.6478 59.9657 89.6584 60.0236 89.6934C60.3333 89.8762 67.6793 94.1051 73.2232 85.83C73.2604 85.7744 73.3181 85.7357 73.3837 85.7224C73.4493 85.709 73.5175 85.7222 73.5735 85.7589C73.6295 85.7971 73.6683 85.8557 73.6816 85.9221C73.6949 85.9885 73.6816 86.0575 73.6446 86.1143C70.8523 90.3077 67.527 91.3992 64.8364 91.3992Z" fill="#D1D3D4"/>
<path id="Vector_71" d="M140.064 101.487C139.997 101.487 139.932 101.46 139.885 101.412C139.837 101.365 139.81 101.3 139.81 101.233C139.81 99.2021 139.242 97.6791 138.12 96.7095C136.323 95.1204 133.667 95.42 133.642 95.425C133.575 95.4338 133.507 95.4154 133.453 95.374C133.399 95.3326 133.364 95.2715 133.355 95.2042C133.346 95.1369 133.365 95.0688 133.406 95.015C133.448 94.9612 133.509 94.9261 133.576 94.9174C133.698 94.9174 136.48 94.5772 138.455 96.3236C139.694 97.4151 140.318 99.0651 140.318 101.228C140.319 101.262 140.313 101.295 140.3 101.326C140.288 101.358 140.269 101.386 140.245 101.411C140.222 101.435 140.194 101.454 140.162 101.467C140.131 101.48 140.098 101.487 140.064 101.487Z" fill="#D1D3D4"/>
<path id="Vector_72" d="M6.06767 107.157C3.3059 107.157 0.173535 102.538 0.0415389 102.34C0.0144134 102.297 0 102.248 0 102.197C0 102.147 0.0144134 102.098 0.0415389 102.055C0.0711682 102.015 0.111613 101.983 0.158279 101.964C0.204945 101.945 0.255961 101.94 0.305531 101.949C2.26009 102.355 4.60048 103.609 6.22505 104.599C4.05378 101.973 2.57071 98.8485 1.90979 95.5063C1.903 95.4656 1.9064 95.424 1.91969 95.385C1.93298 95.346 1.95575 95.3109 1.98594 95.2829C2.01722 95.2549 2.05472 95.2348 2.09534 95.2242C2.13595 95.2136 2.17851 95.2128 2.21948 95.222C5.61076 96.0698 7.7227 99.4865 8.91066 102.258C8.20993 98.1364 8.00201 93.9457 8.2913 89.7746C8.29559 89.7246 8.31459 89.677 8.34591 89.6378C8.37722 89.5987 8.41944 89.5696 8.46724 89.5544C8.51504 89.5392 8.56627 89.5385 8.61447 89.5524C8.66267 89.5663 8.70567 89.5941 8.73805 89.6324C14.6017 96.5013 13.6219 106.025 13.6118 106.122C13.6093 106.155 13.6 106.188 13.5844 106.218C13.5688 106.247 13.5472 106.274 13.5209 106.294C13.4947 106.315 13.4645 106.331 13.432 106.34C13.3996 106.348 13.3657 106.35 13.3325 106.345C13.266 106.338 13.2052 106.304 13.1633 106.252C13.1215 106.199 13.102 106.133 13.1092 106.066C13.1092 105.975 14.023 97.0953 8.74821 90.4447C8.49147 95.6445 8.9631 100.855 10.1494 105.924C10.1494 105.985 10.1494 106.02 10.1494 106.041C10.1642 106.108 10.1517 106.178 10.1145 106.236C10.0774 106.294 10.0187 106.335 9.9514 106.35C9.88408 106.365 9.81363 106.353 9.75556 106.315C9.69748 106.278 9.65653 106.22 9.64172 106.152V106.117C9.49449 105.508 7.49424 97.4608 2.45808 95.8261C2.76777 97.273 4.10803 102.34 8.19484 105.904C8.24415 105.947 8.27487 106.007 8.28055 106.073C8.28622 106.138 8.26643 106.203 8.2253 106.254C8.18518 106.305 8.12656 106.339 8.06201 106.347C7.99747 106.356 7.93216 106.339 7.88008 106.299C7.83947 106.299 3.95066 103.517 0.833516 102.614C1.75241 103.837 4.07758 106.65 6.03721 106.65C6.10413 106.651 6.16794 106.678 6.21526 106.726C6.26259 106.773 6.28975 106.837 6.29105 106.904C6.2915 106.966 6.26898 107.026 6.22778 107.073C6.18658 107.12 6.12958 107.15 6.06767 107.157Z" fill="#D1D3D4"/>
</g>
</svg>
