<svg width="24" height="24" viewBox="0 0 24 24" fill="none" xmlns="http://www.w3.org/2000/svg">
<g id="key-2-line" clip-path="url(#clip0_375_8502)">
<path id="Vector" d="M10.758 11.8275L18.607 3.97852L20.021 5.39252L18.607 6.80752L21.081 9.28152L19.667 10.6965L17.192 8.22152L15.778 9.63552L17.899 11.7565L16.485 13.1715L14.364 11.0495L12.172 13.2415C12.8524 14.2755 13.1253 15.5251 12.9379 16.7486C12.7505 17.9722 12.116 19.0828 11.1573 19.8657C10.1985 20.6485 8.98348 21.0481 7.74717 20.9872C6.51086 20.9262 5.34107 20.409 4.46399 19.5355C3.58502 18.6598 3.06302 17.4886 2.99945 16.2495C2.93587 15.0104 3.33527 13.792 4.12 12.8309C4.90474 11.8699 6.01876 11.235 7.24555 11.0495C8.47234 10.8641 9.72426 11.1414 10.758 11.8275ZM10.121 18.1205C10.4123 17.845 10.6454 17.5138 10.8066 17.1466C10.9677 16.7795 11.0536 16.3837 11.0592 15.9827C11.0648 15.5818 10.9899 15.1838 10.839 14.8123C10.6882 14.4408 10.4643 14.1032 10.1808 13.8197C9.89726 13.5362 9.55976 13.3123 9.18823 13.1615C8.81671 13.0106 8.41872 12.9357 8.01777 12.9413C7.61682 12.9469 7.22106 13.0328 6.85387 13.1939C6.48669 13.3551 6.15554 13.5882 5.87999 13.8795C5.33352 14.4453 5.03114 15.2031 5.03797 15.9897C5.04481 16.7763 5.36031 17.5287 5.91654 18.085C6.47276 18.6412 7.2252 18.9567 8.01179 18.9635C8.79838 18.9704 9.55619 18.668 10.122 18.1215L10.121 18.1205Z" fill="#F47B20"/>
</g>
<defs>
<clipPath id="clip0_375_8502">
<rect width="24" height="24" fill="white"/>
</clipPath>
</defs>
</svg>
