<svg width="24" height="24" viewBox="0 0 24 24" fill="none" xmlns="http://www.w3.org/2000/svg">
<g id="material-symbols:light-outline">
<path id="Vector" d="M12 21C10.9 21 9.95833 20.6083 9.175 19.825C8.39167 19.0417 8 18.1 8 17H5C4.45 17 3.979 16.8043 3.587 16.413C3.19567 16.021 3 15.55 3 15C3 12.6667 3.76667 10.6543 5.3 8.963C6.83333 7.271 8.73333 6.3 11 6.05V3H13V6.05C15.2667 6.3 17.1667 7.271 18.7 8.963C20.2333 10.6543 21 12.6667 21 15C21 15.55 20.8043 16.021 20.413 16.413C20.021 16.8043 19.55 17 19 17H16C16 18.1 15.6083 19.0417 14.825 19.825C14.0417 20.6083 13.1 21 12 21ZM5 15H19C19 13.0667 18.3167 11.4167 16.95 10.05C15.5833 8.68333 13.9333 8 12 8C10.0667 8 8.41667 8.68333 7.05 10.05C5.68333 11.4167 5 13.0667 5 15ZM12 19C12.55 19 13.021 18.8043 13.413 18.413C13.8043 18.021 14 17.55 14 17H10C10 17.55 10.196 18.021 10.588 18.413C10.9793 18.8043 11.45 19 12 19Z" fill="#F47B20"/>
</g>
</svg>
