<svg width="32" height="32" viewBox="0 0 32 32" fill="none" xmlns="http://www.w3.org/2000/svg">
<g id="material-symbols:light-outline">
<path id="Vector" d="M16 28C14.5333 28 13.2778 27.4778 12.2333 26.4333C11.1889 25.3889 10.6667 24.1333 10.6667 22.6667H6.66667C5.93333 22.6667 5.30533 22.4058 4.78267 21.884C4.26089 21.3613 4 20.7333 4 20C4 16.8889 5.02222 14.2058 7.06667 11.9507C9.11111 9.69467 11.6444 8.4 14.6667 8.06667V4H17.3333V8.06667C20.3556 8.4 22.8889 9.69467 24.9333 11.9507C26.9778 14.2058 28 16.8889 28 20C28 20.7333 27.7391 21.3613 27.2173 21.884C26.6947 22.4058 26.0667 22.6667 25.3333 22.6667H21.3333C21.3333 24.1333 20.8111 25.3889 19.7667 26.4333C18.7222 27.4778 17.4667 28 16 28ZM6.66667 20H25.3333C25.3333 17.4222 24.4222 15.2222 22.6 13.4C20.7778 11.5778 18.5778 10.6667 16 10.6667C13.4222 10.6667 11.2222 11.5778 9.4 13.4C7.57778 15.2222 6.66667 17.4222 6.66667 20ZM16 25.3333C16.7333 25.3333 17.3613 25.0724 17.884 24.5507C18.4058 24.028 18.6667 23.4 18.6667 22.6667H13.3333C13.3333 23.4 13.5947 24.028 14.1173 24.5507C14.6391 25.0724 15.2667 25.3333 16 25.3333Z" fill="#DD1E25"/>
</g>
</svg>
