<svg width="512" height="512" viewBox="0 0 512 512" fill="none" xmlns="http://www.w3.org/2000/svg">
<rect width="512" height="512" rx="86" fill="#F47B20"/>
<g filter="url(#filter0_d_207_595)">
<rect x="24" y="24" width="464" height="464" rx="64" fill="url(#paint0_linear_207_595)"/>
</g>
<g filter="url(#filter1_d_207_595)">
<path fill-rule="evenodd" clip-rule="evenodd" d="M141.854 409.022V426.717H130V385.673C130 373.642 135.8 363.618 147.475 358.666C151.698 356.886 156.258 355.979 160.864 356.002C164.87 355.951 168.845 356.7 172.54 358.202C176.234 359.703 179.571 361.926 182.34 364.731C185.205 367.467 187.47 370.735 188.997 374.34C190.525 377.945 191.284 381.813 191.228 385.709C191.301 389.645 190.557 393.556 189.04 397.208C187.523 400.86 185.264 404.18 182.397 406.97C179.663 409.787 176.355 412.024 172.682 413.537C169.01 415.051 165.052 415.808 161.061 415.763C154.01 415.863 147.167 413.44 141.845 408.958L141.854 409.022ZM205.135 356.039C206.124 356.03 207.104 356.213 208.02 356.576C208.935 356.94 209.766 357.476 210.464 358.155C211.184 358.826 211.754 359.632 212.139 360.525C212.525 361.418 212.717 362.377 212.705 363.345C212.685 365.274 211.885 367.119 210.477 368.483C209.068 369.848 207.164 370.623 205.172 370.642C204.175 370.652 203.186 370.465 202.267 370.092C201.347 369.719 200.516 369.167 199.824 368.471C198.769 367.449 198.05 366.147 197.759 364.729C197.469 363.311 197.62 361.841 198.193 360.507C198.766 359.172 199.735 358.032 200.977 357.232C202.22 356.432 203.68 356.007 205.172 356.012L205.135 356.039ZM199.203 374.6H211.132V426.945H199.203V374.6ZM231.507 374.6H244.359V385.171H231.554V405.009C231.47 408.092 231.931 413.081 235.151 414.686C237.571 415.899 241.196 416.337 243.681 415.042L246.195 413.738L247.137 416.337C247.833 418.161 248.521 419.986 249.274 421.81L250.216 424.072L247.862 424.984C244.476 426.336 240.847 427.021 237.185 427C230.735 426.644 225.51 423.999 222.12 418.535C219.992 414.887 219.418 410.199 219.484 406.076V356.03H231.422V374.591L231.507 374.6ZM260.535 356.039C261.524 356.03 262.505 356.212 263.42 356.576C264.335 356.939 265.166 357.476 265.864 358.155C266.565 358.834 267.121 359.64 267.501 360.528C267.88 361.415 268.075 362.366 268.075 363.327C268.075 364.287 267.88 365.238 267.501 366.125C267.121 367.013 266.565 367.819 265.864 368.498C265.163 369.177 264.331 369.716 263.415 370.083C262.499 370.451 261.517 370.64 260.525 370.64C259.534 370.64 258.552 370.451 257.636 370.083C256.72 369.716 255.888 369.177 255.187 368.498C254.131 367.476 253.412 366.174 253.122 364.756C252.831 363.338 252.982 361.869 253.555 360.534C254.128 359.199 255.097 358.059 256.34 357.259C257.583 356.459 259.043 356.034 260.535 356.039ZM254.594 374.6H266.495V426.945H254.594V374.6ZM287.783 391.994L308.393 374.664H326L300.87 396.773L323.787 426.945H308.111L290.683 403.851L287.783 406.167V426.936H275.844V356.03H287.783V391.994ZM160.289 367.258C157.786 367.205 155.298 367.658 152.985 368.587C150.672 369.517 148.583 370.903 146.854 372.657C145.037 374.44 143.613 376.561 142.668 378.892C141.723 381.224 141.276 383.716 141.355 386.22C141.307 389.552 142.151 392.838 143.803 395.76C145.425 398.575 147.833 400.889 150.751 402.437C153.684 404.074 157.008 404.936 160.393 404.936C163.673 404.942 166.894 404.088 169.714 402.464C172.651 400.8 175.064 398.391 176.691 395.496C178.395 392.616 179.297 389.357 179.308 386.038C179.311 382.734 178.418 379.489 176.719 376.625C175.09 373.776 172.704 371.401 169.808 369.748C166.929 368.093 163.637 367.232 160.289 367.258Z" fill="white"/>
<path d="M197.305 439.504H188.677C188.52 438.401 188.198 437.421 187.712 436.564C187.226 435.695 186.602 434.955 185.84 434.345C185.079 433.735 184.199 433.267 183.201 432.943C182.216 432.619 181.146 432.456 179.99 432.456C177.902 432.456 176.083 432.969 174.533 433.994C172.984 435.007 171.782 436.486 170.928 438.433C170.075 440.367 169.648 442.716 169.648 445.481C169.648 448.323 170.075 450.711 170.928 452.645C171.795 454.579 173.003 456.039 174.553 457.025C176.103 458.012 177.895 458.505 179.931 458.505C181.073 458.505 182.13 458.355 183.102 458.057C184.087 457.758 184.961 457.324 185.722 456.753C186.484 456.169 187.114 455.461 187.613 454.631C188.126 453.8 188.48 452.852 188.677 451.788L197.305 451.827C197.082 453.657 196.524 455.422 195.631 457.123C194.751 458.81 193.562 460.322 192.065 461.659C190.581 462.982 188.808 464.034 186.747 464.812C184.698 465.578 182.38 465.961 179.793 465.961C176.195 465.961 172.977 465.156 170.14 463.547C167.317 461.938 165.084 459.608 163.443 456.558C161.814 453.508 161 449.815 161 445.481C161 441.133 161.827 437.434 163.482 434.384C165.137 431.334 167.382 429.01 170.219 427.414C173.056 425.805 176.247 425 179.793 425C182.13 425 184.297 425.324 186.294 425.973C188.303 426.622 190.082 427.57 191.632 428.816C193.182 430.049 194.442 431.561 195.414 433.352C196.399 435.143 197.03 437.194 197.305 439.504Z" fill="white"/>
<path d="M215.826 466C212.766 466 210.12 465.358 207.887 464.073C205.668 462.775 203.954 460.971 202.746 458.66C201.538 456.337 200.933 453.644 200.933 450.581C200.933 447.492 201.538 444.793 202.746 442.482C203.954 440.159 205.668 438.355 207.887 437.07C210.12 435.772 212.766 435.123 215.826 435.123C218.886 435.123 221.526 435.772 223.745 437.07C225.977 438.355 227.698 440.159 228.906 442.482C230.114 444.793 230.718 447.492 230.718 450.581C230.718 453.644 230.114 456.337 228.906 458.66C227.698 460.971 225.977 462.775 223.745 464.073C221.526 465.358 218.886 466 215.826 466ZM215.865 459.575C217.257 459.575 218.42 459.186 219.352 458.407C220.284 457.616 220.987 456.538 221.46 455.176C221.946 453.813 222.189 452.262 222.189 450.523C222.189 448.784 221.946 447.233 221.46 445.87C220.987 444.507 220.284 443.43 219.352 442.638C218.42 441.846 217.257 441.451 215.865 441.451C214.46 441.451 213.278 441.846 212.319 442.638C211.374 443.43 210.658 444.507 210.172 445.87C209.7 447.233 209.463 448.784 209.463 450.523C209.463 452.262 209.7 453.813 210.172 455.176C210.658 456.538 211.374 457.616 212.319 458.407C213.278 459.186 214.46 459.575 215.865 459.575Z" fill="white"/>
<path d="M243.457 448.128V465.416H235.066V435.513H243.063V440.789H243.418C244.088 439.05 245.211 437.674 246.786 436.661C248.362 435.636 250.273 435.123 252.519 435.123C254.62 435.123 256.452 435.578 258.015 436.486C259.578 437.395 260.792 438.693 261.659 440.38C262.526 442.054 262.959 444.053 262.959 446.376V465.416H254.568V447.856C254.581 446.026 254.108 444.598 253.149 443.573C252.191 442.534 250.871 442.015 249.19 442.015C248.06 442.015 247.062 442.255 246.196 442.736C245.342 443.216 244.672 443.917 244.186 444.838C243.713 445.747 243.47 446.843 243.457 448.128Z" fill="white"/>
<path d="M276.856 448.128V465.416H268.464V435.513H276.462V440.789H276.816C277.486 439.05 278.609 437.674 280.185 436.661C281.761 435.636 283.672 435.123 285.917 435.123C288.018 435.123 289.85 435.578 291.413 436.486C292.976 437.395 294.191 438.693 295.058 440.38C295.924 442.054 296.358 444.053 296.358 446.376V465.416H287.966V447.856C287.979 446.026 287.506 444.598 286.548 443.573C285.589 442.534 284.269 442.015 282.588 442.015C281.459 442.015 280.461 442.255 279.594 442.736C278.74 443.216 278.07 443.917 277.585 444.838C277.112 445.747 276.869 446.843 276.856 448.128Z" fill="white"/>
<path d="M315.664 466C312.551 466 309.872 465.377 307.627 464.131C305.394 462.872 303.674 461.094 302.465 458.797C301.257 456.487 300.653 453.755 300.653 450.601C300.653 447.525 301.257 444.825 302.465 442.502C303.674 440.179 305.374 438.368 307.568 437.07C309.774 435.772 312.361 435.123 315.329 435.123C317.325 435.123 319.183 435.441 320.904 436.077C322.637 436.7 324.148 437.641 325.435 438.9C326.735 440.159 327.746 441.743 328.468 443.651C329.191 445.545 329.552 447.765 329.552 450.309V452.586H304.002V447.447H321.652C321.652 446.253 321.39 445.195 320.864 444.274C320.339 443.352 319.61 442.632 318.678 442.113C317.758 441.58 316.688 441.314 315.467 441.314C314.193 441.314 313.064 441.606 312.079 442.19C311.107 442.761 310.345 443.534 309.794 444.507C309.242 445.468 308.96 446.538 308.946 447.719V452.606C308.946 454.085 309.222 455.364 309.774 456.441C310.339 457.518 311.133 458.349 312.157 458.933C313.182 459.517 314.397 459.809 315.802 459.809C316.734 459.809 317.588 459.679 318.363 459.42C319.137 459.16 319.801 458.771 320.352 458.252C320.904 457.733 321.324 457.097 321.613 456.344L329.374 456.85C328.98 458.693 328.173 460.302 326.951 461.678C325.743 463.041 324.18 464.105 322.263 464.871C320.359 465.624 318.159 466 315.664 466Z" fill="white"/>
<path d="M347.577 466C344.478 466 341.812 465.351 339.58 464.053C337.36 462.742 335.653 460.925 334.458 458.602C333.276 456.279 332.685 453.605 332.685 450.581C332.685 447.518 333.282 444.832 334.477 442.521C335.686 440.198 337.4 438.388 339.619 437.09C341.838 435.779 344.478 435.123 347.538 435.123C350.178 435.123 352.489 435.597 354.472 436.545C356.455 437.492 358.024 438.822 359.18 440.536C360.336 442.249 360.973 444.261 361.091 446.571H353.172C352.949 445.078 352.358 443.878 351.399 442.969C350.453 442.048 349.212 441.587 347.676 441.587C346.376 441.587 345.24 441.937 344.268 442.638C343.309 443.326 342.561 444.332 342.022 445.656C341.484 446.98 341.215 448.582 341.215 450.464C341.215 452.372 341.477 453.995 342.003 455.331C342.541 456.668 343.296 457.687 344.268 458.388C345.24 459.089 346.376 459.439 347.676 459.439C348.635 459.439 349.495 459.245 350.256 458.855C351.031 458.466 351.668 457.901 352.167 457.161C352.679 456.409 353.014 455.507 353.172 454.455H361.091C360.96 456.74 360.329 458.751 359.2 460.491C358.083 462.217 356.54 463.566 354.57 464.54C352.601 465.513 350.27 466 347.577 466Z" fill="white"/>
<path d="M381.448 435.513V441.743H363.227V435.513H381.448ZM367.364 428.349H375.755V456.227C375.755 456.993 375.874 457.59 376.11 458.018C376.346 458.433 376.675 458.725 377.095 458.894C377.528 459.063 378.027 459.147 378.592 459.147C378.986 459.147 379.38 459.115 379.774 459.05C380.168 458.972 380.47 458.914 380.68 458.875L382 465.046C381.58 465.176 380.989 465.325 380.227 465.494C379.465 465.676 378.54 465.786 377.45 465.825C375.427 465.903 373.654 465.637 372.131 465.027C370.621 464.417 369.445 463.469 368.605 462.184C367.764 460.899 367.35 459.277 367.364 457.317V428.349Z" fill="white"/>
<path fill-rule="evenodd" clip-rule="evenodd" d="M267.42 97.2717C315.003 97.2717 349.353 137.379 362.704 177.431C377.925 223.084 369.203 279.91 327.954 310.797C310.833 323.627 290.291 330 268.57 330H266.105C244.394 330 223.852 323.627 206.73 310.797C165.452 279.872 156.721 223.037 171.942 177.385C185.341 137.212 219.691 97.2252 267.44 97.2252L267.42 97.2717ZM267.42 115.451C234.288 115.451 210.648 147.623 201.546 174.919C183.519 228.982 209.888 288.822 266.075 288.822H268.512C324.699 288.822 351.068 228.982 333.041 174.919C324.056 147.827 300.406 115.423 267.42 115.423V115.451Z" fill="white"/>
<path fill-rule="evenodd" clip-rule="evenodd" d="M203.889 119.44C193.514 106.381 203.477 87.4065 222.696 91.7909C225.339 92.08 226.341 90.5968 225.417 88.2181C219.06 66.5668 245.658 56.3056 259.66 72.0519C261.497 73.871 263.983 73.7777 264.916 71.399C265.742 38.5257 314.664 39.2533 311.618 71.2684C310.409 83.9457 295.681 91.6789 275.528 92.7237C246.621 94.123 223.904 99.9159 203.889 119.44Z" fill="white"/>
<path fill-rule="evenodd" clip-rule="evenodd" d="M180.396 160.007L135 175.867L166.423 202.505L180.396 160.007Z" fill="white"/>
<path fill-rule="evenodd" clip-rule="evenodd" d="M279.167 162.989C283.384 165.187 286.784 168.465 288.936 172.406C291.089 176.347 291.897 180.776 291.259 185.132C290.621 189.488 288.565 193.575 285.351 196.877C282.138 200.179 277.911 202.547 273.205 203.683C268.499 204.818 263.526 204.669 258.914 203.255C254.302 201.841 250.258 199.225 247.295 195.738C244.331 192.251 242.58 188.05 242.264 183.665C241.947 179.281 243.079 174.911 245.516 171.106C247.135 168.58 249.289 166.367 251.856 164.592C254.423 162.817 257.353 161.515 260.477 160.761C263.602 160.007 266.861 159.816 270.068 160.198C273.274 160.58 276.366 161.529 279.167 162.989ZM262.851 170.952C261.341 170.159 259.605 169.789 257.861 169.887C256.118 169.985 254.446 170.547 253.057 171.503C251.668 172.458 250.624 173.764 250.058 175.254C249.492 176.745 249.429 178.353 249.877 179.876C250.325 181.399 251.264 182.768 252.574 183.81C253.885 184.851 255.509 185.519 257.24 185.727C258.972 185.936 260.733 185.677 262.301 184.983C263.869 184.289 265.174 183.19 266.05 181.827C267.22 180 267.539 177.828 266.936 175.789C266.332 173.749 264.856 172.01 262.831 170.952H262.851Z" fill="white"/>
</g>
<defs>
<filter id="filter0_d_207_595" x="6" y="10" width="500" height="500" filterUnits="userSpaceOnUse" color-interpolation-filters="sRGB">
<feFlood flood-opacity="0" result="BackgroundImageFix"/>
<feColorMatrix in="SourceAlpha" type="matrix" values="0 0 0 0 0 0 0 0 0 0 0 0 0 0 0 0 0 0 127 0" result="hardAlpha"/>
<feOffset dy="4"/>
<feGaussianBlur stdDeviation="9"/>
<feComposite in2="hardAlpha" operator="out"/>
<feColorMatrix type="matrix" values="0 0 0 0 0.908333 0 0 0 0 0.327 0 0 0 0 0 0 0 0 0.8 0"/>
<feBlend mode="normal" in2="BackgroundImageFix" result="effect1_dropShadow_207_595"/>
<feBlend mode="normal" in="SourceGraphic" in2="effect1_dropShadow_207_595" result="shape"/>
</filter>
<filter id="filter1_d_207_595" x="112" y="35" width="288" height="455" filterUnits="userSpaceOnUse" color-interpolation-filters="sRGB">
<feFlood flood-opacity="0" result="BackgroundImageFix"/>
<feColorMatrix in="SourceAlpha" type="matrix" values="0 0 0 0 0 0 0 0 0 0 0 0 0 0 0 0 0 0 127 0" result="hardAlpha"/>
<feOffset dy="6"/>
<feGaussianBlur stdDeviation="9"/>
<feComposite in2="hardAlpha" operator="out"/>
<feColorMatrix type="matrix" values="0 0 0 0 0.908333 0 0 0 0 0.327 0 0 0 0 0 0 0 0 1 0"/>
<feBlend mode="normal" in2="BackgroundImageFix" result="effect1_dropShadow_207_595"/>
<feBlend mode="normal" in="SourceGraphic" in2="effect1_dropShadow_207_595" result="shape"/>
</filter>
<linearGradient id="paint0_linear_207_595" x1="-100.5" y1="-190.5" x2="772" y2="824.5" gradientUnits="userSpaceOnUse">
<stop offset="0.279483" stop-color="#F47B20"/>
<stop offset="1" stop-color="#DD1E25"/>
</linearGradient>
</defs>
</svg>
