<svg width="296" height="419" viewBox="0 0 296 419" fill="none" xmlns="http://www.w3.org/2000/svg">
<path fill-rule="evenodd" clip-rule="evenodd" d="M197.257 75.1834C267.847 75.1834 318.806 134.377 338.611 193.488C361.192 260.864 348.253 344.732 287.06 390.318C261.66 409.253 231.186 418.658 198.963 418.658H195.305C163.096 418.658 132.622 409.253 107.222 390.318C45.9853 344.677 33.0324 260.796 55.6133 193.419C75.4908 134.13 126.449 75.1148 197.286 75.1148L197.257 75.1834ZM197.257 102.013C148.105 102.013 113.034 149.494 99.5317 189.78C72.7874 269.57 111.906 357.886 195.262 357.886H198.876C282.231 357.886 321.35 269.57 294.606 189.78C281.277 149.796 246.191 101.972 197.257 101.972V102.013Z" fill="#FAFAFA"/>
<path fill-rule="evenodd" clip-rule="evenodd" d="M104.505 106.627C89.2387 87.4039 103.897 59.4755 132.174 65.929C136.063 66.3546 137.537 64.1714 136.179 60.6701C126.825 28.801 165.959 13.6972 186.559 36.8747C189.262 39.5522 192.92 39.4149 194.293 35.9135C195.507 -12.4736 267.486 -11.4026 263.004 35.7213C261.226 54.3814 239.556 65.7642 209.906 67.302C167.375 69.3617 133.952 77.8885 104.505 106.627Z" fill="#FAFAFA"/>
<path fill-rule="evenodd" clip-rule="evenodd" d="M68.1473 168.36L0 191.112L47.1711 229.325L68.1473 168.36Z" fill="#FAFAFA"/>
<path fill-rule="evenodd" clip-rule="evenodd" d="M214.779 171.257C220.821 174.575 225.692 179.519 228.776 185.466C231.86 191.413 233.018 198.094 232.104 204.666C231.19 211.238 228.244 217.404 223.64 222.386C219.036 227.368 212.98 230.941 206.238 232.654C199.496 234.367 192.37 234.142 185.762 232.009C179.154 229.875 173.361 225.929 169.115 220.668C164.869 215.407 162.36 209.068 161.906 202.454C161.453 195.839 163.075 189.245 166.567 183.505C168.886 179.694 171.972 176.354 175.65 173.676C179.328 170.998 183.525 169.034 188.002 167.897C192.479 166.76 197.148 166.471 201.742 167.048C206.337 167.624 210.767 169.055 214.779 171.257ZM191.403 183.272C189.24 182.076 186.752 181.517 184.254 181.665C181.756 181.813 179.36 182.661 177.37 184.103C175.38 185.544 173.885 187.514 173.074 189.763C172.263 192.012 172.173 194.439 172.815 196.737C173.456 199.034 174.801 201.1 176.679 202.671C178.557 204.242 180.884 205.249 183.364 205.564C185.845 205.88 188.368 205.489 190.615 204.441C192.862 203.394 194.731 201.737 195.986 199.68C197.663 196.923 198.12 193.646 197.255 190.569C196.39 187.493 194.275 184.868 191.374 183.272H191.403Z" fill="#FAFAFA"/>
<path fill-rule="evenodd" clip-rule="evenodd" d="M0 191.098L54.3126 197.113C54.6884 195.904 55.0788 194.696 55.4835 193.488C58.2816 185.222 61.6128 177.129 65.4585 169.253L0 191.098Z" fill="#FAFAFA"/>
</svg>
