<svg width="56" height="56" viewBox="0 0 56 56" fill="none" xmlns="http://www.w3.org/2000/svg">
<rect width="56" height="56" rx="8" fill="#FFF2DA"/>
<path d="M38.5294 30.3534C38.5294 34.9633 34.6123 38.7003 29.7802 38.7003C24.9482 38.7003 21.031 34.9633 21.031 30.3534C21.031 25.7435 25.6945 19.4254 29.7802 19.4254C33.7505 19.4254 38.5294 25.7435 38.5294 30.3534Z" fill="#FFF2DA"/>
<path fill-rule="evenodd" clip-rule="evenodd" d="M29.8461 18.2774C34.8011 18.2774 38.3781 22.4324 39.7683 26.5815C41.3533 31.3109 40.4451 37.1978 36.1497 40.3977C34.3668 41.7268 32.2277 42.387 29.9659 42.387H29.7092C27.4483 42.387 25.3092 41.7268 23.5264 40.3977C19.2279 37.194 18.3187 31.3061 19.9037 26.5767C21.299 22.415 24.876 18.2726 29.8482 18.2726L29.8461 18.2774ZM29.8461 20.1607C26.396 20.1607 23.9343 23.4935 22.9865 26.3213C21.1092 31.922 23.8551 38.1212 29.7061 38.1212H29.9598C35.8108 38.1212 38.5567 31.922 36.6794 26.3213C35.7438 23.5147 33.281 20.1578 29.8461 20.1578V20.1607Z" fill="#FBBF78"/>
<path fill-rule="evenodd" clip-rule="evenodd" d="M23.3357 20.4845C22.2642 19.1352 23.2931 17.1748 25.2779 17.6278C25.5509 17.6576 25.6544 17.5044 25.559 17.2586C24.9025 15.0216 27.6494 13.9614 29.0954 15.5884C29.2851 15.7763 29.5419 15.7667 29.6383 15.5209C29.7235 12.1244 34.7759 12.1996 34.4613 15.5074C34.3365 16.8172 32.8154 17.6162 30.7342 17.7241C27.7488 17.8687 25.4027 18.4672 23.3357 20.4845Z" fill="#FBBF78"/>
<path fill-rule="evenodd" clip-rule="evenodd" d="M20.7835 24.8178L16 26.4149L19.3111 29.0971L20.7835 24.8178Z" fill="#FBBF78"/>
<path fill-rule="evenodd" clip-rule="evenodd" d="M31.0758 25.021C31.4999 25.2538 31.8418 25.6009 32.0583 26.0183C32.2748 26.4358 32.356 26.9048 32.2919 27.3661C32.2277 27.8274 32.0209 28.2602 31.6978 28.6099C31.3746 28.9596 30.9495 29.2104 30.4762 29.3306C30.003 29.4509 29.5028 29.4351 29.039 29.2853C28.5752 29.1356 28.1685 28.8586 27.8705 28.4893C27.5724 28.12 27.3963 27.6751 27.3645 27.2108C27.3327 26.7464 27.4465 26.2836 27.6916 25.8807C27.8544 25.6132 28.071 25.3788 28.3292 25.1908C28.5874 25.0028 28.882 24.865 29.1962 24.7851C29.5105 24.7053 29.8382 24.685 30.1607 24.7255C30.4832 24.766 30.7941 24.8664 31.0758 25.021ZM29.4349 25.8643C29.2831 25.7804 29.1085 25.7412 28.9331 25.7515C28.7578 25.7619 28.5896 25.8215 28.4499 25.9227C28.3103 26.0239 28.2053 26.1621 28.1484 26.32C28.0915 26.4778 28.0851 26.6482 28.1302 26.8095C28.1752 26.9708 28.2696 27.1157 28.4014 27.226C28.5333 27.3363 28.6966 27.407 28.8707 27.4291C29.0448 27.4512 29.2219 27.4238 29.3796 27.3503C29.5373 27.2768 29.6685 27.1605 29.7566 27.0161C29.8744 26.8226 29.9064 26.5925 29.8457 26.3766C29.785 26.1606 29.6365 25.9764 29.4329 25.8643H29.4349Z" fill="#FBBF78"/>
<path fill-rule="evenodd" clip-rule="evenodd" d="M16 26.4137L19.8124 26.8358C19.8388 26.751 19.8662 26.6662 19.8946 26.5814C20.091 26.0012 20.3248 25.4331 20.5947 24.8802L16 26.4137Z" fill="#FDDAA5"/>
<path fill-rule="evenodd" clip-rule="evenodd" d="M32.6659 37.6297L32.5228 37.6846L32.4498 37.7116C32.3923 37.7322 32.3344 37.7521 32.2763 37.7714L32.2255 37.7877C32.1636 37.808 32.1007 37.8273 32.0368 37.8456L31.9911 37.8591C31.9252 37.8774 31.8592 37.8947 31.7882 37.9121L31.7567 37.9198C31.6891 37.9371 31.6187 37.9532 31.5456 37.968L31.5142 37.9747C31.4391 37.9901 31.364 38.0046 31.2879 38.0181H31.2788C31.1996 38.0316 31.1201 38.0438 31.0403 38.0547H31.0312C30.951 38.0663 30.8698 38.0759 30.7876 38.0836H30.7623C30.5007 38.1096 30.2378 38.1224 29.9748 38.1222H29.7181C23.8671 38.1222 21.1212 31.923 22.9985 26.3223L23.0391 26.2038V26.1893L23.0777 26.0794L23.0969 26.0255L23.1193 25.9657L23.1355 25.9233L23.1426 25.906L23.1883 25.7884L23.237 25.6679V25.6563L23.2573 25.6072L23.2826 25.5465L23.2938 25.5204L23.309 25.4857C23.3408 25.4118 23.3746 25.3383 23.4105 25.265L23.4176 25.2496V25.2438L23.4257 25.2274L23.4744 25.1224V25.1137L23.4988 25.0617L23.5282 25.0009L23.5394 24.9778V24.9701L23.5871 24.8737L23.6145 24.8197L23.6449 24.759L23.6713 24.707V24.6983L23.7027 24.6376V24.6289L23.7606 24.521L23.793 24.4612L23.8235 24.4063V24.4014L23.857 24.3417V24.3359L23.8874 24.2819L23.9219 24.2222V24.2145L23.9524 24.1634L23.9879 24.1036L24.0599 23.9851L24.0965 23.9263L24.133 23.8675L24.1705 23.8087C24.3583 23.5196 24.5602 23.2304 24.7794 22.9557L24.823 22.9008L24.8666 22.8468L24.9113 22.7929L24.9559 22.7389L25.0006 22.6859L25.0919 22.5799C21.0238 25.3614 18.8919 31.7061 19.8153 35.2308C20.0923 36.244 20.5737 37.1965 21.2329 38.0354C25.0158 41.0791 31.9515 40.0199 34.7898 36.3083C37.7863 33.6694 38.8183 28.8359 37.3023 24.3118C36.7827 22.762 35.8816 21.084 34.6589 19.726C33.2626 18.8316 31.6471 18.2803 29.85 18.2803C29.7073 18.2803 29.5656 18.2839 29.4248 18.2909V20.1867C29.5649 20.1752 29.7059 20.1694 29.85 20.1694C33.2849 20.1694 35.7446 23.5225 36.6853 26.33C38.251 30.9833 36.6183 36.049 32.6659 37.6297Z" fill="#FDDAA5"/>
</svg>
