<svg width="24" height="25" viewBox="0 0 24 25" fill="none" xmlns="http://www.w3.org/2000/svg">
<g id="remote-control-2-line" clip-path="url(#clip0_241_2785)">
<path id="Vector" d="M18 2.5C18.2652 2.5 18.5196 2.60536 18.7071 2.79289C18.8946 2.98043 19 3.23478 19 3.5V21.5C19 21.7652 18.8946 22.0196 18.7071 22.2071C18.5196 22.3946 18.2652 22.5 18 22.5H6C5.73478 22.5 5.48043 22.3946 5.29289 22.2071C5.10536 22.0196 5 21.7652 5 21.5V3.5C5 3.23478 5.10536 2.98043 5.29289 2.79289C5.48043 2.60536 5.73478 2.5 6 2.5H18ZM17 4.5H7V20.5H17V4.5ZM15 15.5V17.5H13V15.5H15ZM11 15.5V17.5H9V15.5H11ZM13 6.5V8.5H15V10.5H12.999L13 12.5H11L10.999 10.5H9V8.5H11V6.5H13Z" fill="#F47B20"/>
</g>
<defs>
<clipPath id="clip0_241_2785">
<rect width="24" height="24" fill="white" transform="translate(0 0.5)"/>
</clipPath>
</defs>
</svg>
