<svg width="24" height="25" viewBox="0 0 24 25" fill="none" xmlns="http://www.w3.org/2000/svg">
<g id="remote-control-line" clip-path="url(#clip0_241_2770)">
<path id="Vector" d="M17.0002 12.5C17.2654 12.5 17.5198 12.6054 17.7073 12.7929C17.8949 12.9804 18.0002 13.2348 18.0002 13.5V22.5H16.0002V14.5H8.00022V22.5H6.00022V13.5C6.00022 13.2348 6.10558 12.9804 6.29312 12.7929C6.48065 12.6054 6.73501 12.5 7.00022 12.5H17.0002ZM12.0002 16.5V18.5H10.0002V16.5H12.0002ZM12.0002 6.5C13.1147 6.49967 14.2072 6.80972 15.1553 7.39541C16.1034 7.9811 16.8697 8.81928 17.3682 9.816L15.5782 10.711C15.2462 10.0462 14.7355 9.48697 14.1034 9.09613C13.4713 8.7053 12.7429 8.49827 11.9997 8.49827C11.2566 8.49827 10.5281 8.7053 9.89605 9.09613C9.26397 9.48697 8.75327 10.0462 8.42122 10.711L6.63222 9.816C7.13075 8.81928 7.89702 7.9811 8.84515 7.39541C9.79327 6.80972 10.8858 6.49967 12.0002 6.5ZM12.0002 2.5C13.8575 2.4996 15.6783 3.01647 17.2584 3.99267C18.8385 4.96888 20.1154 6.36584 20.9462 8.027L19.1572 8.922C18.4926 7.59297 17.471 6.47529 16.2069 5.69425C14.9428 4.91321 13.4862 4.49968 12.0002 4.5C10.5143 4.49968 9.05763 4.91321 7.79352 5.69425C6.52941 6.47529 5.50781 7.59297 4.84322 8.922L3.05322 8.027C3.88408 6.36569 5.16123 4.96862 6.74151 3.99241C8.32178 3.01619 10.1427 2.49941 12.0002 2.5Z" fill="#F47B20"/>
</g>
<defs>
<clipPath id="clip0_241_2770">
<rect width="24" height="24" fill="white" transform="translate(0 0.5)"/>
</clipPath>
</defs>
</svg>
