<svg width="24" height="25" viewBox="0 0 24 25" fill="none" xmlns="http://www.w3.org/2000/svg">
<g id="vidicon-line" clip-path="url(#clip0_241_2795)">
<path id="Vector" d="M17 9.7L22.213 6.05C22.288 5.99746 22.3759 5.9665 22.4672 5.9605C22.5586 5.9545 22.6498 5.9737 22.731 6.01599C22.8122 6.05829 22.8802 6.12206 22.9276 6.20035C22.9751 6.27865 23.0001 6.36846 23 6.46V18.54C23.0001 18.6315 22.9751 18.7214 22.9276 18.7996C22.8802 18.8779 22.8122 18.9417 22.731 18.984C22.6498 19.0263 22.5586 19.0455 22.4672 19.0395C22.3759 19.0335 22.288 19.0025 22.213 18.95L17 15.3V19.5C17 19.7652 16.8946 20.0196 16.7071 20.2071C16.5196 20.3946 16.2652 20.5 16 20.5H2C1.73478 20.5 1.48043 20.3946 1.29289 20.2071C1.10536 20.0196 1 19.7652 1 19.5V5.5C1 5.23478 1.10536 4.98043 1.29289 4.79289C1.48043 4.60536 1.73478 4.5 2 4.5H16C16.2652 4.5 16.5196 4.60536 16.7071 4.79289C16.8946 4.98043 17 5.23478 17 5.5V9.7ZM17 12.859L21 15.659V9.34L17 12.14V12.858V12.859ZM3 6.5V18.5H15V6.5H3ZM5 8.5H7V10.5H5V8.5Z" fill="#F47B20"/>
</g>
<defs>
<clipPath id="clip0_241_2795">
<rect width="24" height="24" fill="white" transform="translate(0 0.5)"/>
</clipPath>
</defs>
</svg>
