<svg width="18" height="18" viewBox="0 0 18 18" fill="none" xmlns="http://www.w3.org/2000/svg">
<g id="temp-hot-line" clip-path="url(#clip0_250_1980)">
<path id="Vector" d="M6 3.75C6 2.95435 6.31607 2.19129 6.87868 1.62868C7.44129 1.06607 8.20435 0.75 9 0.75C9.79565 0.75 10.5587 1.06607 11.1213 1.62868C11.6839 2.19129 12 2.95435 12 3.75V7.69125C12.9172 8.32993 13.6067 9.24468 13.9681 10.3024C14.3294 11.36 14.3438 12.5054 14.0091 13.5718C13.6744 14.6382 13.0081 15.57 12.1071 16.2315C11.2062 16.893 10.1177 17.2497 9 17.2497C7.88231 17.2497 6.79378 16.893 5.89285 16.2315C4.99193 15.57 4.32562 14.6382 3.99092 13.5718C3.65622 12.5054 3.67059 11.36 4.03194 10.3024C4.39329 9.24468 5.08276 8.32993 6 7.69125V3.75ZM6.858 8.92125C6.20263 9.37732 5.70993 10.0307 5.45164 10.7862C5.19335 11.5417 5.18294 12.3599 5.42193 13.1218C5.66092 13.8836 6.13684 14.5493 6.7804 15.0219C7.42396 15.4944 8.20156 15.7493 9 15.7493C9.79844 15.7493 10.576 15.4944 11.2196 15.0219C11.8632 14.5493 12.3391 13.8836 12.5781 13.1218C12.8171 12.3599 12.8067 11.5417 12.5484 10.7862C12.2901 10.0307 11.7974 9.37732 11.142 8.92125L10.5 8.4735V3.75C10.5 3.35218 10.342 2.97064 10.0607 2.68934C9.77936 2.40804 9.39782 2.25 9 2.25C8.60218 2.25 8.22064 2.40804 7.93934 2.68934C7.65804 2.97064 7.5 3.35218 7.5 3.75V8.4735L6.858 8.92125ZM8.25 9.0945V3.75H9.75V9.0945C10.4554 9.2788 11.0695 9.71352 11.4778 10.3175C11.8862 10.9215 12.0607 11.6534 11.9688 12.3767C11.877 13.0999 11.525 13.765 10.9787 14.2477C10.4324 14.7305 9.72904 14.9979 9 15C8.2693 15.0007 7.56346 14.7347 7.01496 14.252C6.46645 13.7692 6.113 13.1028 6.02094 12.378C5.92888 11.6531 6.10454 10.9195 6.51496 10.315C6.92537 9.71043 7.54232 9.27645 8.25 9.0945ZM9 13.5C9.39782 13.5 9.77936 13.342 10.0607 13.0607C10.342 12.7794 10.5 12.3978 10.5 12C10.5 11.6022 10.342 11.2206 10.0607 10.9393C9.77936 10.658 9.39782 10.5 9 10.5C8.60218 10.5 8.22064 10.658 7.93934 10.9393C7.65804 11.2206 7.5 11.6022 7.5 12C7.5 12.3978 7.65804 12.7794 7.93934 13.0607C8.22064 13.342 8.60218 13.5 9 13.5Z" fill="#F47B20"/>
</g>
<defs>
<clipPath id="clip0_250_1980">
<rect width="18" height="18" fill="white"/>
</clipPath>
</defs>
</svg>
