<svg width="360" height="154" viewBox="0 0 360 154" fill="none" xmlns="http://www.w3.org/2000/svg">
<g clip-path="url(#clip0_1832_6135)">
<path d="M0 0H360V154H72C32.2355 154 0 121.765 0 82V0Z" fill="#F47B20"/>
<path d="M2.5 377.5L-1 75C51 193.5 110 254.5 238 178.5C289.596 147.865 322.5 143.5 361 169.5V377.5H2.5Z" fill="url(#paint0_linear_1832_6135)"/>
<path d="M360 0.49317V378.918H38.8347C38.8386 379.026 38.8237 379.028 38.7888 378.918H38.8347C38.7449 376.446 28.866 318.767 24.3018 286.472C-0.67573 109.733 185.086 175.587 220.625 94.4211C259.59 5.43235 305.882 -2.47034 360 0.49317Z" fill="url(#paint1_linear_1832_6135)"/>
<path d="M-9.15527e-05 -74.5008V308.584H321.454C321.45 308.694 321.465 308.696 321.5 308.584H321.454C321.544 306.082 331.432 247.693 336 214.999C361 36.084 175.071 102.749 139.5 20.5839C100.5 -69.5008 54.1666 -77.5008 -9.15527e-05 -74.5008Z" fill="url(#paint2_linear_1832_6135)"/>
<path d="M65.512 95.288C64.168 95.288 62.88 95.112 61.648 94.76C60.416 94.392 59.424 93.92 58.672 93.344L59.992 90.416C60.712 90.928 61.56 91.352 62.536 91.688C63.528 92.008 64.528 92.168 65.536 92.168C66.304 92.168 66.92 92.096 67.384 91.952C67.864 91.792 68.216 91.576 68.44 91.304C68.664 91.032 68.776 90.72 68.776 90.368C68.776 89.92 68.6 89.568 68.248 89.312C67.896 89.04 67.432 88.824 66.856 88.664C66.28 88.488 65.64 88.328 64.936 88.184C64.248 88.024 63.552 87.832 62.848 87.608C62.16 87.384 61.528 87.096 60.952 86.744C60.376 86.392 59.904 85.928 59.536 85.352C59.184 84.776 59.008 84.04 59.008 83.144C59.008 82.184 59.264 81.312 59.776 80.528C60.304 79.728 61.088 79.096 62.128 78.632C63.184 78.152 64.504 77.912 66.088 77.912C67.144 77.912 68.184 78.04 69.208 78.296C70.232 78.536 71.136 78.904 71.92 79.4L70.72 82.352C69.936 81.904 69.152 81.576 68.368 81.368C67.584 81.144 66.816 81.032 66.064 81.032C65.312 81.032 64.696 81.12 64.216 81.296C63.736 81.472 63.392 81.704 63.184 81.992C62.976 82.264 62.872 82.584 62.872 82.952C62.872 83.384 63.048 83.736 63.4 84.008C63.752 84.264 64.216 84.472 64.792 84.632C65.368 84.792 66 84.952 66.688 85.112C67.392 85.272 68.088 85.456 68.776 85.664C69.48 85.872 70.12 86.152 70.696 86.504C71.272 86.856 71.736 87.32 72.088 87.896C72.456 88.472 72.64 89.2 72.64 90.08C72.64 91.024 72.376 91.888 71.848 92.672C71.32 93.456 70.528 94.088 69.472 94.568C68.432 95.048 67.112 95.288 65.512 95.288ZM81.4407 95.192C79.9687 95.192 78.6727 94.904 77.5527 94.328C76.4487 93.752 75.5927 92.968 74.9847 91.976C74.3767 90.968 74.0727 89.824 74.0727 88.544C74.0727 87.248 74.3687 86.104 74.9607 85.112C75.5687 84.104 76.3927 83.32 77.4327 82.76C78.4727 82.184 79.6487 81.896 80.9607 81.896C82.2247 81.896 83.3607 82.168 84.3687 82.712C85.3927 83.24 86.2007 84.008 86.7927 85.016C87.3847 86.008 87.6807 87.2 87.6807 88.592C87.6807 88.736 87.6727 88.904 87.6567 89.096C87.6407 89.272 87.6247 89.44 87.6087 89.6H77.1207V87.416H85.6407L84.2007 88.064C84.2007 87.392 84.0647 86.808 83.7927 86.312C83.5207 85.816 83.1447 85.432 82.6647 85.16C82.1847 84.872 81.6247 84.728 80.9847 84.728C80.3447 84.728 79.7767 84.872 79.2807 85.16C78.8007 85.432 78.4247 85.824 78.1527 86.336C77.8807 86.832 77.7447 87.424 77.7447 88.112V88.688C77.7447 89.392 77.8967 90.016 78.2007 90.56C78.5207 91.088 78.9607 91.496 79.5207 91.784C80.0967 92.056 80.7687 92.192 81.5367 92.192C82.2247 92.192 82.8247 92.088 83.3367 91.88C83.8647 91.672 84.3447 91.36 84.7767 90.944L86.7687 93.104C86.1767 93.776 85.4327 94.296 84.5367 94.664C83.6407 95.016 82.6087 95.192 81.4407 95.192ZM90.1733 95V77.192H93.9173V95H90.1733ZM105.312 95V92.48L105.072 91.928V87.416C105.072 86.616 104.824 85.992 104.328 85.544C103.848 85.096 103.104 84.872 102.096 84.872C101.408 84.872 100.728 84.984 100.056 85.208C99.4001 85.416 98.8401 85.704 98.3761 86.072L97.0321 83.456C97.7361 82.96 98.5841 82.576 99.5761 82.304C100.568 82.032 101.576 81.896 102.6 81.896C104.568 81.896 106.096 82.36 107.184 83.288C108.272 84.216 108.816 85.664 108.816 87.632V95H105.312ZM101.376 95.192C100.368 95.192 99.5041 95.024 98.7841 94.688C98.0641 94.336 97.5121 93.864 97.1281 93.272C96.7441 92.68 96.5521 92.016 96.5521 91.28C96.5521 90.512 96.7361 89.84 97.1041 89.264C97.4881 88.688 98.0881 88.24 98.9041 87.92C99.7201 87.584 100.784 87.416 102.096 87.416H105.528V89.6H102.504C101.624 89.6 101.016 89.744 100.68 90.032C100.36 90.32 100.2 90.68 100.2 91.112C100.2 91.592 100.384 91.976 100.752 92.264C101.136 92.536 101.656 92.672 102.312 92.672C102.936 92.672 103.496 92.528 103.992 92.24C104.488 91.936 104.848 91.496 105.072 90.92L105.648 92.648C105.376 93.48 104.88 94.112 104.16 94.544C103.44 94.976 102.512 95.192 101.376 95.192ZM128.741 81.896C129.765 81.896 130.669 82.104 131.453 82.52C132.253 82.92 132.877 83.544 133.325 84.392C133.789 85.224 134.021 86.296 134.021 87.608V95H130.277V88.184C130.277 87.144 130.061 86.376 129.629 85.88C129.197 85.384 128.589 85.136 127.805 85.136C127.261 85.136 126.773 85.264 126.341 85.52C125.909 85.76 125.573 86.128 125.333 86.624C125.093 87.12 124.973 87.752 124.973 88.52V95H121.229V88.184C121.229 87.144 121.013 86.376 120.581 85.88C120.165 85.384 119.565 85.136 118.781 85.136C118.237 85.136 117.749 85.264 117.317 85.52C116.885 85.76 116.549 86.128 116.309 86.624C116.069 87.12 115.949 87.752 115.949 88.52V95H112.205V82.088H115.781V85.616L115.109 84.584C115.557 83.704 116.189 83.04 117.005 82.592C117.837 82.128 118.781 81.896 119.837 81.896C121.021 81.896 122.053 82.2 122.933 82.808C123.829 83.4 124.421 84.312 124.709 85.544L123.389 85.184C123.821 84.176 124.509 83.376 125.453 82.784C126.413 82.192 127.509 81.896 128.741 81.896ZM145.296 95V92.48L145.056 91.928V87.416C145.056 86.616 144.808 85.992 144.312 85.544C143.832 85.096 143.088 84.872 142.08 84.872C141.392 84.872 140.712 84.984 140.04 85.208C139.384 85.416 138.824 85.704 138.36 86.072L137.016 83.456C137.72 82.96 138.568 82.576 139.56 82.304C140.552 82.032 141.56 81.896 142.584 81.896C144.552 81.896 146.08 82.36 147.168 83.288C148.256 84.216 148.8 85.664 148.8 87.632V95H145.296ZM141.36 95.192C140.352 95.192 139.488 95.024 138.768 94.688C138.048 94.336 137.496 93.864 137.112 93.272C136.728 92.68 136.536 92.016 136.536 91.28C136.536 90.512 136.72 89.84 137.088 89.264C137.472 88.688 138.072 88.24 138.888 87.92C139.704 87.584 140.768 87.416 142.08 87.416H145.512V89.6H142.488C141.608 89.6 141 89.744 140.664 90.032C140.344 90.32 140.184 90.68 140.184 91.112C140.184 91.592 140.368 91.976 140.736 92.264C141.12 92.536 141.64 92.672 142.296 92.672C142.92 92.672 143.48 92.528 143.976 92.24C144.472 91.936 144.832 91.496 145.056 90.92L145.632 92.648C145.36 93.48 144.864 94.112 144.144 94.544C143.424 94.976 142.496 95.192 141.36 95.192ZM157.469 95.192C155.949 95.192 154.765 94.808 153.917 94.04C153.069 93.256 152.645 92.096 152.645 90.56V79.232H156.389V90.512C156.389 91.056 156.533 91.48 156.821 91.784C157.109 92.072 157.501 92.216 157.997 92.216C158.589 92.216 159.093 92.056 159.509 91.736L160.517 94.376C160.133 94.648 159.669 94.856 159.125 95C158.597 95.128 158.045 95.192 157.469 95.192ZM150.653 85.256V82.376H159.605V85.256H150.653ZM169.68 95V78.2H177.312C179.136 78.2 180.744 78.552 182.136 79.256C183.528 79.944 184.616 80.912 185.4 82.16C186.184 83.408 186.576 84.888 186.576 86.6C186.576 88.296 186.184 89.776 185.4 91.04C184.616 92.288 183.528 93.264 182.136 93.968C180.744 94.656 179.136 95 177.312 95H169.68ZM173.568 91.808H177.12C178.24 91.808 179.208 91.6 180.023 91.184C180.856 90.752 181.496 90.144 181.944 89.36C182.408 88.576 182.64 87.656 182.64 86.6C182.64 85.528 182.408 84.608 181.944 83.84C181.496 83.056 180.856 82.456 180.023 82.04C179.208 81.608 178.24 81.392 177.12 81.392H173.568V91.808ZM197.164 95V92.48L196.924 91.928V87.416C196.924 86.616 196.676 85.992 196.18 85.544C195.7 85.096 194.956 84.872 193.948 84.872C193.26 84.872 192.58 84.984 191.908 85.208C191.252 85.416 190.692 85.704 190.228 86.072L188.884 83.456C189.588 82.96 190.436 82.576 191.428 82.304C192.42 82.032 193.428 81.896 194.452 81.896C196.42 81.896 197.948 82.36 199.036 83.288C200.124 84.216 200.668 85.664 200.668 87.632V95H197.164ZM193.228 95.192C192.22 95.192 191.356 95.024 190.636 94.688C189.916 94.336 189.364 93.864 188.98 93.272C188.596 92.68 188.404 92.016 188.404 91.28C188.404 90.512 188.588 89.84 188.956 89.264C189.34 88.688 189.94 88.24 190.756 87.92C191.572 87.584 192.636 87.416 193.948 87.416H197.38V89.6H194.356C193.476 89.6 192.868 89.744 192.532 90.032C192.212 90.32 192.052 90.68 192.052 91.112C192.052 91.592 192.236 91.976 192.604 92.264C192.988 92.536 193.508 92.672 194.164 92.672C194.788 92.672 195.348 92.528 195.844 92.24C196.34 91.936 196.7 91.496 196.924 90.92L197.5 92.648C197.228 93.48 196.732 94.112 196.012 94.544C195.292 94.976 194.364 95.192 193.228 95.192ZM209.336 95.192C207.816 95.192 206.632 94.808 205.784 94.04C204.936 93.256 204.512 92.096 204.512 90.56V79.232H208.256V90.512C208.256 91.056 208.4 91.48 208.688 91.784C208.976 92.072 209.368 92.216 209.864 92.216C210.456 92.216 210.96 92.056 211.376 91.736L212.384 94.376C212 94.648 211.536 94.856 210.992 95C210.464 95.128 209.912 95.192 209.336 95.192ZM202.52 85.256V82.376H211.472V85.256H202.52ZM222.406 95V92.48L222.166 91.928V87.416C222.166 86.616 221.918 85.992 221.422 85.544C220.942 85.096 220.198 84.872 219.19 84.872C218.502 84.872 217.822 84.984 217.15 85.208C216.494 85.416 215.934 85.704 215.47 86.072L214.126 83.456C214.83 82.96 215.678 82.576 216.67 82.304C217.662 82.032 218.67 81.896 219.694 81.896C221.662 81.896 223.19 82.36 224.278 83.288C225.366 84.216 225.91 85.664 225.91 87.632V95H222.406ZM218.47 95.192C217.462 95.192 216.598 95.024 215.878 94.688C215.158 94.336 214.606 93.864 214.222 93.272C213.838 92.68 213.646 92.016 213.646 91.28C213.646 90.512 213.83 89.84 214.198 89.264C214.582 88.688 215.182 88.24 215.998 87.92C216.814 87.584 217.878 87.416 219.19 87.416H222.622V89.6H219.598C218.718 89.6 218.11 89.744 217.774 90.032C217.454 90.32 217.294 90.68 217.294 91.112C217.294 91.592 217.478 91.976 217.846 92.264C218.23 92.536 218.75 92.672 219.406 92.672C220.03 92.672 220.59 92.528 221.086 92.24C221.582 91.936 221.942 91.496 222.166 90.92L222.742 92.648C222.47 93.48 221.974 94.112 221.254 94.544C220.534 94.976 219.606 95.192 218.47 95.192ZM237.146 81.896C238.17 81.896 239.082 82.104 239.882 82.52C240.698 82.92 241.338 83.544 241.802 84.392C242.266 85.224 242.498 86.296 242.498 87.608V95H238.754V88.184C238.754 87.144 238.522 86.376 238.058 85.88C237.61 85.384 236.97 85.136 236.138 85.136C235.546 85.136 235.01 85.264 234.53 85.52C234.066 85.76 233.698 86.136 233.426 86.648C233.17 87.16 233.042 87.816 233.042 88.616V95H229.298V82.088H232.874V85.664L232.202 84.584C232.666 83.72 233.33 83.056 234.194 82.592C235.058 82.128 236.042 81.896 237.146 81.896ZM252.058 99.848C250.842 99.848 249.666 99.696 248.53 99.392C247.41 99.104 246.474 98.664 245.722 98.072L247.21 95.384C247.754 95.832 248.442 96.184 249.274 96.44C250.122 96.712 250.954 96.848 251.77 96.848C253.098 96.848 254.058 96.552 254.65 95.96C255.258 95.368 255.562 94.488 255.562 93.32V91.376L255.802 88.136L255.754 84.872V82.088H259.306V92.84C259.306 95.24 258.682 97.008 257.434 98.144C256.186 99.28 254.394 99.848 252.058 99.848ZM251.482 94.376C250.282 94.376 249.194 94.12 248.218 93.608C247.258 93.08 246.482 92.352 245.89 91.424C245.314 90.48 245.026 89.384 245.026 88.136C245.026 86.872 245.314 85.776 245.89 84.848C246.482 83.904 247.258 83.176 248.218 82.664C249.194 82.152 250.282 81.896 251.482 81.896C252.57 81.896 253.53 82.12 254.362 82.568C255.194 83 255.842 83.68 256.306 84.608C256.77 85.52 257.002 86.696 257.002 88.136C257.002 89.56 256.77 90.736 256.306 91.664C255.842 92.576 255.194 93.256 254.362 93.704C253.53 94.152 252.57 94.376 251.482 94.376ZM252.226 91.304C252.882 91.304 253.466 91.176 253.978 90.92C254.49 90.648 254.89 90.272 255.178 89.792C255.466 89.312 255.61 88.76 255.61 88.136C255.61 87.496 255.466 86.944 255.178 86.48C254.89 86 254.49 85.632 253.978 85.376C253.466 85.104 252.882 84.968 252.226 84.968C251.57 84.968 250.986 85.104 250.474 85.376C249.962 85.632 249.554 86 249.25 86.48C248.962 86.944 248.818 87.496 248.818 88.136C248.818 88.76 248.962 89.312 249.25 89.792C249.554 90.272 249.962 90.648 250.474 90.92C250.986 91.176 251.57 91.304 252.226 91.304ZM275.131 95.192C273.915 95.192 272.819 94.92 271.843 94.376C270.867 93.816 270.091 93.04 269.515 92.048C268.955 91.056 268.675 89.888 268.675 88.544C268.675 87.184 268.955 86.008 269.515 85.016C270.091 84.024 270.867 83.256 271.843 82.712C272.819 82.168 273.915 81.896 275.131 81.896C276.219 81.896 277.171 82.136 277.987 82.616C278.803 83.096 279.435 83.824 279.883 84.8C280.331 85.776 280.555 87.024 280.555 88.544C280.555 90.048 280.339 91.296 279.907 92.288C279.475 93.264 278.851 93.992 278.035 94.472C277.235 94.952 276.267 95.192 275.131 95.192ZM275.779 92.12C276.387 92.12 276.939 91.976 277.435 91.688C277.931 91.4 278.323 90.992 278.611 90.464C278.915 89.92 279.067 89.28 279.067 88.544C279.067 87.792 278.915 87.152 278.611 86.624C278.323 86.096 277.931 85.688 277.435 85.4C276.939 85.112 276.387 84.968 275.779 84.968C275.155 84.968 274.595 85.112 274.099 85.4C273.603 85.688 273.203 86.096 272.899 86.624C272.611 87.152 272.467 87.792 272.467 88.544C272.467 89.28 272.611 89.92 272.899 90.464C273.203 90.992 273.603 91.4 274.099 91.688C274.595 91.976 275.155 92.12 275.779 92.12ZM279.163 95V92.36L279.235 88.52L278.995 84.704V77.192H282.739V95H279.163ZM286.205 95V82.088H289.949V95H286.205ZM288.077 80.288C287.389 80.288 286.829 80.088 286.397 79.688C285.965 79.288 285.749 78.792 285.749 78.2C285.749 77.608 285.965 77.112 286.397 76.712C286.829 76.312 287.389 76.112 288.077 76.112C288.765 76.112 289.325 76.304 289.757 76.688C290.189 77.056 290.405 77.536 290.405 78.128C290.405 78.752 290.189 79.272 289.757 79.688C289.341 80.088 288.781 80.288 288.077 80.288ZM59.992 125V108.2H67.264C68.768 108.2 70.064 108.448 71.152 108.944C72.24 109.424 73.08 110.12 73.672 111.032C74.264 111.944 74.56 113.032 74.56 114.296C74.56 115.544 74.264 116.624 73.672 117.536C73.08 118.448 72.24 119.152 71.152 119.648C70.064 120.128 68.768 120.368 67.264 120.368H62.152L63.88 118.616V125H59.992ZM63.88 119.048L62.152 117.2H67.048C68.248 117.2 69.144 116.944 69.736 116.432C70.328 115.92 70.624 115.208 70.624 114.296C70.624 113.368 70.328 112.648 69.736 112.136C69.144 111.624 68.248 111.368 67.048 111.368H62.152L63.88 109.52V119.048ZM77.3061 125V112.088H81.0501V125H77.3061ZM79.1781 110.288C78.4901 110.288 77.9301 110.088 77.4981 109.688C77.0661 109.288 76.8501 108.792 76.8501 108.2C76.8501 107.608 77.0661 107.112 77.4981 106.712C77.9301 106.312 78.4901 106.112 79.1781 106.112C79.8661 106.112 80.4261 106.304 80.8581 106.688C81.2901 107.056 81.5061 107.536 81.5061 108.128C81.5061 108.752 81.2901 109.272 80.8581 109.688C80.4421 110.088 79.8821 110.288 79.1781 110.288ZM89.8049 125.192C88.2849 125.192 87.1009 124.808 86.2529 124.04C85.4049 123.256 84.9809 122.096 84.9809 120.56V109.232H88.7249V120.512C88.7249 121.056 88.8689 121.48 89.1569 121.784C89.4449 122.072 89.8369 122.216 90.3329 122.216C90.9249 122.216 91.4289 122.056 91.8449 121.736L92.8529 124.376C92.4689 124.648 92.0049 124.856 91.4609 125C90.9329 125.128 90.3809 125.192 89.8049 125.192ZM82.9889 115.256V112.376H91.9409V115.256H82.9889ZM94.9546 125V112.088H98.6986V125H94.9546ZM96.8266 110.288C96.1386 110.288 95.5786 110.088 95.1466 109.688C94.7146 109.288 94.4986 108.792 94.4986 108.2C94.4986 107.608 94.7146 107.112 95.1466 106.712C95.5786 106.312 96.1386 106.112 96.8266 106.112C97.5146 106.112 98.0746 106.304 98.5066 106.688C98.9386 107.056 99.1546 107.536 99.1546 108.128C99.1546 108.752 98.9386 109.272 98.5066 109.688C98.0906 110.088 97.5306 110.288 96.8266 110.288ZM105.269 122.36L105.365 117.8L111.389 112.088H115.853L110.069 117.968L108.125 119.552L105.269 122.36ZM102.173 125V107.192H105.917V125H102.173ZM111.797 125L107.429 119.576L109.781 116.672L116.333 125H111.797ZM133.118 125.288C131.822 125.288 130.614 125.08 129.494 124.664C128.39 124.232 127.43 123.624 126.614 122.84C125.798 122.056 125.158 121.136 124.694 120.08C124.246 119.024 124.022 117.864 124.022 116.6C124.022 115.336 124.246 114.176 124.694 113.12C125.158 112.064 125.798 111.144 126.614 110.36C127.446 109.576 128.414 108.976 129.518 108.56C130.622 108.128 131.83 107.912 133.142 107.912C134.598 107.912 135.91 108.168 137.078 108.68C138.262 109.176 139.254 109.912 140.054 110.888L137.558 113.192C136.982 112.536 136.342 112.048 135.638 111.728C134.934 111.392 134.166 111.224 133.334 111.224C132.55 111.224 131.83 111.352 131.174 111.608C130.518 111.864 129.95 112.232 129.47 112.712C128.99 113.192 128.614 113.76 128.342 114.416C128.086 115.072 127.958 115.8 127.958 116.6C127.958 117.4 128.086 118.128 128.342 118.784C128.614 119.44 128.99 120.008 129.47 120.488C129.95 120.968 130.518 121.336 131.174 121.592C131.83 121.848 132.55 121.976 133.334 121.976C134.166 121.976 134.934 121.816 135.638 121.496C136.342 121.16 136.982 120.656 137.558 119.984L140.054 122.288C139.254 123.264 138.262 124.008 137.078 124.52C135.91 125.032 134.59 125.288 133.118 125.288ZM148.114 125.192C146.738 125.192 145.514 124.904 144.442 124.328C143.386 123.752 142.546 122.968 141.922 121.976C141.314 120.968 141.01 119.824 141.01 118.544C141.01 117.248 141.314 116.104 141.922 115.112C142.546 114.104 143.386 113.32 144.442 112.76C145.514 112.184 146.738 111.896 148.114 111.896C149.474 111.896 150.69 112.184 151.762 112.76C152.834 113.32 153.674 114.096 154.282 115.088C154.89 116.08 155.194 117.232 155.194 118.544C155.194 119.824 154.89 120.968 154.282 121.976C153.674 122.968 152.834 123.752 151.762 124.328C150.69 124.904 149.474 125.192 148.114 125.192ZM148.114 122.12C148.738 122.12 149.298 121.976 149.794 121.688C150.29 121.4 150.682 120.992 150.97 120.464C151.258 119.92 151.402 119.28 151.402 118.544C151.402 117.792 151.258 117.152 150.97 116.624C150.682 116.096 150.29 115.688 149.794 115.4C149.298 115.112 148.738 114.968 148.114 114.968C147.49 114.968 146.93 115.112 146.434 115.4C145.938 115.688 145.538 116.096 145.234 116.624C144.946 117.152 144.802 117.792 144.802 118.544C144.802 119.28 144.946 119.92 145.234 120.464C145.538 120.992 145.938 121.4 146.434 121.688C146.93 121.976 147.49 122.12 148.114 122.12ZM165.545 111.896C166.569 111.896 167.481 112.104 168.281 112.52C169.097 112.92 169.737 113.544 170.201 114.392C170.665 115.224 170.897 116.296 170.897 117.608V125H167.153V118.184C167.153 117.144 166.921 116.376 166.457 115.88C166.009 115.384 165.369 115.136 164.537 115.136C163.945 115.136 163.409 115.264 162.929 115.52C162.465 115.76 162.097 116.136 161.825 116.648C161.569 117.16 161.441 117.816 161.441 118.616V125H157.697V112.088H161.273V115.664L160.601 114.584C161.065 113.72 161.729 113.056 162.593 112.592C163.457 112.128 164.441 111.896 165.545 111.896ZM182.139 111.896C183.163 111.896 184.075 112.104 184.875 112.52C185.691 112.92 186.331 113.544 186.795 114.392C187.259 115.224 187.491 116.296 187.491 117.608V125H183.747V118.184C183.747 117.144 183.515 116.376 183.051 115.88C182.603 115.384 181.963 115.136 181.131 115.136C180.539 115.136 180.003 115.264 179.523 115.52C179.059 115.76 178.691 116.136 178.419 116.648C178.163 117.16 178.035 117.816 178.035 118.616V125H174.291V112.088H177.867V115.664L177.195 114.584C177.659 113.72 178.323 113.056 179.187 112.592C180.051 112.128 181.035 111.896 182.139 111.896ZM197.386 125.192C195.914 125.192 194.618 124.904 193.498 124.328C192.394 123.752 191.538 122.968 190.93 121.976C190.322 120.968 190.018 119.824 190.018 118.544C190.018 117.248 190.314 116.104 190.906 115.112C191.514 114.104 192.338 113.32 193.378 112.76C194.418 112.184 195.594 111.896 196.906 111.896C198.17 111.896 199.306 112.168 200.314 112.712C201.338 113.24 202.146 114.008 202.738 115.016C203.33 116.008 203.626 117.2 203.626 118.592C203.626 118.736 203.618 118.904 203.602 119.096C203.586 119.272 203.57 119.44 203.554 119.6H193.066V117.416H201.586L200.146 118.064C200.146 117.392 200.01 116.808 199.738 116.312C199.466 115.816 199.09 115.432 198.61 115.16C198.13 114.872 197.57 114.728 196.93 114.728C196.29 114.728 195.722 114.872 195.226 115.16C194.746 115.432 194.37 115.824 194.098 116.336C193.826 116.832 193.69 117.424 193.69 118.112V118.688C193.69 119.392 193.842 120.016 194.146 120.56C194.466 121.088 194.906 121.496 195.466 121.784C196.042 122.056 196.714 122.192 197.482 122.192C198.17 122.192 198.77 122.088 199.282 121.88C199.81 121.672 200.29 121.36 200.722 120.944L202.714 123.104C202.122 123.776 201.378 124.296 200.482 124.664C199.586 125.016 198.554 125.192 197.386 125.192ZM212.359 125.192C210.967 125.192 209.727 124.912 208.639 124.352C207.551 123.776 206.695 122.984 206.071 121.976C205.463 120.968 205.159 119.824 205.159 118.544C205.159 117.248 205.463 116.104 206.071 115.112C206.695 114.104 207.551 113.32 208.639 112.76C209.727 112.184 210.967 111.896 212.359 111.896C213.719 111.896 214.903 112.184 215.911 112.76C216.919 113.32 217.663 114.128 218.143 115.184L215.239 116.744C214.903 116.136 214.479 115.688 213.967 115.4C213.471 115.112 212.927 114.968 212.335 114.968C211.695 114.968 211.119 115.112 210.607 115.4C210.095 115.688 209.687 116.096 209.383 116.624C209.095 117.152 208.951 117.792 208.951 118.544C208.951 119.296 209.095 119.936 209.383 120.464C209.687 120.992 210.095 121.4 210.607 121.688C211.119 121.976 211.695 122.12 212.335 122.12C212.927 122.12 213.471 121.984 213.967 121.712C214.479 121.424 214.903 120.968 215.239 120.344L218.143 121.928C217.663 122.968 216.919 123.776 215.911 124.352C214.903 124.912 213.719 125.192 212.359 125.192ZM225.766 125.192C224.246 125.192 223.062 124.808 222.214 124.04C221.366 123.256 220.942 122.096 220.942 120.56V109.232H224.686V120.512C224.686 121.056 224.83 121.48 225.118 121.784C225.406 122.072 225.798 122.216 226.294 122.216C226.886 122.216 227.39 122.056 227.806 121.736L228.814 124.376C228.43 124.648 227.966 124.856 227.422 125C226.894 125.128 226.342 125.192 225.766 125.192ZM218.95 115.256V112.376H227.902V115.256H218.95Z" fill="white"/>
</g>
<defs>
<linearGradient id="paint0_linear_1832_6135" x1="181.75" y1="112" x2="181.75" y2="377.5" gradientUnits="userSpaceOnUse">
<stop stop-color="#FFA663"/>
<stop offset="1" stop-color="#F47B20" stop-opacity="0"/>
</linearGradient>
<linearGradient id="paint1_linear_1832_6135" x1="191.152" y1="0.0828741" x2="191.152" y2="320.4" gradientUnits="userSpaceOnUse">
<stop stop-color="#FF994D"/>
<stop offset="1" stop-color="#F47B20" stop-opacity="0"/>
</linearGradient>
<linearGradient id="paint2_linear_1832_6135" x1="169" y1="-74.9161" x2="169" y2="249.346" gradientUnits="userSpaceOnUse">
<stop stop-color="#FF994D"/>
<stop offset="1" stop-color="#F47B20" stop-opacity="0"/>
</linearGradient>
<clipPath id="clip0_1832_6135">
<path d="M0 0H360V154H72C32.2355 154 0 121.765 0 82V0Z" fill="white"/>
</clipPath>
</defs>
</svg>
