<svg width="96" height="162" viewBox="0 0 96 162" fill="none" xmlns="http://www.w3.org/2000/svg">
<path fill-rule="evenodd" clip-rule="evenodd" d="M17.8902 153.56V160.887H12.8838V143.891C12.8838 138.909 15.3333 134.758 20.2641 132.707C22.0477 131.97 23.9736 131.595 25.9187 131.605C27.6108 131.583 29.2894 131.893 30.8498 132.515C32.4103 133.137 33.8193 134.057 34.989 135.219C36.1991 136.352 37.1555 137.705 37.8006 139.198C38.4457 140.691 38.7662 142.292 38.7428 143.906C38.7736 145.536 38.4594 147.155 37.8186 148.667C37.1779 150.18 36.2237 151.554 35.0129 152.71C33.8584 153.876 32.4613 154.802 30.9101 155.429C29.359 156.056 27.6877 156.37 26.0022 156.351C23.024 156.392 20.1342 155.389 17.8862 153.533L17.8902 153.56ZM44.616 131.62C45.0337 131.616 45.4479 131.692 45.8344 131.842C46.2209 131.993 46.5719 132.215 46.8667 132.496C47.1708 132.774 47.4116 133.108 47.5744 133.477C47.7371 133.847 47.8184 134.244 47.8131 134.645C47.8048 135.444 47.467 136.208 46.8722 136.773C46.2774 137.338 45.4731 137.659 44.632 137.666C44.2108 137.671 43.7932 137.594 43.4047 137.439C43.0163 137.284 42.6653 137.056 42.3733 136.768C41.9274 136.345 41.6239 135.805 41.5012 135.218C41.3785 134.631 41.4421 134.022 41.6841 133.47C41.9261 132.917 42.3354 132.445 42.8603 132.114C43.3851 131.782 44.0017 131.606 44.632 131.608L44.616 131.62ZM42.1109 139.306H47.1491V160.981H42.1109V139.302V139.306ZM55.7541 139.306H61.182V143.683H55.774V151.898C55.7382 153.174 55.9331 155.24 57.293 155.905C58.315 156.407 59.8459 156.589 60.8957 156.052L61.9574 155.512L62.3551 156.589C62.6493 157.344 62.9396 158.099 63.2577 158.855L63.6554 159.791L62.6613 160.169C61.2315 160.729 59.6985 161.013 58.152 161.004C55.4281 160.856 53.2211 159.761 51.7896 157.499C50.8909 155.988 50.6483 154.047 50.6762 152.34V131.616H55.7183V139.302L55.7541 139.306ZM68.0136 131.62C68.4313 131.616 68.8456 131.691 69.2321 131.842C69.6186 131.992 69.9696 132.215 70.2643 132.496C70.5604 132.777 70.7952 133.111 70.9555 133.478C71.1157 133.846 71.1982 134.24 71.1982 134.637C71.1982 135.035 71.1157 135.429 70.9555 135.796C70.7952 136.164 70.5604 136.498 70.2643 136.779C69.9682 137.06 69.6167 137.283 69.2298 137.435C68.843 137.588 68.4284 137.666 68.0096 137.666C67.5909 137.666 67.1763 137.588 66.7894 137.435C66.4026 137.283 66.0511 137.06 65.755 136.779C65.3091 136.356 65.0055 135.817 64.8828 135.229C64.7601 134.642 64.8238 134.034 65.0658 133.481C65.3077 132.928 65.7171 132.456 66.2419 132.125C66.7667 131.794 67.3834 131.618 68.0136 131.62V131.62ZM65.5045 139.306H70.5307V160.981H65.5045V139.302V139.306ZM79.5215 146.508L88.226 139.332H95.662L85.0488 148.487L94.7275 160.981H88.1067L80.7463 151.418L79.5215 152.377V160.977H74.4794V131.616H79.5215V146.508ZM25.6761 136.265C24.6187 136.243 23.568 136.431 22.5911 136.816C21.6142 137.201 20.7323 137.775 20.0017 138.501C19.2346 139.239 18.6333 140.118 18.2341 141.083C17.8349 142.048 17.6462 143.081 17.6794 144.117C17.6592 145.497 18.0154 146.858 18.7133 148.068C19.3983 149.233 20.4155 150.192 21.6479 150.833C22.8862 151.511 24.2905 151.868 25.7198 151.868C27.1053 151.87 28.4656 151.516 29.6565 150.844C30.8971 150.155 31.916 149.157 32.6031 147.958C33.3227 146.766 33.7036 145.416 33.7086 144.042C33.7097 142.674 33.3326 141.33 32.6151 140.144C31.9272 138.964 30.9194 137.981 29.6963 137.296C28.4801 136.611 27.09 136.255 25.6761 136.265Z" fill="white"/>
<path d="M88.2858 69.0015C88.2858 87.0662 72.9355 101.711 54.0001 101.711C35.0646 101.711 19.7144 87.0662 19.7144 69.0015C19.7144 50.9367 37.9891 26.1776 54.0001 26.1776C69.5583 26.1776 88.2858 50.9367 88.2858 69.0015Z" fill="#F47B20"/>
<path fill-rule="evenodd" clip-rule="evenodd" d="M54.2589 21.6784C73.676 21.6784 87.693 37.9606 93.1408 54.22C99.352 72.7532 95.7931 95.8224 78.9607 108.362C71.974 113.57 63.5916 116.157 54.7281 116.157H53.722C44.8625 116.157 36.4801 113.57 29.4934 108.362C12.6491 95.8073 9.08614 72.7343 15.2974 54.2011C20.765 37.8926 34.7821 21.6595 54.2668 21.6595L54.2589 21.6784ZM54.2589 29.0585C40.7389 29.0585 31.0919 42.1189 27.3779 53.2003C20.0214 75.1477 30.7818 99.4406 53.7101 99.4406H54.7042C77.6326 99.4406 88.3929 75.1477 81.0364 53.2003C77.3701 42.202 67.7192 29.0471 54.2589 29.0471V29.0585Z" fill="white"/>
<path fill-rule="evenodd" clip-rule="evenodd" d="M28.7458 30.3275C24.5466 25.0399 28.5788 17.3577 36.3568 19.1328C37.4264 19.2499 37.832 18.6494 37.4582 17.6863C34.8855 8.92014 45.6498 4.76557 51.3162 11.1409C52.0598 11.8774 53.0659 11.8397 53.4437 10.8766C53.7777 -2.43316 73.5765 -2.13857 72.3438 10.8237C71.8547 15.9565 65.894 19.0875 57.7382 19.5105C46.0395 20.077 36.8459 22.4225 28.7458 30.3275Z" fill="white"/>
<path fill-rule="evenodd" clip-rule="evenodd" d="M18.7451 47.3083L0 53.5666L12.9752 64.0777L18.7451 47.3083Z" fill="white"/>
<path fill-rule="evenodd" clip-rule="evenodd" d="M59.0786 48.1052C60.7407 49.0177 62.0806 50.3778 62.9288 52.0135C63.7771 53.6492 64.0956 55.4872 63.8442 57.2948C63.5927 59.1025 62.7825 60.7988 61.5161 62.1691C60.2496 63.5394 58.5838 64.5223 56.7292 64.9935C54.8747 65.4646 52.9147 65.4028 51.0971 64.8159C49.2795 64.2291 47.686 63.1435 46.5179 61.6964C45.3499 60.2493 44.6599 58.5058 44.5352 56.6863C44.4104 54.8667 44.8565 53.0529 45.8171 51.4742C46.4549 50.4259 47.3039 49.5072 48.3156 48.7705C49.3272 48.0339 50.4817 47.4937 51.7132 47.1809C52.9447 46.868 54.2289 46.7886 55.4927 46.9472C56.7565 47.1058 57.975 47.4993 59.0786 48.1052ZM52.6487 51.41C52.0536 51.0811 51.3693 50.9273 50.6822 50.968C49.9951 51.0087 49.3362 51.2421 48.7888 51.6386C48.2414 52.0351 47.8301 52.577 47.607 53.1956C47.384 53.8142 47.3591 54.4817 47.5357 55.1137C47.7122 55.7457 48.0821 56.3138 48.5987 56.7461C49.1152 57.1783 49.7552 57.4553 50.4375 57.542C51.1199 57.6287 51.814 57.5211 52.4319 57.233C53.0499 56.9449 53.564 56.4891 53.9092 55.9234C54.3707 55.165 54.4963 54.2636 54.2585 53.4173C54.0206 52.571 53.4387 51.849 52.6407 51.41H52.6487Z" fill="white"/>
<path fill-rule="evenodd" clip-rule="evenodd" d="M0 53.5628L14.9396 55.2171C15.043 54.8848 15.1504 54.5524 15.2617 54.22C16.0313 51.9466 16.9477 49.7203 18.0055 47.5538L0 53.5628Z" fill="#F6F6F6"/>
<path fill-rule="evenodd" clip-rule="evenodd" d="M65.3098 97.5143L64.7491 97.7296L64.4628 97.8354C64.2375 97.9159 64.0108 97.994 63.7828 98.0695L63.584 98.1337C63.3414 98.2131 63.0949 98.2886 62.8444 98.3604L62.6654 98.4132C62.407 98.485 62.1485 98.553 61.8701 98.621L61.7469 98.6512C61.4818 98.7192 61.2061 98.7821 60.9198 98.84L60.7965 98.8665C60.5022 98.9269 60.208 98.9835 59.9097 99.0364H59.874C59.5638 99.0893 59.2523 99.1371 58.9395 99.1799H58.9037C58.5896 99.2253 58.2714 99.263 57.9493 99.2932H57.8499C56.8248 99.3948 55.7948 99.4453 54.7642 99.4443H53.7581C30.8298 99.4443 20.0695 75.1514 27.4259 53.204L27.585 52.7394V52.6828L27.7361 52.2522L27.8117 52.0407L27.8991 51.8065L27.9628 51.6404L27.9906 51.5724L28.1695 51.1116L28.3604 50.6395V50.5942L28.4399 50.4015L28.5394 50.1636L28.5831 50.0616L28.6427 49.9257C28.7673 49.6361 28.8999 49.3478 29.0404 49.0607L29.0682 49.0003V48.9777L29.1 48.9135L29.2909 48.5018V48.4678L29.3863 48.2638L29.5017 48.0259L29.5454 47.9352V47.905L29.7323 47.5273L29.8397 47.3158L29.959 47.0779L30.0623 46.8739V46.8399L30.1856 46.602V46.568L30.4123 46.145L30.5395 45.9108L30.6588 45.6955V45.6767L30.79 45.4425V45.4198L30.9093 45.2083L31.0445 44.9742V44.9439L31.1638 44.7438L31.303 44.5096L31.5853 44.045L31.7285 43.8147L31.8716 43.5843L32.0188 43.3539C32.7544 42.2208 33.5457 41.0878 34.4047 40.0113L34.5756 39.7961L34.7466 39.5846L34.9216 39.3731L35.0966 39.1615L35.2715 38.9538L35.6294 38.5384C19.6877 49.4384 11.3332 74.3016 14.9517 88.1137C16.0372 92.0842 17.9238 95.8168 20.5069 99.1044C35.3312 111.032 62.5104 106.881 73.6326 92.3362C85.3751 81.9951 89.4191 63.0541 83.4783 45.3254C81.4423 39.2522 77.9112 32.6766 73.1196 27.355C67.648 23.8501 61.3174 21.6897 54.2751 21.6897C53.7157 21.6897 53.1604 21.7036 52.6089 21.7312V29.1604C53.1577 29.115 53.7104 29.0924 54.2751 29.0924C67.7355 29.0924 77.3744 42.2322 81.0606 53.2342C87.1963 71.469 80.7982 91.3203 65.3098 97.5143Z" fill="#F6F6F6"/>
<path fill-rule="evenodd" clip-rule="evenodd" d="M85.18 148.676H74.4794V131.616H79.5215V146.508L88.226 139.332H95.662L85.0488 148.487L85.1959 148.676H85.18ZM70.5307 148.676H65.5045V139.302H70.5307V148.676V148.676ZM55.774 148.676H50.7279V131.616H55.77V139.302H61.1979V143.679H55.7899V148.676H55.774ZM47.1371 148.676H42.1109V139.302H47.1491V148.676H47.1371ZM37.8282 148.676H32.122C32.2941 148.442 32.4534 148.2 32.5991 147.951C33.3187 146.758 33.6996 145.409 33.7046 144.034C33.7055 142.666 33.3284 141.322 32.6111 140.136C31.9232 138.957 30.9154 137.974 29.6923 137.289C28.4765 136.607 27.0879 136.253 25.6761 136.265C24.6187 136.244 23.5682 136.431 22.5912 136.816C21.6143 137.201 20.7325 137.775 20.0017 138.501C19.2346 139.239 18.6333 140.118 18.2341 141.083C17.8349 142.048 17.6462 143.081 17.6794 144.117C17.6594 145.497 18.0156 146.858 18.7133 148.068C18.835 148.277 18.9678 148.48 19.1109 148.676H12.8838V143.902C12.8838 138.92 15.3333 134.77 20.2641 132.719C22.0477 131.982 23.9736 131.606 25.9187 131.616C27.6108 131.595 29.2894 131.905 30.8498 132.527C32.4103 133.148 33.8193 134.069 34.989 135.23C36.1991 136.363 37.1555 137.717 37.8006 139.209C38.4457 140.702 38.7662 142.304 38.7428 143.917C38.7584 145.538 38.448 147.147 37.8282 148.657V148.676ZM44.616 131.62C45.0337 131.616 45.4479 131.692 45.8344 131.842C46.2209 131.993 46.5719 132.215 46.8667 132.496C47.1708 132.774 47.4116 133.108 47.5744 133.477C47.7371 133.847 47.8184 134.244 47.8131 134.645C47.8048 135.444 47.467 136.208 46.8722 136.773C46.2774 137.338 45.4731 137.659 44.632 137.666C44.2108 137.671 43.7932 137.593 43.4047 137.439C43.0163 137.284 42.6653 137.056 42.3733 136.768C41.9274 136.344 41.6239 135.805 41.5012 135.218C41.3785 134.631 41.4421 134.022 41.6841 133.47C41.9261 132.917 42.3354 132.445 42.8603 132.114C43.3851 131.782 44.0017 131.606 44.632 131.608L44.616 131.62ZM68.0136 131.62C68.4313 131.616 68.8456 131.691 69.2321 131.842C69.6186 131.992 69.9696 132.215 70.2643 132.496C70.5604 132.777 70.7952 133.111 70.9555 133.478C71.1157 133.846 71.1982 134.24 71.1982 134.637C71.1982 135.035 71.1157 135.429 70.9555 135.796C70.7952 136.164 70.5604 136.498 70.2643 136.779C69.9682 137.06 69.6167 137.283 69.2298 137.435C68.843 137.588 68.4284 137.666 68.0096 137.666C67.5909 137.666 67.1763 137.588 66.7894 137.435C66.4026 137.283 66.0511 137.06 65.755 136.779C65.3091 136.356 65.0055 135.817 64.8828 135.229C64.7601 134.642 64.8238 134.034 65.0658 133.481C65.3077 132.928 65.7171 132.456 66.2419 132.125C66.7667 131.794 67.3834 131.618 68.0136 131.62V131.62Z" fill="#F6F6F6"/>
</svg>
